<svg width="24" height="24" viewBox="0 0 24 24" fill="none" xmlns="http://www.w3.org/2000/svg">
<path d="M12.2013 14.9613C12.0024 14.9611 11.8118 14.882 11.6713 14.7413L8.20129 11.2613C8.06881 11.1191 7.99669 10.9311 8.00012 10.7368C8.00355 10.5424 8.08231 10.3571 8.21972 10.2197C8.35713 10.0822 8.54251 10.0035 8.73681 10.0001C8.93111 9.99669 9.11917 10.0688 9.26135 10.2013L12.2013 13.2013L15.1412 10.2013C15.2834 10.0688 15.4715 9.99669 15.6658 10.0001C15.8601 10.0035 16.0454 10.0822 16.1829 10.2197C16.3203 10.3571 16.399 10.5424 16.4025 10.7368C16.4059 10.9311 16.3338 11.1191 16.2013 11.2613L12.7313 14.7513C12.5892 14.8883 12.3987 14.9638 12.2013 14.9613Z" />
</svg>
