<?xml version="1.0" encoding="utf-8"?>
<!-- Generator: Adobe Illustrator 27.5.0, SVG Export Plug-In . SVG Version: 6.00 Build 0)  -->
<svg version="1.1" id="_x3C_Layer_x3E_" xmlns="http://www.w3.org/2000/svg" xmlns:xlink="http://www.w3.org/1999/xlink" x="0px"
	 y="0px" viewBox="0 0 2760 1840" style="enable-background:new 0 0 2760 1840;" xml:space="preserve">
<rect style="fill:#FFFFFF;" width="2760" height="1840"/>
<g>
	<path style="fill:#ef233c57;" d="M253.5,1544.125c-34.708-52.95-68.322-126.458-85.672-199.994
		c-37.896-159.736-19.949-383.959,268.368-563.459c30.148-18.789,50.82-36.582,64.75-53.763
		c77.379-95.391-53.15-171.468,80.06-287.573c180.66-157.449,377.81,16.732,578.681-54.671
		c35.488-12.596,71.108-32.884,106.761-64.017c232.021-202.401,720.344-109.931,920.674,70.2
		c84.917,76.383,115.363,191.902,56.05,305.268c-11.22,21.514-39.068,58.429,42.975,135.64
		c30.979,29.175,71.02,58.731,110.36,89.196c0.241,0.187,0.481,0.372,0.722,0.548c116.324,90.12,211.291,200.57,219.748,370.663
		c0,85.229-18.635,168.205-91.537,251.963H253.5z"/>
	<path style="fill:#080000;" d="M167.828,1344.131c17.35,73.536,50.964,147.044,85.672,199.994h2271.938
		c58.012-66.65,81.659-132.805,88.9-199.994H167.828z"/>
	<g>
		<rect x="757.511" y="485.616" style="fill:#ececec;" width="1432.581" height="485.203"/>
		<path style="fill:#080000;" d="M1508.207,926.677c-2.086-17.452-3.806-34.004-4.03-42.647c-0.107-3.724,0.071-5.976,0.604-6.225
			c5.572-2.55,49.428-15.686,71.741-34.099c10.054-8.299,26.734-38.994,25.135-40.465c-4.767-4.387-17.5,13.326-17.5,13.326
			c1.743-5.181,20.144-52.025,17.819-53.258c-3.354-1.777-9.982,3.048-12.437,10.055c-2.004,5.715-5.359,11.287-8.146,16.954
			c-4.232,8.548-8.572,15.84-8.999,15.911c-1.091,0.213,2.218-3.236,6.284-25.573c4.067-22.337,0.652-36.41-2.288-37.146
			c-4.636-1.139-7.208,7.611-7.849,17.998c-0.249,4.267-5.157,14.263-5.466,14.879c0.794-2.04-1.554-15.543-4.506-26.677
			c-1.339-5.05-4.884-16.195-6.592-16.041c-6.65,0.569-5.797,9.983-4.173,21.981c0.913,6.77-4.825,29.273-6.261,34.264
			c-2.69,9.438-23.296,28.598-32.65,27.471c-5.976-0.724,4.019-17.085,13.896-29.047c6.142-7.423,9.828-11.833,6.982-17.286
			c-4.352-8.312-51.515,35.627-63.572,55.426c-3.937,6.451-6.497,24.116-8.168,44.983c-0.878,10.979-1.506,22.847-1.957,34.43
			c-0.06,1.482-0.119,2.964-0.166,4.434c-0.095,2.633-0.178,5.253-0.261,7.826c-0.083,2.893-0.166,5.75-0.226,8.525H1508.207z"/>
		<path style="fill:#080000;" d="M1311.302,884.729c0.189-3.711,0.06-5.975-0.475-6.236c-5.501-2.668-49.049-16.823-70.935-35.733
			c-9.853-8.525-25.823-39.6-24.187-41.035c4.86-4.268,17.191,13.729,17.191,13.729c-1.625-5.216-18.946-52.486-16.599-53.649
			c3.402-1.707,9.912,3.273,12.212,10.327c1.873,5.763,5.086,11.406,7.754,17.133c4.031,8.654,8.204,16.041,8.631,16.123
			c1.079,0.237-2.146-3.283-5.702-25.715c-3.545-22.432,0.201-36.423,3.141-37.075c4.672-1.042,7.043,7.767,7.434,18.165
			c0.168,4.279,4.827,14.393,5.123,15.01c-0.747-2.064,1.908-15.509,5.121-26.57c1.459-5.015,5.265-16.077,6.959-15.887
			c6.64,0.724,5.573,10.113,3.664,22.076c-1.067,6.734,4.15,29.367,5.467,34.394c2.478,9.496,22.645,29.118,32.011,28.218
			c5.999-0.581-3.616-17.168-13.22-29.356c-5.964-7.564-9.556-12.069-6.58-17.441c4.541-8.216,50.685,36.79,62.28,56.862
			c3.782,6.545,5.94,24.257,7.125,45.16c0.629,11.002,0.983,22.882,1.162,34.477c0.024,1.482,0.048,2.964,0.071,4.434
			c0.023,2.644,0.047,5.265,0.071,7.849c0.012,2.253,0.023,4.494,0.023,6.688h-52.665
			C1308.824,909.508,1310.874,893.277,1311.302,884.729z"/>
		<g>
			<path style="fill:#080000;" d="M1486.757,761.86c-10.252,9.046-22.181,16.518-35.579,21.9
				c-17.15,6.898-34.933,9.664-52.244,8.781c-6.869-0.354-13.664-1.28-20.313-2.751c-0.015,0-0.015,0-0.029,0
				c-1.28-0.279-2.56-0.588-3.839-0.912c-36.815-9.384-68.82-35.608-84.087-73.57c-7.973-19.827-10.443-40.521-8.091-60.364
				c2.456-21.002,10.312-41.064,22.681-58.141c13.179-18.194,31.461-33.006,53.848-42.008c22.444-9.031,45.979-10.987,68.128-6.927
				c29.962,5.485,57.422,21.959,76.249,46.846c6.485,8.546,11.943,18.092,16.135,28.519
				C1539.662,673.066,1524.88,728.267,1486.757,761.86z"/>
			<path style="fill:#FFFFFF;" d="M1486.757,761.86c-10.252,9.046-22.181,16.518-35.579,21.9
				c-17.15,6.898-34.933,9.664-52.244,8.781c0.059-3.001,2.515-6.339,4.574-7.811c3.647-2.573,8.34-3.103,12.796-3.353
				c4.457-0.249,9.09-0.323,13.135-2.221c1.985-0.927,3.927-2.295,6.119-2.177c3.441,0.191,5.722,3.956,9.118,4.574
				c6.384-6.795,14.708-11.737,23.725-14.091c0.839-0.221,1.707-0.427,2.427-0.911c0.691-0.472,1.191-1.147,1.751-1.751
				c0.809-0.882,1.765-1.618,2.823-2.162C1478.844,760.846,1482.858,761.109,1486.757,761.86z"/>
			<g>
				<path style="fill:#909090;" d="M1503.48,594.715c-1.662,1.544-3.736,2.545-6.016,2.707c-3.706,0.235-7.148-1.722-10.635-2.987
					c-3.485-1.265-7.897-1.676-10.472,1.016c-2.148,2.25-2.104,5.928-0.824,8.781c1.279,2.854,3.53,5.133,5.53,7.531
					c9.281,11.089,13.768,26.077,12.12,40.447c-0.897,7.824-3.53,15.487-3.251,23.356c0.323,8.987,4.398,17.429,5.56,26.343
					c2.192,17.032-7.648,34.932-23.194,42.213c-1.354,0.632-12.458-10.325-19.313-32.727c-2.5-8.118,1.324-27.284-10.135-30.401
					c-3.044-0.839-7.912,1.779-16.708,3.015c-0.706,0.103-14.604-6.339-22.062-15.003c-6.473-7.501-7.369-18.591-4.751-28.151
					c1.103-4.015,2.823-7.972,5.823-10.854c8.002-7.649,21.211-4.825,31.506-8.899c5.413-2.148,9.841-6.162,14.914-8.973
					c2.854-1.589,6.339-3.354,6.664-6.604c0.499-5.192-7.531-7.854-7.635-13.061c-4.191,0.647-8.561,2.001-11.296,5.251
					c-2.722,3.251-2.927,8.854,0.545,11.311c0.794,0.559,1.794,1.001,2.161,1.912c0.545,1.339-0.779,2.854-2.221,3.06
					c-1.441,0.19-2.838-0.517-4.104-1.236c-3.691-2.103-7.222-4.589-11.223-5.985c-4.016-1.384-8.751-1.546-12.252,0.867
					c-2.795,1.912-4.383,5.133-6.897,7.384c-2.516,2.265-7.031,3.162-8.943,0.382c-1.985-2.912,0.559-6.634,2.073-9.824
					c1.383-2.898,1.868-6.325,0.78-9.354c-1.088-3.031-3.927-5.502-7.134-5.619c-2.647-0.104-5.089,1.294-7.634,2.029
					c-2.544,0.721-5.81,0.515-7.118-1.779c-1.515-2.662,0.778-6.001,3.501-7.398c2.721-1.397,5.941-1.765,8.441-3.516
					c1.515-1.073,2.662-2.573,4.089-3.736c7.473-6.133,20.666-2.279,26.623-9.898c3.854-4.941,2.133-14.429,7.235-18.443
					C1457.193,553.354,1484.653,569.828,1503.48,594.715z"/>
				<path style="fill:#909090;" d="M1501.037,673.444c-0.314,1.37-0.629,2.741-0.943,4.11c-0.217,0.945-0.435,1.918-0.274,2.873
					c0.339,2.012,2.58,3.48,4.559,2.983c1.978-0.496,3.263-2.847,2.612-4.78c-0.402-1.194-1.423-2.28-1.197-3.52
					c0.473-2.593,5.746-5.319,1.227-6.622C1503.664,667.523,1501.621,670.696,1501.037,673.444z"/>
				<path style="fill:#909090;" d="M1384.137,786.658c-0.853,2.148-3.147,3.133-5.516,3.133c-0.015,0-0.015,0-0.029,0
					c-1.28-0.279-2.56-0.588-3.839-0.912c-3.134-1.559-5.413-4.426-8.208-6.53c-5.353-4.045-12.442-5.222-17.841-9.207
					c-12.899-9.531-11.325-30.741-23.475-41.227c-2.53-2.191-5.545-3.781-8.03-6.03c-4.927-4.456-7.397-11.474-6.354-18.032
					c1.117-7.061,5.956-14.15,3.309-20.783c-2.941-7.339-13.148-9.031-17.15-15.826c-1.279-2.192-1.823-4.736-3.132-6.898
					c-1.515-2.485-3.928-4.266-6.325-5.913c-1.632-1.132-3.324-2.279-4.972-3.486c2.456-21.002,10.312-41.064,22.681-58.141
					c0.456,0.249,0.941,0.603,1.441,1.089c4.236,4.103,6.354,5.338,12.723,4.632c5.574-0.618,11.148-1.235,16.709-1.853
					c3.104-0.353,7.134-0.133,8.119,2.809c1.236,3.678-3.561,6.148-6.207,8.973c-3.633,3.882-3.045,10.899,1.206,14.104
					c3.133,2.383,8.384,3.913,7.942,7.84c-0.412,3.545-5.368,4.575-7.03,7.737c-0.986,1.867-0.647,4.235-1.633,6.104
					c-0.838,1.602-2.559,2.646-3.236,4.323c-0.823,2.089,0.222,4.457-0.073,6.692c-0.896,6.751-12.105,7.134-14.355,13.576
					c-1.705,4.912,3.324,9.928,8.458,10.751c5.147,0.824,10.296-0.985,15.458-1.603c5.163-0.617,11.296,0.485,13.781,5.046
					c2.574,4.735,0.75,12.163,5.561,14.591c1.47,0.749,3.206,0.734,4.839,1.044c4.207,0.809,7.78,4.016,9.384,7.987
					c1.604,3.971,1.309,8.589-0.441,12.501c-1.117,2.486-2.779,4.692-3.897,7.178c-3.03,6.723-1.794,14.518-0.397,21.769
					c1.721,9.001,3.662,18.15,8.252,26.094C1383.387,780.805,1385.255,783.835,1384.137,786.658z"/>
				<path style="fill:#909090;" d="M1348.331,592.81c1.636,1.376,2.779,3.239,4.261,4.78c1.482,1.54,3.549,2.807,5.652,2.43
					c1.642-0.293,2.982-1.558,3.759-3.033c0.776-1.476,1.069-3.152,1.297-4.804c0.446-3.243,0.681-6.516,0.698-9.789
					c0.01-1.809-0.077-3.727-1.069-5.239c-0.88-1.344-2.348-2.171-3.782-2.893c-1.993-1.003-4.106-1.919-6.337-1.967
					c-3.195-0.067-6.151,1.652-8.686,3.602c-2.089,1.604-12.974,11.029-10.753,13.849c0.871,1.103,6.397,0.159,7.823,0.328
					C1343.775,590.378,1346.308,591.109,1348.331,592.81z"/>
			</g>
		</g>
		<g>
			<g>
				<rect x="1610.775" y="537.856" style="fill:#EBF3FA;" width="215.114" height="82.143"/>
				<g>
					<g>
						<rect x="1624.119" y="565.673" style="fill:#080000;" width="25.659" height="4.281"/>
						<rect x="1652.924" y="565.673" style="fill:#080000;" width="28.332" height="4.281"/>
						<rect x="1683.388" y="565.673" style="fill:#080000;" width="18.063" height="4.281"/>
						<rect x="1704.375" y="565.673" style="fill:#080000;" width="13.939" height="4.281"/>
					</g>
					<g>
						<rect x="1624.119" y="555.68" style="fill:#080000;" width="39.368" height="4.282"/>
						<rect x="1667.236" y="555.68" style="fill:#080000;" width="22.694" height="4.282"/>
						<rect x="1693.132" y="555.68" style="fill:#080000;" width="25.201" height="4.282"/>
					</g>
				</g>
				<g>
					<g>
						<rect x="1624.119" y="593.44" style="fill:#080000;" width="25.659" height="4.282"/>
						<rect x="1652.924" y="593.44" style="fill:#080000;" width="28.332" height="4.282"/>
						<rect x="1683.388" y="593.44" style="fill:#080000;" width="18.063" height="4.282"/>
						<rect x="1704.375" y="593.44" style="fill:#080000;" width="13.939" height="4.282"/>
					</g>
					<g>
						<rect x="1624.119" y="583.447" style="fill:#080000;" width="39.368" height="4.282"/>
						<rect x="1667.236" y="583.447" style="fill:#080000;" width="22.694" height="4.282"/>
						<rect x="1693.132" y="583.447" style="fill:#080000;" width="25.201" height="4.282"/>
					</g>
				</g>
				<polygon style="fill:#080000;" points="1748.739,597.722 1760.539,569.954 1779.146,583.447 1787.769,555.68 1800.021,559.962 
					1810.006,546.479 1810.006,597.722 				"/>
			</g>
		</g>
		<g>
			<g>
				<rect x="1610.775" y="632.656" style="fill:#EBF3FA;" width="215.114" height="82.143"/>
				<g>
					<g>
						<rect x="1624.119" y="660.471" style="fill:#080000;" width="25.659" height="4.283"/>
						<rect x="1652.924" y="660.471" style="fill:#080000;" width="28.332" height="4.283"/>
						<rect x="1683.388" y="660.471" style="fill:#080000;" width="18.063" height="4.283"/>
						<rect x="1704.375" y="660.471" style="fill:#080000;" width="13.939" height="4.283"/>
					</g>
					<g>
						<rect x="1624.119" y="650.479" style="fill:#080000;" width="39.368" height="4.283"/>
						<rect x="1667.236" y="650.479" style="fill:#080000;" width="22.694" height="4.283"/>
						<rect x="1693.132" y="650.479" style="fill:#080000;" width="25.201" height="4.283"/>
					</g>
				</g>
				<g>
					<g>
						<rect x="1624.119" y="688.239" style="fill:#080000;" width="25.659" height="4.282"/>
						<rect x="1652.924" y="688.239" style="fill:#080000;" width="28.332" height="4.282"/>
						<rect x="1683.388" y="688.239" style="fill:#080000;" width="18.063" height="4.282"/>
						<rect x="1704.375" y="688.239" style="fill:#080000;" width="13.939" height="4.282"/>
					</g>
					<g>
						<rect x="1624.119" y="678.247" style="fill:#080000;" width="39.368" height="4.281"/>
						<rect x="1667.236" y="678.247" style="fill:#080000;" width="22.694" height="4.281"/>
						<rect x="1693.132" y="678.247" style="fill:#080000;" width="25.201" height="4.281"/>
					</g>
				</g>
				<polygon style="fill:#080000;" points="1748.739,692.521 1760.539,664.754 1779.146,678.247 1787.769,650.479 1800.021,654.762 
					1810.006,641.278 1810.006,692.521 				"/>
			</g>
		</g>
		<g>
			<g>
				<path style="fill:#FFFFFF;" d="M1181.375,934.202H819.408V680.479h361.967V934.202z M821.964,931.648h356.856V683.033H821.964
					V931.648z"/>
			</g>
			<g>
				<path style="fill:#080000;" d="M1154.767,899.413H833.743c0,0,51.584-37.104,67.49-35.159
					c15.906,1.942,40.521,16.96,55.042,17.543c14.521,0.582,22.549-52.075,38.976-49.594c16.428,2.48,29.203,49.055,36.868,44.505
					c7.666-4.55,32.366-6.523,47.697,0c15.33,6.523,32.365-20.732,45.14-19.881C1137.731,857.679,1154.767,899.413,1154.767,899.413
					z"/>
				<g>
					<rect x="838.853" y="820.913" style="fill:#080000;" width="61.315" height="3.95"/>
					<rect x="838.853" y="829.351" style="fill:#080000;" width="61.315" height="3.95"/>
				</g>
			</g>
			<g>
				<path style="fill:#EBF3FA;" d="M833.743,772.231h321.023c0,0-51.586-37.103-67.491-35.159
					c-15.904,1.942-40.521,16.96-55.042,17.543c-14.521,0.582-22.549-52.075-38.977-49.594
					c-16.427,2.48-29.202,49.056-36.867,44.506c-7.666-4.551-32.365-6.523-47.696,0c-15.33,6.521-32.364-20.733-45.141-19.881
					C850.777,730.497,833.743,772.231,833.743,772.231z"/>
				<g>
					<rect x="838.853" y="700.984" style="fill:#EBF3FA;" width="61.315" height="3.95"/>
					<rect x="838.853" y="709.422" style="fill:#EBF3FA;" width="61.315" height="3.95"/>
				</g>
			</g>
		</g>
		<g>
			<g>
				<g>
					<rect x="819.408" y="546.487" style="fill:#080000;" width="37.665" height="6.225"/>
					<rect x="861.689" y="546.487" style="fill:#080000;" width="41.589" height="6.225"/>
					<rect x="906.406" y="546.487" style="fill:#080000;" width="26.514" height="6.225"/>
					<rect x="937.214" y="546.487" style="fill:#080000;" width="20.461" height="6.225"/>
				</g>
				<g>
					<rect x="819.408" y="573.041" style="fill:#080000;" width="37.665" height="6.224"/>
					<rect x="861.689" y="573.041" style="fill:#080000;" width="41.589" height="6.224"/>
					<rect x="906.406" y="573.041" style="fill:#080000;" width="26.514" height="6.224"/>
					<rect x="937.214" y="573.041" style="fill:#080000;" width="20.461" height="6.224"/>
				</g>
				<g>
					<rect x="819.408" y="531.966" style="fill:#080000;" width="57.788" height="6.224"/>
					<rect x="882.7" y="531.966" style="fill:#080000;" width="33.311" height="6.224"/>
					<rect x="920.71" y="531.966" style="fill:#080000;" width="36.992" height="6.224"/>
				</g>
				<g>
					<rect x="819.408" y="560.201" style="fill:#080000;" width="57.788" height="6.223"/>
					<rect x="882.7" y="560.201" style="fill:#080000;" width="33.311" height="6.223"/>
					<rect x="920.71" y="560.201" style="fill:#080000;" width="36.992" height="6.223"/>
				</g>
				<g>
					<rect x="819.408" y="599.596" style="fill:#080000;" width="37.665" height="6.224"/>
					<rect x="861.689" y="599.596" style="fill:#080000;" width="41.589" height="6.224"/>
					<rect x="906.406" y="599.596" style="fill:#080000;" width="26.514" height="6.224"/>
					<rect x="937.214" y="599.596" style="fill:#080000;" width="20.461" height="6.224"/>
				</g>
				<g>
					<rect x="819.408" y="586.754" style="fill:#080000;" width="57.788" height="6.224"/>
					<rect x="882.7" y="586.754" style="fill:#080000;" width="33.311" height="6.224"/>
					<rect x="920.71" y="586.754" style="fill:#080000;" width="36.992" height="6.224"/>
				</g>
				<g>
					<rect x="819.408" y="624.489" style="fill:#080000;" width="37.665" height="6.225"/>
					<rect x="861.689" y="624.489" style="fill:#080000;" width="41.589" height="6.225"/>
					<rect x="906.406" y="624.489" style="fill:#080000;" width="26.514" height="6.225"/>
					<rect x="937.214" y="624.489" style="fill:#080000;" width="20.461" height="6.225"/>
				</g>
				<g>
					<rect x="819.408" y="611.649" style="fill:#080000;" width="57.788" height="6.224"/>
					<rect x="882.7" y="611.649" style="fill:#080000;" width="33.311" height="6.224"/>
					<rect x="920.71" y="611.649" style="fill:#080000;" width="36.992" height="6.224"/>
				</g>
			</g>
		</g>
		<g>
			<g>
				<g>
					<rect x="1594.364" y="864.523" style="fill:#080000;" width="27.591" height="4.052"/>
					<rect x="1625.336" y="864.523" style="fill:#080000;" width="30.465" height="4.052"/>
					<rect x="1658.092" y="864.523" style="fill:#080000;" width="19.421" height="4.052"/>
					<rect x="1680.658" y="864.523" style="fill:#080000;" width="14.988" height="4.052"/>
				</g>
				<g>
					<rect x="1594.364" y="881.81" style="fill:#080000;" width="27.591" height="4.052"/>
					<rect x="1625.336" y="881.81" style="fill:#080000;" width="30.465" height="4.052"/>
					<rect x="1658.092" y="881.81" style="fill:#080000;" width="19.421" height="4.052"/>
					<rect x="1680.658" y="881.81" style="fill:#080000;" width="14.988" height="4.052"/>
				</g>
				<g>
					<rect x="1594.364" y="855.068" style="fill:#080000;" width="42.33" height="4.052"/>
					<rect x="1640.727" y="855.068" style="fill:#080000;" width="24.399" height="4.052"/>
					<rect x="1668.568" y="855.068" style="fill:#080000;" width="27.098" height="4.052"/>
				</g>
				<g>
					<rect x="1594.364" y="873.45" style="fill:#080000;" width="42.33" height="4.052"/>
					<rect x="1640.727" y="873.45" style="fill:#080000;" width="24.399" height="4.052"/>
					<rect x="1668.568" y="873.45" style="fill:#080000;" width="27.098" height="4.052"/>
				</g>
				<g>
					<rect x="1594.364" y="899.099" style="fill:#080000;" width="27.591" height="4.052"/>
					<rect x="1625.336" y="899.099" style="fill:#080000;" width="30.465" height="4.052"/>
					<rect x="1658.092" y="899.099" style="fill:#080000;" width="19.421" height="4.052"/>
					<rect x="1680.658" y="899.099" style="fill:#080000;" width="14.988" height="4.052"/>
				</g>
				<g>
					<rect x="1594.364" y="890.738" style="fill:#080000;" width="42.33" height="4.052"/>
					<rect x="1640.727" y="890.738" style="fill:#080000;" width="24.399" height="4.052"/>
					<rect x="1668.568" y="890.738" style="fill:#080000;" width="27.098" height="4.052"/>
				</g>
				<g>
					<rect x="1594.364" y="915.306" style="fill:#080000;" width="27.591" height="4.052"/>
					<rect x="1625.336" y="915.306" style="fill:#080000;" width="30.465" height="4.052"/>
					<rect x="1658.092" y="915.306" style="fill:#080000;" width="19.421" height="4.052"/>
					<rect x="1680.658" y="915.306" style="fill:#080000;" width="14.988" height="4.052"/>
				</g>
				<g>
					<rect x="1594.364" y="906.945" style="fill:#080000;" width="42.33" height="4.053"/>
					<rect x="1640.727" y="906.945" style="fill:#080000;" width="24.399" height="4.053"/>
					<rect x="1668.568" y="906.945" style="fill:#080000;" width="27.098" height="4.053"/>
				</g>
			</g>
		</g>
		<g>
			<g>
				<rect x="1908.996" y="826.847" style="fill:#080000;" width="30.841" height="94.924"/>
				<rect x="1957.461" y="790.846" style="fill:#080000;" width="30.842" height="130.925"/>
				<rect x="2008.129" y="808.198" style="fill:#080000;" width="30.841" height="113.572"/>
				<rect x="2061" y="839.813" style="fill:#080000;" width="30.841" height="81.957"/>
				<rect x="2110.566" y="865.167" style="fill:#080000;" width="30.841" height="56.604"/>
			</g>
		</g>
		<g>
			<g>
				<polygon style="fill:#080000;" points="1937.395,597.57 1976.301,619.336 2018.743,554.585 1966.234,554.585 				"/>
				<path style="fill:#080000;" d="M2013.234,616.208l-15.439,8.706l49.516,2.108l18.908-38.022l-14.419,7.618l-24.486-40.267
					c0,0-26.118,38.905-26.391,39.722c0,0,12.312,20.134,13.195,20.745L2013.234,616.208z"/>
			</g>
			<g>
				<polygon style="fill:#080000;" points="2076.409,635.63 2037.891,658.072 2072.082,727.535 2098.771,682.315 				"/>
				<path style="fill:#080000;" d="M2021.915,686.324l0.247-12.577l-26.982,41.571l23.131,35.609l-0.334-16.779l48.226-0.132
					c0,0-23.573-47.043-24.138-47.692H2021.915L2021.915,686.324z"/>
			</g>
			<g>
				<polygon style="fill:#080000;" points="1974.082,734.148 1973.662,688.032 1901.696,686.324 1925.313,734.148 				"/>
				<path style="fill:#080000;" d="M1955.23,655.876l14.411,10.318l-18.999-45.774l-42.45-1.084l12.995,9.855l-21.006,48.912
					c0,0,44.274,0.744,45.13,0.647c0,0,9.919-22.873,10.101-23.934L1955.23,655.876z"/>
			</g>
		</g>
		<g>
			<path style="opacity:0.5;fill:#080000;" d="M1133.192,637.016c-5.777,5.098-12.499,9.309-20.05,12.343
				c-9.664,3.887-19.685,5.444-29.441,4.947c-3.87-0.198-7.699-0.721-11.445-1.55c-0.009,0-0.009,0-0.018,0
				c-0.721-0.158-1.441-0.331-2.163-0.514c-20.746-5.288-38.782-20.066-47.385-41.459c-4.493-11.173-5.886-22.835-4.559-34.016
				c1.385-11.836,5.811-23.142,12.78-32.765c7.427-10.253,17.729-18.6,30.345-23.672c12.647-5.09,25.91-6.192,38.392-3.903
				c16.884,3.091,32.358,12.374,42.969,26.398c3.654,4.814,6.729,10.194,9.092,16.071
				C1163.006,586.977,1154.677,618.086,1133.192,637.016z"/>
			<path style="fill:#FFFFFF;" d="M1133.192,637.016c-5.777,5.098-12.499,9.309-20.05,12.343
				c-9.664,3.887-19.685,5.444-29.441,4.947c0.033-1.691,1.418-3.572,2.578-4.401c2.056-1.45,4.699-1.748,7.211-1.889
				c2.512-0.142,5.123-0.183,7.402-1.252c1.118-0.523,2.213-1.294,3.447-1.228c1.94,0.108,3.225,2.231,5.139,2.579
				c3.598-3.829,8.289-6.614,13.37-7.94c0.473-0.125,0.961-0.241,1.367-0.515c0.39-0.266,0.671-0.647,0.986-0.986
				c0.456-0.497,0.995-0.912,1.591-1.218C1128.733,636.444,1130.996,636.594,1133.192,637.016z"/>
			<g>
				<path style="fill:#080000;" d="M1142.617,542.826c-0.938,0.87-2.106,1.434-3.392,1.524c-2.088,0.133-4.027-0.97-5.992-1.682
					c-1.964-0.714-4.451-0.945-5.901,0.571c-1.21,1.269-1.185,3.341-0.463,4.948c0.721,1.608,1.989,2.893,3.115,4.243
					c5.23,6.25,7.758,14.696,6.83,22.794c-0.506,4.409-1.989,8.729-1.832,13.162c0.183,5.064,2.479,9.821,3.133,14.845
					c1.235,9.598-4.31,19.685-13.07,23.788c-0.763,0.357-7.021-5.819-10.883-18.442c-1.409-4.575,0.746-15.375-5.711-17.132
					c-1.716-0.472-4.459,1.003-9.416,1.698c-0.396,0.059-8.229-3.572-12.433-8.454c-3.646-4.227-4.152-10.476-2.677-15.863
					c0.621-2.264,1.592-4.492,3.282-6.118c4.509-4.309,11.952-2.719,17.753-5.014c3.052-1.21,5.546-3.473,8.405-5.056
					c1.608-0.894,3.572-1.891,3.755-3.722c0.282-2.926-4.244-4.426-4.302-7.36c-2.362,0.364-4.824,1.127-6.366,2.958
					c-1.533,1.833-1.649,4.99,0.307,6.375c0.447,0.315,1.012,0.563,1.219,1.077c0.307,0.755-0.438,1.608-1.251,1.725
					c-0.812,0.107-1.6-0.291-2.313-0.697c-2.081-1.185-4.069-2.585-6.325-3.372c-2.262-0.78-4.931-0.871-6.903,0.488
					c-1.575,1.077-2.471,2.894-3.888,4.161c-1.417,1.276-3.962,1.781-5.039,0.216c-1.119-1.642,0.314-3.739,1.169-5.537
					c0.778-1.633,1.052-3.563,0.439-5.271c-0.614-1.708-2.214-3.101-4.021-3.166c-1.492-0.059-2.867,0.729-4.301,1.144
					c-1.435,0.406-3.274,0.29-4.013-1.003c-0.854-1.5,0.439-3.382,1.973-4.169c1.533-0.787,3.349-0.995,4.758-1.982
					c0.854-0.604,1.5-1.45,2.304-2.106c4.211-3.456,11.646-1.284,15.003-5.578c2.171-2.785,1.202-8.131,4.077-10.393
					C1116.532,519.519,1132.007,528.802,1142.617,542.826z"/>
				<path style="fill:#080000;" d="M1141.239,587.191c-0.177,0.773-0.354,1.545-0.531,2.316c-0.122,0.533-0.245,1.082-0.154,1.619
					c0.19,1.134,1.454,1.96,2.567,1.682c1.116-0.28,1.841-1.604,1.474-2.693c-0.228-0.674-0.802-1.285-0.675-1.984
					c0.266-1.461,3.238-2.997,0.691-3.732C1142.721,583.856,1141.569,585.643,1141.239,587.191z"/>
				<path style="fill:#080000;" d="M1075.363,650.991c-0.48,1.21-1.773,1.765-3.107,1.765c-0.009,0-0.009,0-0.018,0
					c-0.721-0.158-1.441-0.331-2.163-0.514c-1.765-0.879-3.05-2.495-4.624-3.68c-3.018-2.279-7.013-2.942-10.055-5.19
					c-7.269-5.371-6.382-17.322-13.229-23.232c-1.425-1.234-3.125-2.131-4.524-3.398c-2.777-2.511-4.17-6.464-3.581-10.161
					c0.629-3.979,3.356-7.974,1.865-11.711c-1.659-4.137-7.411-5.09-9.665-8.919c-0.722-1.235-1.028-2.669-1.766-3.888
					c-0.853-1.4-2.214-2.404-3.563-3.331c-0.92-0.639-1.874-1.285-2.802-1.965c1.385-11.836,5.811-23.142,12.78-32.765
					c0.257,0.142,0.531,0.34,0.813,0.613c2.387,2.313,3.581,3.009,7.169,2.611c3.142-0.349,6.284-0.697,9.416-1.045
					c1.749-0.198,4.021-0.074,4.575,1.583c0.697,2.072-2.006,3.465-3.497,5.056c-2.048,2.189-1.716,6.142,0.679,7.949
					c1.767,1.343,4.726,2.205,4.477,4.418c-0.232,1.997-3.025,2.577-3.962,4.359c-0.556,1.053-0.365,2.387-0.92,3.439
					c-0.473,0.904-1.442,1.491-1.824,2.437c-0.464,1.177,0.125,2.513-0.041,3.771c-0.505,3.805-6.821,4.019-8.09,7.65
					c-0.961,2.769,1.874,5.595,4.767,6.06c2.9,0.464,5.802-0.556,8.711-0.903c2.909-0.349,6.365,0.273,7.767,2.843
					c1.45,2.668,0.423,6.854,3.132,8.222c0.83,0.423,1.809,0.414,2.729,0.588c2.369,0.457,4.384,2.264,5.288,4.502
					c0.902,2.236,0.736,4.841-0.249,7.045c-0.63,1.4-1.567,2.644-2.197,4.045c-1.707,3.788-1.012,8.181-0.224,12.267
					c0.97,5.072,2.064,10.227,4.649,14.704C1074.941,647.691,1075.994,649.399,1075.363,650.991z"/>
				<path style="fill:#080000;" d="M1055.187,541.752c0.921,0.775,1.566,1.826,2.401,2.694c0.834,0.867,1.999,1.581,3.185,1.369
					c0.926-0.166,1.681-0.878,2.118-1.709c0.438-0.832,0.603-1.777,0.73-2.708c0.252-1.827,0.384-3.671,0.393-5.517
					c0.007-1.018-0.043-2.099-0.602-2.952c-0.496-0.757-1.322-1.224-2.131-1.63c-1.123-0.565-2.314-1.081-3.571-1.108
					c-1.801-0.038-3.466,0.932-4.895,2.029c-1.177,0.905-7.311,6.217-6.06,7.805c0.49,0.622,3.605,0.09,4.409,0.185
					C1052.618,540.382,1054.046,540.794,1055.187,541.752z"/>
			</g>
		</g>
	</g>
	<g>
		<path style="fill:#163560;" d="M1831.045,819.493c-10.251-5.316-18.463-1.975-18.463-1.975
			c-31.362-3.684-40.512,32.892-40.086,45.477c0.42,12.582,1.86,26.102-12.146,42.449c-40.455,47.227,44.273,49.31,44.273,49.31
			c0.716-37.732,45.947-23.964,43.964-20.141C1906.569,948.529,1854.354,831.587,1831.045,819.493z"/>
		<path style="fill:#FFB27D;" d="M1710.067,970.758c0,0-5.516-8.396-9.96-8.56c-4.446-0.165-12.678-2.471-12.019-0.823
			c0.658,1.645,5.763,1.811,6.257,2.799c0.493,0.987-7.574,2.469-9.879,2.634c-2.305,0.164-7.737,0-7.572,1.152
			c0.164,1.152,9.792,5.927,16.584,5.268c6.793-0.658,15.188,1.977,15.188,1.977L1710.067,970.758z"/>
		<path style="fill:#be0038;" d="M1789.829,973.475c0,0-2.998,5.936-8.435,12.756c-6.555,8.209-16.659,17.691-29.347,19.563
			c-6.061,0.894-11.987-0.41-17.435-2.83c-0.016-0.005-0.02-0.005-0.02-0.005c-15.41-6.841-26.996-22.57-26.996-22.57
			c-2.717-7.408,1.729-12.432,1.729-12.432s31.114,6.998,34.078,5.518c2.963-1.482,20.249-51.28,24.363-57.538
			c4.119-6.258,18.146-9.508,18.146-9.508L1789.829,973.475z"/>
		<path style="fill:#163560;" d="M1781.395,986.231c-6.555,8.209-16.659,17.691-29.347,19.563c-6.061,0.894-11.987-0.41-17.435-2.83
			c0.602,0.079,15.992,1.98,22.126-8.993c6.258-11.197,13.023-28.977,22.318-23.05
			C1783.068,973.479,1782.89,979.835,1781.395,986.231z"/>
		<path style="fill:#294A7F;" d="M1905.914,1309.344c0,0,9.494,8.664,7.641,14.82c-1.853,6.156-10.42,10.26-11.578,17.785
			c-1.158,7.524-5.789,11.629-9.957,11.629s-19.873,0-19.873,0s-3.067-5.296,4.343-6.892c7.41-1.597,10.204-10.438,9.741-18.646
			c-0.463-8.208,0.695-19.153,0.695-19.153l15.746-3.648L1905.914,1309.344z"/>
		<path style="fill:#294A7F;" d="M1825.554,1313.021c0,0,3.416,36.706-0.753,38.758l-53.344-0.108c0,0,0-6.157,8.568-7.525
			s23.62-6.385,26.167-17.558C1808.74,1315.416,1825.554,1313.021,1825.554,1313.021z"/>
		<path style="fill:#be0038;" d="M1866.589,948.716c0,0,0.796,11.207,0,24.656c-0.528,8.914-9.546,20.855-10.826,23.809
			c-3.21,7.408-6.829,8.613-6.829,8.613l-28.009,6.864l-9.849,2.411l-31.055-9.275c0,0-14.146-39.481-8.466-61.706
			c5.68-22.226,14.357-37.659,14.357-37.659s23.843-4.96,58.339-2.104L1866.589,948.716z"/>
		<path style="fill:#ED7D2B;" d="M1781.996,1011.787c0,0-15.38,47.869-16.367,64.168c-0.988,16.299,29.398,231.532,30.621,239.041
			c1.152,7.08,9.942,11.592,9.942,11.592s4.043,2.386,9.813,0.757c8.006-2.261,10.535-4.968,10.535-4.968
			s11.971-153.503,4.563-208.337s-7.495-102.253-7.495-102.253H1781.996z"/>
		<path style="fill:#F99746;" d="M1847.156,1010.359c0,0,23.459,31.477,25.646,52.756c2.188,21.277,3.433,96.019,8.092,116.763
			c4.659,20.743,21.778,60.661,21.778,125.36c0,0-1.779,3.708-7.274,5.684c-1.757,0.632-4.111,1.244-6.396,1.77
			c-4.531,1.038-9.181-1.177-11.248-5.34c-11.574-23.303-48.44-98.461-50.331-114.063c-1.338-11.041-12.979-84.112-38.37-126.989
			c-6.097-10.294,3.741-51.231,3.741-51.231L1847.156,1010.359z"/>
		<path style="fill:#233862;" d="M1779.54,1004.396c0,0,6.174,4.884,18.438,5.131c14.65,0.296,50.953-3.734,50.953-3.734
			s1.612,4.506,1.547,9.266c0,0-44.337,11.184-70.026,1.633C1780.452,1016.691,1777.139,1010.457,1779.54,1004.396z"/>
		<g>
			<path style="fill:#FFFFFF;" d="M1794.464,1022.152c-3.686,0-6.685-3.393-6.685-7.565c0-4.173,2.999-7.566,6.685-7.566
				c3.687,0,6.685,3.394,6.685,7.566C1801.148,1018.759,1798.15,1022.152,1794.464,1022.152z M1794.464,1009.236
				c-2.465,0-4.469,2.4-4.469,5.351s2.004,5.35,4.469,5.35c2.464,0,4.47-2.399,4.47-5.35S1796.928,1009.236,1794.464,1009.236z"/>
		</g>
		
			<rect x="1816.761" y="960.52" transform="matrix(0.7542 -0.6567 0.6567 0.7542 -203.7957 1459.114)" style="fill:#6385DB;" width="60.233" height="82.448"/>
		<path style="fill:#FFB27D;" d="M1838.687,1013.201c0,0-16.644,1.946-16.593,5.897c0.053,3.95,4.148,12.067,6.204,12.428
			c2.055,0.36,13.545-10.976,13.545-10.976L1838.687,1013.201z"/>
		<path style="fill:#be0038;" d="M1844.252,904.325c0,0,22.22,1.558,30.737,22.264c8.519,20.706,24.679,55.472,24.679,61.32
			c0,5.849-9.026,23.878-57.51,34.243c0,0-5.015-5.274-4.711-9.446c0,0,30.264-25.995,30.184-29.033
			c-0.154-5.747-4.963-13.333-31.533-39.913C1828.874,936.534,1844.252,904.325,1844.252,904.325z"/>
		<path style="fill:#FFB27D;" d="M1830.016,906.747c-1.868-5.232-4.241-18.928-4.206-28.608l-1.406,0.276l-23.644,4.682
			c0,0,0.537,7.44,0.554,14.449c0,0.06,0.001,0.117,0.001,0.176c0.028,6.087-0.024,10.984,0.613,12.643
			C1804.179,916.208,1831.566,911.091,1830.016,906.747z"/>
		<path style="fill:#E8945B;" d="M1800.76,883.097c0,0,0.537,7.44,0.554,14.449c13.23-0.372,20.224-12.441,23.09-19.131
			L1800.76,883.097z"/>
		<path style="fill:#FFB27D;" d="M1796.342,889.733c0,0,31.303,0.517,31.324-18.982c0.021-19.498,4.076-32.564-15.909-33.718
			c-19.985-1.154-23.877,6.281-25.467,12.788C1784.699,856.328,1788.199,889.098,1796.342,889.733z"/>
		<path style="fill:#163560;" d="M1797.499,836.555c0,0,8.571,22.876,21.725,26.259c13.154,3.383,18.859-0.142,18.859-0.142
			s-10.09-8.016-12.183-22.006C1825.9,840.666,1803.966,825.667,1797.499,836.555z"/>
		<path style="fill:#163560;" d="M1799.624,838.412c0,0-6.355,2.376-8.972,7.011c-2.558,4.533-4.736,10.536-4.231,17.901
			c0,0-6.457-15.549,0.8-24.346C1794.916,829.653,1799.624,838.412,1799.624,838.412z"/>
	</g>
	<g>
		<g>
			<g>
				<g>
					<path style="fill:#080000;" d="M944.896,1344.801l0.266-0.004c2.176-0.04,3.855-1.795,3.65-3.813l-14.51-143.039l-12.662,1.115
						l20.836,143.808C942.639,1343.991,943.68,1344.822,944.896,1344.801z"/>
				</g>
				<g>
					<path style="fill:#080000;" d="M805.173,1344.801l-0.268-0.004c-2.175-0.04-3.854-1.795-3.65-3.813l14.512-143.039
						l12.662,1.115l-20.836,143.808C807.43,1343.991,806.389,1344.822,805.173,1344.801z"/>
				</g>
				<path style="fill:#080000;" d="M809.494,1177.138l-25.759-125.549c-3.306-16.999,10.965-32.542,29.494-32.125l49.675,1.121
					c17.137,0.386,32.036,11.706,36.8,27.959l37.685,128.594H809.494z"/>
				<path style="fill:#080000;" d="M825.076,1177.138l-25.758-125.549c-3.306-16.999,10.965-32.542,29.494-32.125l49.675,1.121
					c17.138,0.386,32.036,11.706,36.8,27.959l37.684,128.594H825.076z"/>
				<path style="fill:#080000;" d="M816.626,1200.035h196.628c3.923,0,7.132-3.209,7.132-7.133v-8.633
					c0-3.923-3.209-7.132-7.132-7.132h-203.76v15.765C809.494,1196.826,812.703,1200.035,816.626,1200.035z"/>
				<path style="fill:#080000;" d="M908.863,1200.035h125.362c3.16,0,5.745-2.585,5.745-5.746v-11.406
					c0-3.16-2.585-5.745-5.745-5.745H908.863c-3.16,0-5.746,2.585-5.746,5.745v11.406
					C903.117,1197.45,905.703,1200.035,908.863,1200.035z"/>
			</g>
			<g>
				<path style="fill:#233862;" d="M893.547,912.852c0,0-15.345-5.678-29.346,5.134c-13.999,10.811-6.668,38.797-6.668,38.797
					s-12.996,4.082-12.33,17.173c0.667,13.09-19.297,6.649-18.994,23.527c0.303,16.877,27.944,19.825,47.629,19.825
					c19.685,0,59.006-19.974,52.009-30.65c-6.999-10.676-17.632-26.627-16.48-32.319c1.151-5.691,3.735-25.019,3.735-25.019
					S909.733,913.727,893.547,912.852z"/>
				<path style="fill:#FFB27D;" d="M905.875,992.611c0.107,0.034-9.394,5.941-17.139,4.698
					c-7.285-1.163-14.993-10.209-14.897-10.238c2.943-0.854,5.548-4.125,3.708-20.993l1.386,0.125l23.279,2.125
					c0,0,0.2,6.886,0.863,13.326C903.629,987.063,904.513,992.159,905.875,992.611z"/>
				<path style="fill:#ED975D;" d="M902.212,968.328c0,0,0.2,6.886,0.863,13.326c-12.81,0.875-20.729-9.569-24.143-15.451
					L902.212,968.328z"/>
				<path style="fill:#FFB27D;" d="M907.12,974.019c0,0-30.173,3.355-32.08-14.557c-1.906-17.912-7.085-29.542,12.1-32.441
					c19.185-2.899,23.66,3.574,25.825,9.404C915.129,942.258,914.92,972.685,907.12,974.019z"/>
				<path style="fill:#233862;" d="M909.366,927.227c0,0-14.571,19.848-26.942,24.166c-12.372,4.317-18.223,1.605-18.223,1.605
					s5.903-7.733,7.85-18.374c0.573-3.137,2.862-5.748,6.021-6.798C886.942,924.88,904.046,920.366,909.366,927.227z"/>
				<path style="fill:#233862;" d="M897.324,928.69c0,0,7.789,4.231,10.899,8.017c3.001,3.654,6.209,13.357,5.744,17.631
					c0,0,4.905-20.373-2.95-27.786C902.685,918.691,897.324,928.69,897.324,928.69z"/>
				<path style="fill:#be0038;" d="M929.076,1040.137c-0.911,57.992,2.144,49.55-4.523,55.052c-1.605,1.325-8.517-1.56-14.46-1.187
					c-18.688,1.18-51.54-1.75-52.789-5.036c-4.31-11.371-1.267-14.903-4.863-32.313c-0.375-1.852-0.839-3.855-1.384-6.038
					c-2.998-11.957-5.916-16.025,4.722-35.233c9.648-17.401,20.065-31.302,20.966-30.791c25.453,14.376,27.111,2.069,27.111,2.069
					S929.521,1011.85,929.076,1040.137z"/>
				<path style="fill:#be0038;" d="M903.856,986.657c0,0,26.19,4.226,29.265,14.955c3.076,10.729,25.566,69.858,25.566,69.858
					s-17.707,6.227-23.857,0.374c-6.151-5.853-21.402-54.3-21.402-54.3L903.856,986.657z"/>
				<path style="fill:#233862;" d="M910.093,1094.002c-18.688,1.18-51.54-1.75-52.789-5.036c-4.31-11.371-1.267-14.903-4.863-32.313
					l8.765-18.99c0,0-1.241,21.733,7.094,28.808c8.326,7.073,34.128,13.655,38.18,19.566
					C908.434,1088.872,909.719,1091.718,910.093,1094.002z"/>
				<g>
					<path style="fill:#FFB27D;" d="M911.614,1081.626c0,0,5.564,4.569,7.149,4.938c1.585,0.368,2.485,0.026,2.485,0.026
						l-4.058-4.521L911.614,1081.626z"/>
					<path style="fill:#FFB27D;" d="M909.409,1076.244l14.093,3.46c0,0-0.364,0.955-1.96,1.19c-1.595,0.235-5.875-0.384-5.875-0.384
						L909.409,1076.244z"/>
					<path style="fill:#FFB27D;" d="M885.515,1083.635c0,0,20.117-8.516,23.895-7.391c3.777,1.124,13.46,6.004,14.979,8.059
						c1.52,2.054-7.931-0.255-10.883-0.432c-1.91-0.113-6.348,2.383-8.551,3.587c-9.272,5.066-15.709,4.616-15.709,4.616
						L885.515,1083.635z"/>
				</g>
				<path style="fill:#be0038;" d="M876.744,984.591c0,0-28.464,5.082-33.736,12.59c-11.505,16.378-35.995,84.243-22.279,93.343
					c15.445,10.248,70.296,2.682,70.296,2.682s1.826-8.119-0.714-12.046c-2.54-3.927-43.81-10.271-45.716-12.083
					c-1.904-1.813,18.818-28.021,16.61-33.037C854.134,1019.969,876.744,984.591,876.744,984.591z"/>
				<g>
					<path style="fill:#FFB27D;" d="M989.261,1080.741c0,0,19.918,5.119,21.966,8.062c2.049,2.941,6.059,11.936,5.889,14.283
						c-0.171,2.349-5.609-4.645-7.646-6.433c-1.319-1.157-6.096-1.837-8.445-2.2c-5.92-0.916-8.775-3.494-10.996-4.776
						c-1.488-0.86-3.295-0.7-3.295-0.7L989.261,1080.741z"/>
					<path style="fill:#FFB27D;" d="M1009.487,1093.957c0,0,1.21,6.451,2.134,7.61c0.924,1.159,1.789,1.417,1.789,1.417l-0.142-5.57
						L1009.487,1093.957z"/>
					<path style="fill:#FFB27D;" d="M1011.227,1088.803l8.1,10.441c0,0-0.859,0.489-2.166-0.236
						c-1.305-0.727-4.032-3.583-4.032-3.583L1011.227,1088.803z"/>
					<path style="fill:#FFB27D;" d="M990.027,1089.677c0,0,1.848,4.266,5.533,5.794c3.688,1.529,6.393,3.826,6.985,3
						c0.592-0.826-2.792-5.172-2.792-5.172L990.027,1089.677z"/>
				</g>
				<path style="fill:#be0038;" d="M953.399,1057.488l41.892,25.201c0,0-4.402,5.602-5.869,6.113
					c-7.759,2.706-42.645,0.113-54.592-16.958L953.399,1057.488z"/>
			</g>
		</g>
		<g>
			<g>
				<g>
					<g>
						<path style="fill:#080000;" d="M737.393,1336.144l0.253-0.005c2.077-0.038,3.683-1.736,3.486-3.689l-13.858-138.41
							l-12.094,1.079l19.9,139.155C735.236,1335.36,736.23,1336.165,737.393,1336.144z"/>
					</g>
					<g>
						<path style="fill:#080000;" d="M603.941,1336.144l-0.254-0.005c-2.077-0.038-3.683-1.736-3.486-3.689l13.859-138.41
							l12.093,1.079l-19.9,139.155C606.098,1335.36,605.103,1336.165,603.941,1336.144z"/>
					</g>
					<g>
						<path style="fill:#080000;" d="M835.166,1336.144l0.255-0.005c2.077-0.038,3.682-1.736,3.486-3.689l-13.859-138.41
							l-12.094,1.079l19.901,139.155C833.01,1335.36,834.004,1336.165,835.166,1336.144z"/>
					</g>
					<path style="fill:#080000;" d="M608.068,1173.904l-24.6-121.485c-3.158-16.448,10.471-31.489,28.169-31.085l47.444,1.084
						c16.367,0.373,30.598,11.328,35.146,27.054l35.993,124.433H608.068z"/>
					<path style="fill:#080000;" d="M622.951,1173.904l-24.6-121.485c-3.158-16.448,10.472-31.489,28.168-31.085l47.445,1.084
						c16.367,0.373,30.598,11.328,35.146,27.054l35.992,124.433H622.951z"/>
					<path style="fill:#080000;" d="M614.926,1196.063h187.71c3.771,0,6.857-3.087,6.857-6.857v-8.443
						c0-3.771-3.085-6.857-6.857-6.857H608.068v15.301C608.068,1192.976,611.155,1196.063,614.926,1196.063z"/>
					<path style="fill:#080000;" d="M703.013,1196.063h119.66c3.038,0,5.524-2.486,5.524-5.524v-11.109
						c0-3.038-2.486-5.524-5.524-5.524h-119.66c-3.038,0-5.523,2.486-5.523,5.524v11.109
						C697.489,1193.576,699.975,1196.063,703.013,1196.063z"/>
				</g>
				<g>
					<g>
						<g>
							<path style="fill:#233862;" d="M722.202,918.787c0,0-5.58-17.233-30.108-16.448c0,0-4.906-9.223-16.68-7.653
								c-11.774,1.57-18.249,44.153-7.064,54.553c11.186,10.4,18.125,10.712,18.125,10.712l35.727-39.559V918.787z"/>
							<path style="fill:#FFB27D;" d="M711.814,993.888c0.107,0.056-10.901,5.062-18.848,2.437
								c-7.477-2.463-14.061-13.719-13.955-13.735c3.244-0.47,6.543-3.671,7.463-22.639l1.438,0.36l24.16,6.108
								c0,0-0.956,7.653-1.351,14.89C710.389,987.384,710.457,993.166,711.814,993.888z"/>
							<path style="fill:#ED975D;" d="M712.072,966.418c0,0,0,1.574-0.903,8.695c-13.663-3.447-19.688-7.978-23.938-13.162
								L712.072,966.418z"/>
							<path style="fill:#FFB27D;" d="M717.227,967.382c0,0-31.949,5.201-34.881-14.744c-2.935-19.945-9.033-32.708,11.241-36.871
								c20.273-4.165,25.365,2.862,27.964,9.281C724.148,931.467,725.461,965.515,717.227,967.382z"/>
							<path style="fill:#233862;" d="M717.257,914.931c0,0-14.509,22.901-27.46,28.325c-12.952,5.424-19.315,2.671-19.315,2.671
								s5.892-8.934,7.428-20.931c0.452-3.536,2.756-6.567,6.065-7.893C693.269,913.381,711.248,907.511,717.257,914.931z"/>
							<path style="fill:#233862;" d="M704.512,917.144c0,0,8.505,4.36,12.007,8.446c3.38,3.942,7.282,14.643,7.004,19.447
								c0,0,4.194-23.026-4.542-30.941C709.715,905.701,704.512,917.144,704.512,917.144z"/>
							<path style="fill:#FFFFFF;" d="M737.373,1042.615c-0.97,64.939,22.964,46.764,15.86,52.926
								c-1.712,1.483-8.716,12.536-35.136,13.85c-19.932,0.991-55.868-8.416-57.2-12.097c-4.593-12.732-1.349-16.688-5.182-36.184
								c-0.399-2.072-0.894-4.317-1.474-6.761c-3.195-13.39-6.306-17.944,5.029-39.455c10.28-19.484,22.369-35.313,23.329-34.742
								c27.121,16.1,28.05,2.604,28.05,2.604S737.849,1010.94,737.373,1042.615z"/>
							<path style="fill:#F99746;" d="M710.65,982.757c0,0,27.758,4.705,31.034,16.72c3.276,12.016,35.31,102.942,35.31,102.942
								s-34.161,0.932-40.716-5.622c-6.553-6.554-15.579-79.478-15.579-79.478L710.65,982.757z"/>
							<path style="fill:#FFB27D;" d="M718.098,1093.104c0,0,4.117,5.311,5.466,5.943c1.35,0.635,2.222,0.477,2.222,0.477
								l-2.774-4.993L718.098,1093.104z"/>
							<path style="fill:#FFB27D;" d="M717.147,1087.636l11.967,5.813c0,0-0.509,0.833-1.982,0.765
								c-1.474-0.066-5.19-1.426-5.19-1.426L717.147,1087.636z"/>
							<path style="fill:#ED7D2B;" d="M710.898,978.518l-0.248,4.239c3.154,10.847,8.489,44.366,15.135,70.3l4.645-37.135
								l-3.821-3.12l1.434-5.253l-12.516-23.753L710.898,978.518z"/>
							<path style="fill:#F99746;" d="M710.653,1156.792c-42.825,14.327-76.737,4.7-76.737,4.7l6.999-41.393l3.818-22.564
								l8.188-48.447l13.99-46.076l12.234-7.408l10.689,53.484L710.653,1156.792z"/>
							<path style="fill:#ED7D2B;" d="M659.022,1054.117c-0.716,1.13-0.748,23.137,19.988,28.519
								c20.734,5.384-30.366,10.626-30.366,10.626s-16.476-12.645-16.237-15.749
								C632.646,1074.408,659.022,1054.117,659.022,1054.117z"/>
							<path style="fill:#ED7D2B;" d="M696.827,1102.041c0,0-28.411,16.262-55.912,18.059l3.818-22.564L696.827,1102.041z"/>
							<path style="fill:#FFB27D;" d="M694.331,1090.267c0,0,19.646-4.374,22.816-2.631c3.169,1.743,10.916,8.093,11.886,10.302
								c0.971,2.21-7.057-1.677-9.668-2.377c-1.69-0.453-6.142,1.093-8.345,1.828c-9.271,3.09-14.952,1.5-14.952,1.5
								L694.331,1090.267z"/>
							<path style="fill:#F99746;" d="M682.601,980.152c0,0-27.804,1.625-36.935,14.36c-12.856,17.93-38.355,94.336-23.74,104.526
								c16.457,11.476,74.902,3.002,74.902,3.002s1.946-9.091-0.76-13.488c-2.707-4.397-46.683-11.501-48.712-13.531
								c-2.029-2.029,25.37-39.578,25.37-45.666C672.727,1023.267,682.601,980.152,682.601,980.152z"/>
							<path style="fill:#ED7D2B;" d="M684.201,976.581l5.635,72.507l-12.894-27.762l2.209-4.942c0,0-4.717-8.119-4.717-9.074
								c0-0.955,1.343-26.377,1.343-26.377L684.201,976.581z"/>
						</g>
					</g>
				</g>
			</g>
		</g>
		<g>
			<g>
				<g>
					<path style="fill:#080000;" d="M513.833,1336.144l0.253-0.005c2.077-0.038,3.682-1.736,3.486-3.689l-13.858-138.41
						l-12.095,1.079l19.9,139.155C511.677,1335.36,512.67,1336.165,513.833,1336.144z"/>
				</g>
				<g>
					<path style="fill:#080000;" d="M380.381,1336.144l-0.254-0.005c-2.077-0.038-3.682-1.736-3.486-3.689l13.859-138.41
						l12.094,1.079l-19.9,139.155C382.538,1335.36,381.544,1336.165,380.381,1336.144z"/>
				</g>
				<g>
					<path style="fill:#080000;" d="M611.605,1336.144l0.256-0.005c2.077-0.038,3.682-1.736,3.485-3.689l-13.859-138.41
						l-12.093,1.079l19.9,139.155C609.449,1335.36,610.444,1336.165,611.605,1336.144z"/>
				</g>
				<path style="fill:#080000;" d="M384.509,1173.904l-24.601-121.485c-3.158-16.448,10.472-31.489,28.169-31.085l47.445,1.084
					c16.366,0.373,30.598,11.328,35.146,27.054l35.993,124.433H384.509z"/>
				<path style="fill:#080000;" d="M399.392,1173.904l-24.6-121.485c-3.158-16.448,10.472-31.489,28.169-31.085l47.444,1.084
					c16.367,0.373,30.598,11.328,35.147,27.054l35.992,124.433H399.392z"/>
				<path style="fill:#080000;" d="M391.365,1196.063h187.71c3.771,0,6.857-3.087,6.857-6.857v-8.443
					c0-3.771-3.086-6.857-6.857-6.857H384.509v15.301C384.509,1192.976,387.595,1196.063,391.365,1196.063z"/>
				<path style="fill:#080000;" d="M479.453,1196.063h119.66c3.037,0,5.523-2.486,5.523-5.524v-11.109
					c0-3.038-2.486-5.524-5.523-5.524h-119.66c-3.039,0-5.523,2.486-5.523,5.524v11.109
					C473.93,1193.576,476.414,1196.063,479.453,1196.063z"/>
			</g>
			<g>
				<path style="fill:#2A4E96;" d="M482.804,971.437c0,0,34.564-0.293,42.881,11.372c8.318,11.666,19.38,85.688,17.038,95.304
					c-5.43,22.298-27.325-8.638-37.21-21.429C495.63,1043.893,482.804,971.437,482.804,971.437z"/>
				<polygon style="fill:#2A4E96;" points="541.911,1057.86 551.209,1132.446 524.576,1132.446 517.315,1074.268 				"/>
				<path style="fill:#1E3D70;" d="M534.262,1132.446c0,0-14.376-75.569-13.533-99.92c0,0-19.836,69.73-16.592,83.713
					C507.38,1130.222,530.328,1142.781,534.262,1132.446z"/>
				<path style="fill:#2A4E96;" d="M418.468,1074.018l-4.742,66.215c-0.184,2.492,1.41,4.759,3.81,5.455
					c5.308,1.54,11.429,2.612,23.232,5.059c11.086,2.302,26.001,4.341,44.327,4.453c29.149,0.186,40.184-9.861,40.184-9.861
					c1.257,0.023-0.662-6.078-2.391-35.083c-0.586-9.825-1.15-22.279-1.559-38.021c-0.368-14.164-0.616-30.99-0.64-50.953
					c-0.03-24.012-37.199-49.847-37.886-49.847l-0.007,0.012c0,3.457-5.45,9.838-13.841,10.388
					c-9.963,0.651-22.414-6.538-22.414-12.274c0-0.008-1.736,1.69-2.4,2.813c-3.927,6.625-16.304,32.677-21.774,58.983
					c-0.814,3.899-1.441,8.013-1.941,12.342c-0.008,0.066-0.016,0.133-0.023,0.198c-0.093,0.79-0.179,1.586-0.26,2.388
					c-0.016,0.14-0.027,0.283-0.043,0.423c-0.073,0.729-0.146,1.465-0.213,2.205c-0.02,0.21,0.15,0.585-0.054,0.636
					c-1.997,0.496-7.468,18.773-1.137,18.605C420.621,1068.102,418.542,1072.033,418.468,1074.018
					c-0.003,0.05-0.003,0.101-0.008,0.15L418.468,1074.018z"/>
				<path style="fill:#FFB27D;" d="M483.156,966.161l-0.019,3.573c0,0,0.973,11.174-12.786,12.805
					c-13.759,1.637-24.183-4.358-23.81-12.98c1.239-6.677,2.6-11.261,2.691-16.784c0.034-2.053-0.106-4.232-0.488-6.691
					l26.661-0.532l7.853,1.282L483.156,966.161z"/>
				<path style="fill:#E2915A;" d="M483.259,946.834l-0.103,13.822c-2.832,1.316-8.027,1.411-12.066,0.689
					c-12.06-2.159-17.823-6.28-21.963-12.803c0.034-2.052,0,0-0.382-2.459l26.661-0.532L483.259,946.834z"/>
				<path style="fill:#FFB27D;" d="M446.702,941.794c3.093,16.648,24.575,16.102,33.857,15.055c2.613-0.29,4.257-0.624,4.257-0.624
					c2.945-0.787,4.59-5.426,5.354-11.504c1.515-12.027-0.4-29.684-2.432-34.199c-3.059-6.796-8.817-14.144-30.451-8.843
					C435.651,906.986,442.732,920.464,446.702,941.794z"/>
				<path style="fill:#233862;" d="M494.378,894.675c0,0-9.522-0.733-20.754-5.615c-9.115-3.964-20.615,0.4-24.349,2.367
					c0.101-0.601,0.34-1.422,0.91-2.246c0,0-1.677,1.188-1.923,2.851c-0.173,0.127-0.25,0.214-0.206,0.244
					c0,0-1.899-0.348-3.12,0.202c0,0,0.854-0.122,1.159,0.428c0.032,0.058,0.081,0.105,0.137,0.15
					c-14.22,6.87-15.532,29.343-10.957,34.543c5.506,6.256,12.803,19.031,12.803,19.031s1.712-2.015,0.711-7.521
					c-1.001-5.505,3.754-5.505,9.759-8.008c6.007-2.502,1.001-9.509,6.257-13.763c5.254-4.254,24.523-1.752,24.273-5.005
					C496.23,909.729,494.378,895.407,494.378,894.675z"/>
				<path style="fill:#1E3D70;" d="M429.583,1019.773c0,0-16.997,59.192,36.573,66.504c0,0-64.873-4.846-64.873-5.656
					C401.283,1079.809,429.583,1019.773,429.583,1019.773z"/>
				<path style="fill:#2A4E96;" d="M446.542,969.56c0,0-36.068,2.937-42.556,10.64c-6.487,7.704-25.624,93.261-19.665,109.881
					c3.649,10.179,49.81,2.748,74.298,3.447l3.86-6.894c0,0-46.147-18.651-46.147-21.895
					C416.332,1056.755,446.542,969.56,446.542,969.56z"/>
				<path style="fill:#FFB27D;" d="M462.479,1086.634c0,0,11.75-1.419,14.791,0c3.041,1.419,10.138,5.677,10.138,6.894
					c0,1.216-28.789,0-28.789,0L462.479,1086.634z"/>
			</g>
		</g>
		<g>
			<g>
				<rect x="318.641" y="1096.464" style="fill:#163560;" width="331.83" height="248.293"/>
				<polygon style="fill:#be0038;" points="1038.285,1344.722 483.979,1344.722 544.56,1096.43 1092.808,1096.43 				"/>
				<rect x="277.76" y="1092.26" style="fill:#163560;" width="865.025" height="9.532"/>
			</g>
			<g>
				<g>
					<polygon style="fill:#EBF3FA;" points="599.576,1163.513 621.097,1175.552 644.574,1139.733 615.528,1139.733 					"/>
					<path style="fill:#EBF3FA;" d="M641.526,1173.821l-8.54,4.815l27.391,1.166l10.459-21.031l-7.976,4.214l-13.545-22.273
						c0,0-14.448,21.521-14.599,21.973c0,0,6.81,11.137,7.3,11.476L641.526,1173.821z"/>
				</g>
				<g>
					<polygon style="fill:#EBF3FA;" points="676.473,1184.564 655.166,1196.979 674.079,1235.403 688.843,1210.39 					"/>
					<path style="fill:#EBF3FA;" d="M646.329,1212.606l0.136-6.956l-14.926,22.995l12.796,19.697l-0.184-9.28l26.676-0.074
						c0,0-13.04-26.022-13.352-26.382H646.329L646.329,1212.606z"/>
				</g>
				<g>
					<polygon style="fill:#EBF3FA;" points="619.87,1239.063 619.638,1213.552 579.828,1212.606 592.893,1239.063 					"/>
					<path style="fill:#EBF3FA;" d="M609.44,1195.764l7.973,5.708l-10.51-25.321l-23.481-0.599l7.188,5.45l-11.618,27.057
						c0,0,24.49,0.412,24.963,0.357c0,0,5.486-12.652,5.587-13.239L609.44,1195.764z"/>
				</g>
			</g>
		</g>
	</g>
	<g>
		<g>
			<g>
				<path style="fill:#599DAD;" d="M447.705,1434.068c0,0-3.527-0.279-8.725-1.577h-0.094c-11.88-2.878-32.208-11.232-37.498-33.973
					c-7.611-32.672,27.158-94.756,27.158-94.756L447.705,1434.068z"/>
				<path style="fill:#F4A269;" d="M554.478,1402.438c0,0,33.064,50.237,41.196,50.612c8.311,0.385,13.674-1.51,20.355,2.808
					c4.801,3.103,19.225,18.389,14.987,16.924c-4.237-1.466-11.977-3.563-14.03-4.048c-2.826-0.667-7.417-1.364-10.463-2.337
					c-1.927-0.615-9.027-1.8-11.393-2.206c-10.282-1.765-55.2-37.042-55.2-37.042L554.478,1402.438z"/>
				<path style="fill:#163560;" d="M689.416,1543.415h-60.704c-0.093-0.185-0.185-0.276-0.278-0.37
					c-1.206-1.485-2.691-2.32-4.642-2.413c-0.927-0.094-2.691,0-5.29,0.186c-3.619,0.278-8.632,0.649-14.758,1.021
					c-5.849,0.465-12.716,0.837-20.142,1.207c-2.692,0.094-5.384,0.278-8.168,0.37c-3.899,0.094-7.982,0.279-12.066,0.279
					c-5.477,0.186-11.138,0.186-16.8,0l-9.189-0.279c-0.836,0-1.671-0.092-2.6-0.092c-1.113-0.093-2.32-0.185-3.527-0.278
					c-4.548-0.278-9.096-0.648-13.365-1.207c-9.189-1.113-17.728-2.692-24.968-5.198c-5.291-1.67-9.932-3.897-13.552-6.59
					c-2.877-2.041-5.199-4.362-6.776-7.147c-0.277-0.463-0.558-0.928-0.742-1.392c-4.548-8.539-6.961-16.985-7.89-24.782
					c-1.949-16.244,2.042-29.889,4.178-35.828c0.741-2.042,1.299-3.156,1.299-3.156l27.474-6.219c0,0,8.539,0.742,21.813,2.042
					c2.785,0.372,5.849,0.65,9.097,1.021c7.982,0.836,16.986,1.857,26.546,3.063c11.882,1.486,24.598,3.249,36.942,5.198h0.092
					c13.924,2.135,27.383,4.548,38.892,7.24c12.901,2.971,23.391,6.311,28.959,9.839
					C668.253,1485.59,679.019,1511.486,689.416,1543.415z"/>
				<path style="fill:#163560;" d="M646.626,1543.415h-71.191c-3.899,0.094-7.982,0.279-12.066,0.279
					c-0.093,0.093-0.093,0.278-0.093,0.371c-4.92,0.187-10.582,0.372-16.707,0.465c-3.714,0.093-7.612,0.093-11.696,0.093
					c-5.384,0-11.045-0.093-16.8-0.279c-5.848-0.185-11.788-0.464-17.728-0.929c-1.671-0.092-3.341-0.185-5.012-0.37
					c-13.459-1.207-26.454-3.155-37.221-6.405c-7.982-2.413-14.758-5.476-19.584-9.56c0,0,0,0-0.094,0
					c-2.599-2.043-4.641-4.363-6.033-7.054c-0.742-1.393-1.299-2.692-1.764-3.992c-0.649-1.948-1.113-3.805-1.392-5.568
					c-0.557-3.992-0.185-7.239,0.928-10.86v-0.742c5.755-20.422,32.858-35.271,37.964-37.963c0.557-0.186,0.834-0.371,0.834-0.371
					s22.928,1.113,51.329,3.713c2.878,0.277,5.755,0.556,8.632,0.834c2.042,0.187,4.084,0.465,6.126,0.651
					c34.622,3.805,72.584,9.745,85.486,18.656C628.806,1490.044,637.994,1513.714,646.626,1543.415z"/>
				<path style="fill:#FFB27D;" d="M431.345,1300.028c0.046-0.068,0.103-0.126,0.16-0.195c0.997-1.122,2.189-2.153,3.506-3.069
					l0.046-0.034c0,0,0,0,0.011,0c10.265-7.172,28.605-8.707,28.605-8.707v0.012v0.001c0.002-0.003,0.002-0.006,0.003-0.01
					c0,0,2.004-0.189,5.18-0.334c2.403-6.234,5.142-15.468,5.991-28.938l1.817,0.486l30.574,8.2c0,0-1.355,9.703-1.989,18.887
					c-0.14,2.013-0.243,3.996-0.29,5.852c0.885,0.323,1.704,0.642,2.428,0.944l0,0v-0.002c0,0,17.482,2.062,21.617,6.508
					c4.136,4.456,12.407,34.057,14.491,39.304l-117.707,1.924C425.788,1340.855,422.833,1310.098,431.345,1300.028z"/>
				<path style="fill:#599DAD;" d="M577.372,1419.311c-0.648,0.742-2.505,3.991-5.105,7.889c-0.742,1.114-1.577,2.321-2.413,3.621
					c-3.805,5.104-8.445,10.488-13.365,12.437c-1.855,0.743-3.712,0.93-5.569,0.465c-2.691-0.65-7.146-3.806-11.602-7.983
					c-3.526-3.433-7.147-7.518-9.931-11.694c-1.114-1.578-2.042-3.249-2.784-4.826c-0.187,1.299-0.372,2.506-0.465,3.62
					c-0.649,6.125-0.743,10.951,0.278,13.179c1.3,2.785,5.384,5.57,10.117,8.354c9.375,5.383,20.977,10.675,16.986,15.408
					c-3.343,3.897-13.645,5.198-24.782,6.961c-8.727,1.484-17.915,3.249-24.413,7.055c-0.277,0.187-0.463,0.371-0.742,0.465
					c-15.686,9.281-62.651,37.591-76.574,36.291c-5.477-0.558-4.456-10.951-1.114-24.968c5.198-21.906,16.15-52.442,16.15-65.717
					c0-7.239-16.243-78.987-16.243-78.987s-3.407-31.051,5.132-41.074c0,0,1.367-1.369,1.881-1.756
					c0.528-0.396,2.27-1.353,2.27-1.353c0.557,0.372,16.893,13.737,37.684,14.852c11.046,0.557,26.176-2.785,37.87-6.126
					c10.488-2.877,18.379-5.755,18.379-5.755c10.21,5.291,12.437,34.063,14.479,39.262c0,0,16.893,66.644,21.163,70.079
					C569.019,1412.441,579.415,1416.989,577.372,1419.311z"/>
				<path style="fill:#F4A269;" d="M507.238,1267.439c0,0-1.355,9.703-1.989,18.887c-17.304-1.645-25.413-18.071-28.584-27.087
					L507.238,1267.439z"/>
				<path style="fill:#FFB27D;" d="M520.281,1272.983c0,0-40.419,7.536-44.724-17.707c-4.306-25.243-12.422-41.271,13.203-47.151
					c25.624-5.877,32.294,2.896,35.781,10.974C528.028,1227.175,530.685,1270.373,520.281,1272.983z"/>
				<path style="fill:#B5453C;" d="M519.82,1198.718c0,0-1.67-21.193-32.152-15.69c-8.059,1.455-13.599-12.915-26.791-7.794
					c-28.405,11.025-30.076-3.532-38.286,16.899c-3.436,8.554-25.289,18.509-18.615,33.289s-4.493,24.721,3.352,36.302
					c4.06,5.993,2.41,16.706,21.564,17.088c9.54,0.19,24.398,17.867,35.103,21.077c10.706,3.211,42.853-1.421,41.641-16.109
					c-0.944-11.459-10.59-21.424-2.381-34.598c7.176-11.514,22.633-12.226,29.48-30.841
					C537.753,1204.697,519.428,1210.103,519.82,1198.718z"/>
			</g>
		</g>
		<g>
			<path style="fill:#163560;" d="M630.476,1536.64H425.438c-0.277-0.649-0.463-1.392-0.741-2.135v-0.092
				c0.928-1.206,2.691-2.692,6.032-4.363c6.962-3.434,21.07-7.239,49.566-9.282c7.425-0.557,15.871-0.928,25.339-1.206
				c6.775-0.185,13.272-0.277,19.306-0.277h6.776c14.016,0,25.989,0.463,36.292,1.112c2.227,0.186,4.362,0.279,6.404,0.464
				c18.472,1.486,30.815,3.807,39.169,6.312c0.651,0.187,1.393,0.372,1.95,0.558c1.948,0.65,3.619,1.206,5.104,1.855
				c0.742,0.279,1.393,0.651,2.042,0.93c2.135,0.928,3.713,1.948,4.827,2.785c0.371,0.277,0.649,0.463,0.835,0.742
				c0.186,0.091,0.371,0.277,0.558,0.463c0.185,0.187,0.371,0.278,0.464,0.465C630.29,1535.99,630.476,1536.64,630.476,1536.64z"/>
			<g>
				<path style="fill:#163560;" d="M563.368,1543.045c0,0,0,0.186,0,0.37v0.279c-0.093,0.093-0.093,0.278-0.093,0.371
					c-4.92,0.187-10.582,0.372-16.707,0.465v-0.836c0-0.094,0.092-0.186,0.092-0.279v-0.37c0.093-1.393,0.279-2.135,0.371-2.32
					c0.743-1.021,5.849-1.021,9.004-0.929h2.136C560.026,1539.89,563.461,1541.374,563.368,1543.045z"/>
			</g>
			<g>
				<path style="fill:#163560;" d="M620.358,1543.415h-16.707v-0.37c0-0.464,0.093-0.928,0.093-1.207
					c0.093-0.65,0.186-1.021,0.279-1.113c0.927-1.393,9.188-0.929,11.137-0.929h0.094c0.929,0,2.227,0.465,3.248,1.021
					c1.114,0.557,1.949,1.393,1.856,2.228C620.358,1543.045,620.358,1543.23,620.358,1543.415z"/>
			</g>
			<path style="fill:#163560;" d="M634.838,1539.796c0,0.929-0.37,1.671-0.928,2.321c-0.371,0.371-0.835,0.649-1.393,0.742
				c-0.278,0.186-0.557,0.186-0.835,0.186H441.033c0-0.093,0-0.093,0-0.186h-13.737c0,0-0.278-0.742-0.743-2.228
				c0-0.187-0.092-0.371-0.185-0.557c-0.186-0.93-0.557-2.042-0.929-3.436h206.244
				C633.353,1536.64,634.838,1538.033,634.838,1539.796z"/>
			<path style="fill:#163560;" d="M474.32,1536.634h156.133c0,0-4.822-20.009-124.785-17.032
				c-9.529,0.241-17.955,0.636-25.414,1.165C480.631,1523.25,481.25,1531.39,474.32,1536.634z"/>
			<g>
				<path style="fill:#163560;" d="M538.121,1539.796c0,0.929-0.371,1.671-1.021,2.321c-0.371,0.371-0.836,0.649-1.393,0.742
					c-0.278,0.186-0.558,0.186-0.836,0.186h-93.839c0-0.093,0-0.093,0-0.186h-13.737c0,0-0.278-0.742-0.743-2.228
					c0-0.187-0.092-0.371-0.185-0.557c-0.186-0.93-0.557-2.042-0.929-3.436h109.434
					C536.637,1536.64,538.121,1538.033,538.121,1539.796z"/>
				<g>
					<g>
						<path style="fill:#163560;" d="M430.729,1530.05c0,2.135,0,4.363-0.093,6.59v0.65c0,1.113-0.742,2.135-1.855,2.6h-0.093
							c-0.279,0.093-0.65,0.186-1.021,0.278h-0.093c-0.093,0-0.186,0.093-0.278,0.093h-0.094c-0.277,0-0.556-0.093-0.835-0.186
							c-0.186-0.93-0.557-2.042-0.929-3.436c-0.277-0.649-0.463-1.392-0.741-2.135v-0.092c-0.186-0.836-0.465-1.764-0.743-2.784
							v-0.093c0-8.819-0.278-17.358-0.649-25.805c-0.65-12.809-1.857-25.247-3.435-37.034c-3.713-28.402-9.653-53.742-15.686-74.719
							c-3.526-11.881-7.054-22.463-10.21-31.467c-3.619-9.932-6.961-17.82-9.375-23.482c0-0.093-0.092-0.093-0.092-0.186
							c-0.279-1.857-0.464-3.806-0.65-5.661c0-0.279-0.093-0.466-0.093-0.744v-0.093c-0.371-2.784-0.649-5.475-0.928-8.353
							c0.37-0.186,0.835-0.278,1.392-0.278c4.27-0.372,6.962,0.557,7.704,2.041c0.093,0.094,5.477,11.603,12.716,32.208
							c0.65,1.857,1.3,3.714,2.043,5.756c1.392,4.362,2.97,9.097,4.548,14.201c0.649,1.856,1.207,3.805,1.764,5.754
							c0.185,0.278,0.278,0.65,0.371,1.022c0.929,2.969,1.764,6.032,2.506,9.281c2.784,10.209,5.198,21.997,7.333,34.9v0.277
							c2.692,16.243,4.733,34.437,6.126,53.835C430.266,1498.027,430.823,1513.807,430.729,1530.05z"/>
					</g>
					<g>
						<path style="fill:#163560;" d="M528.334,1540.219c-0.016,0-0.032,0-0.048,0c-1.857-0.023-3.342-1.377-3.314-3.022
							c1.889-117.208-43.436-207.324-43.894-208.222c-0.767-1.5-0.621-4.85,4.264-5.275c4.27-0.372,6.918,0.559,7.685,2.059
							c0.117,0.229,10.227,21.673,21.456,58.948c10.355,34.37,18.211,90.645,17.213,152.574
							C531.669,1538.912,530.169,1540.219,528.334,1540.219z"/>
					</g>
					<g>
						<path style="fill:#163560;" d="M397.33,1364.968c-1.608,0-3.03-1.028-3.31-2.48c-0.313-1.622,0.916-3.162,2.747-3.439
							c2.911-0.441,71.652-10.703,102.422-2.142c1.772,0.492,2.757,2.166,2.201,3.736c-0.557,1.571-2.443,2.447-4.215,1.951
							c-29.225-8.131-98.579,2.225-99.275,2.33C397.709,1364.953,397.519,1364.968,397.33,1364.968z"/>
					</g>
					<g>
						<path style="fill:#163560;" d="M405.188,1384.706c-1.608,0-3.03-1.026-3.31-2.479c-0.314-1.623,0.917-3.164,2.748-3.441
							c2.911-0.439,71.652-10.706,102.421-2.14c1.771,0.492,2.758,2.165,2.201,3.736c-0.557,1.569-2.444,2.447-4.216,1.949
							c-29.236-8.136-98.577,2.225-99.273,2.331C405.566,1384.691,405.375,1384.706,405.188,1384.706z"/>
					</g>
				</g>
				<g>
					<path style="fill:#163560;" d="M427.296,1542.859c0,0-0.278-0.742-0.743-2.228c0.186-0.187,0.372-0.278,0.649-0.371h0.094
						c0.093,0,0.185-0.093,0.278-0.093h0.093c0.371-0.093,0.742-0.186,1.021-0.278h0.093c0.278,0,0.464-0.094,0.742-0.094
						c1.857,0,10.117-0.464,11.139,0.929c0.093,0.186,0.185,0.835,0.371,2.135H427.296z"/>
				</g>
				<g>
					<path style="fill:#163560;" d="M534.872,1544.623c-5.384,0-11.045-0.093-16.8-0.279c0-0.371,0-0.649-0.093-0.929v-0.37
						c0-0.464-0.093-0.835-0.093-1.207v-0.928c-0.093-1.671,3.342-3.155,5.198-3.249h1.949c1.856-0.093,4.548-0.093,6.589,0.094
						c1.301,0.186,2.321,0.37,2.601,0.835c0.185,0.277,0.37,1.764,0.556,4.455v0.278c0,0,0,0,0,0.092
						C534.779,1543.787,534.872,1544.159,534.872,1544.623z"/>
				</g>
			</g>
		</g>
	</g>
	<g>
		<path style="fill:#163560;" d="M1231.795,1544.76h-206.336c-2.599-7.61-2.785-16.893,0.278-26.268
			c3.156-9.839,9.839-19.77,21.163-28.124c6.311-4.733,16.614-6.59,29.145-6.59c6.219,0,12.901,0.465,19.956,1.299h0.093
			c0.65,0,1.3,0.093,1.949,0.186c0.279,0,0.558,0.094,0.836,0.094c2.135,0.278,4.363,0.649,6.59,0.929
			c11.88,1.855,24.412,4.454,36.849,7.518c1.485,0.371,3.063,0.742,4.548,1.206c3.806,0.837,7.611,1.856,11.325,2.878
			c20.048,5.476,38.704,11.416,52.441,16.058c13.923,4.734,22.74,8.075,22.74,8.075c1.671,1.856,2.6,4.084,2.972,6.404
			C1237.086,1533.436,1234.858,1539.284,1231.795,1544.76z"/>
		<path style="fill:#163560;" d="M1197.824,1544.76h-49.938c5.291-9.096,11.509-16.336,18.749-20.884s15.408-6.405,24.783-4.642
			c0.278,0.094,0.465,0.094,0.649,0.186C1192.068,1519.42,1198.473,1523.227,1197.824,1544.76z"/>
		<path style="fill:#ED7D2B;" d="M1065.734,1288.65c0,0-1.671,0.267-4.176,0.85c-6.052,1.411-16.971,4.672-20.94,10.488
			c-5.613,8.223-35.062,118.949-33.521,135.007c1.54,16.057,34.513,40.733,45.718,42.63L1065.734,1288.65L1065.734,1288.65z"/>
		<path style="fill:#F4A269;" d="M1098.833,1306.256c0.117,0.096-0.095,16.891-14.616,13.279
			c-9.534-2.371-27.927-18.209-24.428-26.074c1.663-3.739,10.986-12.427,17.141-35.316l1.655,0.822l27.847,13.854
			c0,0-3.195,9.081-5.594,17.802C1098.819,1297.945,1097.369,1305.017,1098.833,1306.256z"/>
		<path style="fill:#FFB27D;" d="M1118.38,1278.728c0,0-41.915,9.471-47.413-16.722c-5.496-26.194-14.608-42.612,11.921-49.768
			c26.53-7.155,33.843,1.745,37.806,10.042C1124.653,1230.576,1129.141,1275.588,1118.38,1278.728z"/>
		<path style="fill:#163560;" d="M1085.777,1262.929c-10.021,3.413-25.342-16.264-29.732-27.729
			c-5.379-14.044,6.976-41.91,39.195-37.841c0,0,9.351,0.764,18.224,6.543c7.059,4.597,25.821,16.507-4.508,29.207
			C1097.553,1237.883,1094.499,1259.958,1085.777,1262.929z"/>
		<path style="fill:#163560;" d="M1270.129,1544.76h-205.315c-1.393-3.713-2.042-7.889-2.042-12.252c0-1.671,0.093-3.25,0.279-4.92
			c0.093-1.299,0.277-2.506,0.558-3.806c0.185-0.742,0.277-1.392,0.463-2.135v-0.093c0.649-2.413,1.485-4.825,2.507-7.238
			c3.619-8.448,9.932-16.801,19.584-23.948c2.692-1.948,6.126-3.526,10.025-4.548c0.557-0.186,1.206-0.371,1.855-0.464v-0.094
			c0.371,0,0.65-0.093,0.929-0.186c1.949-0.37,3.99-0.742,6.218-0.927c11.603-1.395,26.269-0.279,41.77,2.135
			c0.093,0,0.093,0,0.186,0c1.578,0.186,3.155,0.463,4.826,0.742h0.092c15.038,2.598,30.91,6.219,45.854,9.931
			c0.278,0.093,0.465,0.093,0.742,0.186c0.093,0,0.093,0,0.093,0c4.363,1.022,8.54,2.135,12.717,3.157
			c0.928,0.277,1.949,0.557,2.97,0.742c5.198,1.393,10.21,2.69,14.944,3.898c3.063,0.742,6.032,1.67,8.725,2.507l0.65,0.184
			c16.243,5.291,26.639,11.696,26.639,11.696S1270.779,1524.248,1270.129,1544.76z"/>
		<path style="fill:#F99746;" d="M1023.207,1515.792c2.196,3.065,5.935,5.737,10.785,7.996H1034
			c34.701,16.181,117.77-19.623,113.824-43.587c-1.389-8.436-7.963-8.389-13.091-22.167c-3.979-10.703-6.85-20.727-6.715-30.534
			c0.054-4.158,0.663-8.291,1.946-12.415c3.129-10.004,5.996-26.086,7.816-43.226c3.102-29.197-4.874-60.76-11.849-71.141
			c-0.985-1.47-52.668-15.545-97.177-1.059c0,0-3.514,51.697,6.652,105.637c1.361,7.198,0.717,14.62-1.884,21.469
			C1025.421,1448.129,1009.465,1496.58,1023.207,1515.792z"/>
		<path style="fill:#ED7D2B;" d="M1147.824,1480.201c-1.389-8.436-7.963-8.389-13.091-22.167
			c-3.979-10.703-6.85-20.727-6.715-30.534c0.054-4.158,0.663-8.291,1.946-12.415c3.129-10.004,5.996-26.086,7.816-43.226
			c-9.96-14.479-22.339-21.99-22.339-21.99c-12.196,24.009-10.459,47.229-4.464,65.963c0.017,0.504,3.907,120.399-76.979,107.956
			C1068.701,1539.969,1151.77,1504.165,1147.824,1480.201z"/>
		<path style="fill:#FFB27D;" d="M1101.315,1247.003c0,0-4.184-8.517-8.067-6.873c-3.886,1.644,1.492,15.389,4.033,15.239
			C1099.82,1255.22,1101.315,1247.003,1101.315,1247.003z"/>
		<path style="fill:#163560;" d="M1084.307,1211.912v-0.093c-2.043-5.848-4.363-10.489-6.87-13.086h-0.093v-0.094
			c-0.834-0.836-1.67-1.394-2.505-1.764c-27.011-11.324-52.999,26.917-44.089,58.475c3.806,13.646-15.037,29.424-32.858,42.419
			c-15.037,10.952-18.007,25.153-16.521,37.686c2.042,16.892,11.509,31.557,26.176,36.662c-6.87-10.118-7.148-20.233-7.148-21.997
			c0.558,5.382,4.271,10.952,8.169,15.5c2.877,3.341,6.219,6.219,10.116,8.539c0,0.093,0.094,0.093,0.094,0.093
			c3.526,2.135,7.425,3.806,11.509,4.92c0.372,0.186,0.836,0.278,1.207,0.372c11.881,3.155,20.884,4.826,27.66,5.476
			c3.435,0.37,6.312,0.37,8.725,0.277c7.146-0.277,10.117-2.135,11.417-3.434c0.743-0.929,0.835-1.577,0.835-1.577
			c19.771-32.487-24.689-35.086-6.868-66.552c1.3-2.228,2.784-4.549,4.733-7.055c2.135-3.805,3.713-8.632,4.92-13.272
			c1.207-4.919,2.042-9.561,2.413-12.438c-0.371,5.013-0.742,9.096-1.393,12.438c-0.836,4.734-1.856,8.075-2.784,10.489
			c2.414-2.693,4.362-6.127,5.848-10.304c1.578-4.177,2.784-9.003,3.527-14.294c0.648-4.362,1.021-9.004,1.114-13.83
			c0.091-2.599,0.091-5.291,0-7.891c0-0.092,0-0.092,0-0.185C1091.268,1240.779,1088.39,1223.793,1084.307,1211.912z"/>
		<g>
			<g>
				<g>
					<g>
						<path style="fill:#163560;" d="M1008.751,1544.76h-7.054c-5.012-102.471-42.975-178.027-43.439-178.86
							c-0.743-1.486-0.558-4.827,4.268-5.291c4.271-0.372,6.962,0.557,7.704,2.041c0.094,0.186,5.478,11.603,12.717,32.208
							c0.65,1.857,1.299,3.713,1.949,5.756c1.578,4.362,3.063,9.097,4.733,14.2c0.557,1.857,1.114,3.806,1.764,5.755
							c0.092,0.279,0.186,0.65,0.278,1.022C1000.398,1450.455,1007.268,1494.73,1008.751,1544.76z"/>
					</g>
					<g>
						<path style="fill:#163560;" d="M1109.831,1544.76h-7.055c-0.464-8.633-1.113-17.078-1.948-25.34c0-0.186,0-0.369-0.093-0.556
							c-1.021-10.118-2.321-19.771-3.898-29.146c-0.187-1.298-0.465-2.598-0.649-3.897c0-0.279-0.094-0.558-0.094-0.743h-0.093
							c-4.455-25.71-10.488-48.266-16.242-66.736c-0.743-2.228-1.485-4.362-2.135-6.404c-1.579-4.64-3.063-9.003-4.548-12.995
							c-0.837-2.32-1.672-4.548-2.414-6.591c-1.021-2.506-1.949-4.826-2.785-7.054c-3.435-8.538-6.126-14.479-7.518-17.355
							c-0.65-1.301-1.021-1.951-1.021-2.042c-0.557-1.115-0.557-3.25,1.393-4.457c0.743-0.37,1.67-0.741,2.878-0.834
							c4.269-0.372,6.961,0.557,7.703,2.041c0.093,0.186,3.249,6.868,7.982,19.214c3.712,9.839,8.446,23.299,13.458,39.728
							c4.178,13.737,7.89,30.907,10.86,50.585v0.093c0.557,3.805,1.113,7.797,1.577,11.882c0.094,0.648,0.188,1.391,0.279,2.135
							c1.207,9.374,2.135,19.212,2.878,29.516c0,0.278,0.093,0.557,0.093,0.929C1109.089,1525.825,1109.553,1535.2,1109.831,1544.76
							z"/>
					</g>
					<g>
						<path style="fill:#163560;" d="M975.611,1401.892c-1.608,0-3.029-1.027-3.31-2.479c-0.313-1.622,0.916-3.162,2.747-3.439
							c2.911-0.441,71.652-10.703,102.422-2.142c1.771,0.493,2.758,2.166,2.201,3.736c-0.556,1.571-2.443,2.447-4.215,1.95
							c-29.225-8.131-98.579,2.226-99.275,2.331C975.99,1401.878,975.8,1401.892,975.611,1401.892z"/>
					</g>
					<g>
						<path style="fill:#163560;" d="M983.469,1421.631c-1.607,0-3.03-1.026-3.311-2.479c-0.313-1.623,0.918-3.164,2.748-3.441
							c2.911-0.44,71.652-10.705,102.422-2.141c1.771,0.492,2.757,2.166,2.2,3.736s-2.443,2.448-4.215,1.95
							c-29.236-8.137-98.577,2.225-99.273,2.331C983.848,1421.616,983.656,1421.631,983.469,1421.631z"/>
					</g>
				</g>
			</g>
		</g>
		<path style="fill:#FFB27D;" d="M1214.549,1487.872c0,0,14.081,3.947,18.114,7.682c4.035,3.734,6.081,12.091,6.081,12.091
			l-27.334-7.196L1214.549,1487.872z"/>
		<path style="fill:#F99746;" d="M1214.307,1501.211c-13.516-1.629-43.264-13.537-54.289-27.145
			c-12.639-15.611-62.975-101.918-53.586-127.899c3.341-9.251,9.549-46.641,17.296-46.015c7.058,0.564,17.185,14.916,19.475,23.971
			c9.299,36.813,21.979,108.085,31.738,116.257c8.854,7.412,29.56,31.55,39.61,47.488c0,0.007,0.008,0.015,0.008,0.021
			C1217.669,1494.856,1216.208,1498.393,1214.307,1501.211z"/>
	</g>
	<g>
		<path style="fill:#163560;" d="M2460.62,1488.679c-0.854,8.94-9.521,20.015-20.091,29.743
			c-12.793,11.796-28.387,21.623-36.343,23.341c-0.219,0.044-0.426,0.088-0.624,0.121l-0.01-0.121l-5.231-76.524l-0.504-7.441
			l-1.138-16.677l-0.515-7.409l-1.97-28.802v-0.033l-0.547-7.999l-1.466-21.558l-2.134-31.188l-1.139-16.601l-1.061-15.604
			l-0.405-5.865c0,0,1.564,0.252,4.016,0.788c0.372,0.087,0.777,0.175,1.193,0.272c5.317,1.237,13.646,3.623,19.839,7.464
			c2.605,1.608,4.826,3.48,6.293,5.625c1.587,2.33,4.716,11.271,8.579,23.921c2.058,6.73,4.312,14.511,6.665,22.916v0.021
			c3.393,12.092,6.948,25.475,10.33,38.836c2.461,9.729,4.825,19.447,6.959,28.649c0.602,2.594,1.183,5.143,1.74,7.638
			c1.455,6.523,2.769,12.706,3.873,18.33c0.525,2.691,1.008,5.253,1.434,7.671C2460.084,1477.834,2460.96,1485.122,2460.62,1488.679
			z"/>
		<path style="fill:#F4A269;" d="M2346.141,1328.028c-0.146,0.119,0.116,21.076,18.24,16.569
			c11.896-2.957,34.848-22.721,30.482-32.537c-2.075-4.666-13.711-15.507-21.389-44.07l-2.067,1.025l-34.749,17.289
			c0,0,3.987,11.332,6.98,22.216C2346.157,1317.657,2347.968,1326.48,2346.141,1328.028z"/>
		<path style="fill:#FFB27D;" d="M2321.748,1293.675c0,0,52.307,11.819,59.166-20.867c6.859-32.688,18.23-53.175-14.875-62.104
			c-33.106-8.93-42.234,2.178-47.178,12.53C2313.919,1233.588,2308.318,1289.758,2321.748,1293.675z"/>
		<path style="fill:#163560;" d="M2362.434,1273.96c12.504,4.259,31.623-20.296,37.103-34.604
			c6.712-17.525-8.706-52.3-48.912-47.222c0,0-11.669,0.953-22.742,8.166c-8.808,5.735-32.222,20.598,5.626,36.446
			C2347.737,1242.704,2351.549,1270.253,2362.434,1273.96z"/>
		<path style="fill:#be0038;" d="M2445.486,1541.763h-41.3c-0.219,0.044-0.426,0.088-0.624,0.121l-0.01-0.121h-117.672
			c0.416-1.138,0.941-2.134,1.544-3.074c0.011-0.011,0.011-0.011,0.021-0.022c1.434-2.242,3.338-4.114,5.417-6.555
			c0-0.012,0.01-0.021,0.021-0.033c0.012,0,0.012-0.011,0.012-0.011c2.626-3.086,5.516-7.08,8.141-13.843
			c0.109-0.263,0.208-0.525,0.307-0.799c0.187-0.515,0.383-1.018,0.559-1.521c0.186-0.516,0.371-1.029,0.558-1.533
			c0.12-0.35,0.241-0.7,0.372-1.05c0.264-0.744,0.515-1.488,0.767-2.233c0.108-0.316,0.218-0.634,0.327-0.951v-0.011
			c0.328-0.941,0.636-1.893,0.932-2.834c0.108-0.372,0.229-0.744,0.338-1.105c0.208-0.668,0.405-1.324,0.592-1.981
			c0.12-0.383,0.229-0.766,0.338-1.148c0.274-0.931,0.526-1.86,0.756-2.779c0.076-0.263,0.132-0.525,0.197-0.788
			c0.055-0.273,0.12-0.536,0.186-0.799c0.121-0.471,0.23-0.941,0.34-1.412c0.032-0.175,0.076-0.339,0.119-0.514
			c0.045-0.164,0.078-0.34,0.109-0.515c0.1-0.46,0.209-0.919,0.308-1.379c0-0.044,0.011-0.088,0.021-0.132
			c0.022-0.119,0.044-0.229,0.065-0.35c0.11-0.481,0.197-0.963,0.274-1.444c0.163-0.843,0.295-1.675,0.415-2.506
			c0.055-0.361,0.099-0.712,0.154-1.073c0.099-0.688,0.186-1.379,0.251-2.057c0.021-0.187,0.044-0.383,0.065-0.58
			c0.011-0.099,0.021-0.208,0.033-0.317c0-0.044,0.011-0.077,0.011-0.121c0.056-0.535,0.099-1.05,0.132-1.586v-0.044
			c0-0.055,0.011-0.099,0.011-0.153c0.033-0.383,0.055-0.767,0.065-1.149c0-0.087,0.011-0.196,0.011-0.295v-0.011
			c0-0.099,0.012-0.197,0.012-0.296c0.011-0.175,0.011-0.351,0.021-0.524c0.011-0.176,0.011-0.351,0.011-0.525
			c0.012-0.351,0.022-0.701,0.022-1.051c0.011-0.307,0.011-0.612,0-0.92c0-0.612-0.022-1.214-0.044-1.827v-0.273
			c-0.033-0.547-0.065-1.105-0.109-1.652v-0.065c0-0.077,0-0.143-0.012-0.219c-0.055-0.657-0.109-1.302-0.186-1.948
			c-0.033-0.351-0.077-0.701-0.131-1.051c-0.012-0.088-0.021-0.186-0.033-0.273c-0.044-0.317-0.088-0.623-0.131-0.94
			c-0.088-0.57-0.187-1.139-0.296-1.708c-0.044-0.229-0.089-0.47-0.142-0.7c-0.078-0.394-0.154-0.777-0.253-1.171
			c-0.021-0.12-0.054-0.229-0.076-0.35c-0.132-0.559-0.263-1.127-0.416-1.686c-0.011-0.033-0.021-0.077-0.032-0.11
			c-0.176-0.634-0.361-1.279-0.559-1.925c-3.906-12.486-7.484-32.556-9.762-53.938c-2.473-23.276,0.689-47.745,5.57-65.769
			c2.758-10.188,6.063-18.318,9.203-23.002h0.011v-0.011c0.547-0.821,13.56-4.728,32.71-7.245c5.34-0.711,11.15-1.302,17.301-1.685
			c8.032-0.515,16.633-0.667,25.52-0.263c2.352,0.109,4.738,0.252,7.134,0.449c5.778,0.459,11.644,1.181,17.509,2.21
			c7.081,1.248,14.16,2.955,21.099,5.209c0,0,0.624,9.226,0.722,24.337c0.045,6.609-0.021,14.324-0.283,22.916v0.021
			c-0.308,10.385-0.92,22.006-1.981,34.372c-0.886,10.199-2.091,20.912-3.698,31.854c-0.361,2.474-0.744,4.947-1.148,7.431
			c-0.592,3.622-1.227,7.256-1.916,10.899c-0.405,2.155-0.667,4.333-0.788,6.521c-0.143,2.495-0.088,5.002,0.165,7.497
			c0.415,4.344,1.41,8.645,2.976,12.771c3.753,9.882,8.843,24.414,12.892,40.008
			C2442.531,1526.081,2444.282,1534.005,2445.486,1541.763z"/>
		<path style="fill:#163560;" d="M2284.842,1541.763c0.799-0.984,1.674-2.014,2.583-3.074c0.011-0.011,0.011-0.011,0.021-0.022
			c1.719-2.014,3.578-4.18,5.417-6.555c0-0.012,0.01-0.021,0.021-0.033c0.012,0,0.012-0.011,0.012-0.011
			c3.063-3.961,6.029-8.491,8.141-13.843c0.109-0.263,0.208-0.525,0.307-0.799c0.187-0.515,0.383-1.018,0.559-1.521
			c0.186-0.516,0.371-1.029,0.558-1.533c0.12-0.35,0.241-0.7,0.372-1.05c0.264-0.744,0.515-1.488,0.767-2.233
			c0.108-0.316,0.218-0.634,0.327-0.951v-0.011c0.318-0.952,0.624-1.893,0.932-2.834c0.108-0.372,0.229-0.744,0.338-1.105
			c0.208-0.668,0.405-1.324,0.592-1.981c0.12-0.383,0.229-0.766,0.338-1.148c0.264-0.931,0.516-1.86,0.756-2.779
			c0.076-0.263,0.132-0.525,0.197-0.788c0.055-0.273,0.12-0.536,0.186-0.799c0.121-0.471,0.23-0.941,0.34-1.412
			c0.032-0.175,0.076-0.339,0.119-0.514c0.045-0.164,0.078-0.34,0.109-0.515c0.1-0.46,0.209-0.919,0.308-1.379
			c0-0.044,0.011-0.088,0.021-0.132c0.022-0.119,0.044-0.229,0.065-0.35c0.1-0.481,0.187-0.963,0.274-1.444
			c0.163-0.843,0.295-1.675,0.415-2.506c0.055-0.361,0.099-0.712,0.154-1.073c0.087-0.678,0.175-1.367,0.251-2.057
			c0.021-0.187,0.044-0.383,0.065-0.58c0.011-0.099,0.021-0.208,0.033-0.317c0-0.044,0.011-0.077,0.011-0.121
			c0.056-0.535,0.099-1.05,0.132-1.586v-0.044c0-0.055,0.011-0.099,0.011-0.153c0.022-0.284,0.033-0.568,0.055-0.854
			c0-0.099,0.011-0.196,0.011-0.296c0-0.087,0.011-0.196,0.011-0.295v-0.011c0-0.099,0.012-0.197,0.012-0.296
			c0.011-0.175,0.011-0.351,0.021-0.524c0.011-0.176,0.011-0.351,0.011-0.525c0.012-0.351,0.022-0.701,0.022-1.051
			c0.011-0.307,0.011-0.612,0-0.92c0-0.612-0.022-1.214-0.044-1.827v-0.273c-0.033-0.547-0.065-1.105-0.109-1.652v-0.065
			c0-0.077,0-0.143-0.012-0.219c-0.055-0.657-0.109-1.302-0.186-1.948c-0.033-0.351-0.077-0.701-0.131-1.051
			c-0.012-0.088-0.021-0.186-0.033-0.273c-0.044-0.317-0.088-0.623-0.131-0.94c-0.088-0.57-0.187-1.139-0.296-1.708
			c-0.044-0.229-0.089-0.47-0.142-0.7c-0.078-0.394-0.154-0.777-0.253-1.171c-0.021-0.12-0.054-0.229-0.076-0.35
			c-0.132-0.559-0.263-1.127-0.416-1.686c-0.011-0.033-0.021-0.077-0.032-0.11c-0.165-0.645-0.361-1.279-0.559-1.925
			c-3.906-12.486-7.484-32.556-9.762-53.938c12.432-18.067,27.884-27.446,27.884-27.446c4.552,8.963,7.539,17.838,9.302,26.506
			c4.136,20.288-0.257,38.964-3.731,55.809c-4.649,22.538-8.204,51.082-23.024,76.995H2284.842z"/>
		<path style="fill:#FFB27D;" d="M2343.043,1254.086c0,0,5.221-10.627,10.068-8.576c4.847,2.051-1.864,19.203-5.034,19.017
			C2344.907,1264.341,2343.043,1254.086,2343.043,1254.086z"/>
		<g>
			<g>
				<g>
					<g>
						<path style="fill:#163560;" d="M2521.563,1402.457c-0.449,0.8-28.255,56.128-44.112,139.306h-12.037
							c3.787-27.313,8.81-51.147,14.456-69.806c0.109-0.47,0.23-0.919,0.34-1.269v-0.012c0.809-2.43,1.509-4.858,2.21-7.179
							c0.011-0.021,0.011-0.032,0.021-0.055c2.058-6.325,3.896-12.201,5.854-17.606c0.012-0.022,0.012-0.033,0.022-0.055
							c0.81-2.539,1.62-4.859,2.429-7.168c0.012-0.012,0.012-0.012,0.012-0.022c9.027-25.716,15.746-39.953,15.867-40.193
							c0.919-1.85,4.279-3.01,9.608-2.55C2522.263,1396.428,2522.492,1400.598,2521.563,1402.457z"/>
					</g>
					<g>
						<path style="fill:#163560;" d="M2395.422,1402.457c0,0.11-0.438,0.887-1.227,2.419v0.033c-0.01,0.032-0.021,0.065-0.043,0.098
							c-1.74,3.591-5.1,10.999-9.379,21.657c-1.05,2.769-2.199,5.668-3.469,8.776c0,0.011-0.011,0.011-0.011,0.022
							c-0.931,2.538-1.959,5.307-2.999,8.196c0,0.011-0.011,0.021-0.011,0.032c-1.849,4.968-3.709,10.418-5.668,16.196
							c-0.011,0.011-0.011,0.011-0.011,0.021c-0.811,2.55-1.729,5.209-2.659,7.988c-0.012,0.032-0.021,0.054-0.021,0.087
							c-6.468,20.749-13.209,45.633-18.538,73.778h-12.136c0.295-2.231,0.612-4.42,0.93-6.565v-0.12c0-0.012,0-0.033,0.011-0.044
							v-0.012c3.699-24.533,8.328-45.938,13.537-63.064c6.26-20.507,12.157-37.305,16.797-49.583
							c5.91-15.396,9.838-23.735,9.959-23.976c0.93-1.85,4.289-3.01,9.619-2.55c1.477,0.12,2.626,0.568,3.545,1.028
							c0.012,0.011,0.033,0.011,0.044,0.021C2396.122,1398.398,2396.122,1401.068,2395.422,1402.457z"/>
					</g>
					<g>
						<path style="fill:#163560;" d="M2499.908,1447.371c2.007,0,3.781-1.281,4.131-3.094c0.391-2.024-1.145-3.946-3.429-4.293
							c-3.634-0.55-89.414-13.355-127.812-2.671c-2.211,0.614-3.441,2.702-2.748,4.661c0.695,1.961,3.05,3.055,5.262,2.436
							c36.468-10.147,123.015,2.775,123.884,2.907C2499.436,1447.354,2499.674,1447.371,2499.908,1447.371z"/>
					</g>
					<g>
						<path style="fill:#163560;" d="M2490.104,1472.004c2.007,0,3.781-1.28,4.131-3.094c0.391-2.025-1.145-3.946-3.429-4.293
							c-3.634-0.55-89.415-13.36-127.812-2.672c-2.211,0.615-3.441,2.703-2.746,4.663c0.693,1.96,3.049,3.054,5.259,2.434
							c36.483-10.153,123.016,2.776,123.884,2.907C2489.631,1471.986,2489.869,1472.004,2490.104,1472.004z"/>
					</g>
				</g>
			</g>
		</g>
		<path style="fill:#be0038;" d="M2334.721,1408.959c-4.979,18.635-14.895,41.298-25.65,62.528
			c-15.2,29.983-32.107,57.089-39.287,65.953c-1.181,1.455-2.537,2.9-4.037,4.322h-55.121
			c13.395-18.198,31.703-38.957,40.545-46.365c12.168-10.199,28.002-99.133,39.604-145.073c0.481-1.914,1.246-4.016,2.232-6.193
			c4.213-9.378,12.408-20.135,19.303-23.002h0.011v-0.011c0.952-0.395,1.872-0.635,2.759-0.712
			c4.781-0.383,9.104,10.867,12.748,23.725c3.709,13.11,6.729,27.884,8.831,33.705
			C2339.272,1385.069,2338.178,1396.045,2334.721,1408.959z"/>
		<path style="fill:#163560;" d="M2350.624,1192.135c0,0,0.985-0.976,2.964-2.268c6.146-4.011,21.875-11.067,47.466-1.428
			c33.832,12.745,27.114,65.504,46.177,86.011c19.063,20.505,37.271,50.962,27.713,70.783c-9.56,19.822,25.211,51.23-14.252,59.879
			c-39.462,8.648-42.119-31.417-72.199-29.82c-30.079,1.599-67.99-34.129-53.75-48.018c14.24-13.89,36.547-10.925,35.116-29.133
			c-1.432-18.208-13.023-30.151-13.023-30.151s15.463-46.402,9.204-57.286C2359.778,1199.819,2350.624,1192.135,2350.624,1192.135z"
			/>
	</g>
	<g>
		<g>
			<path style="fill:#1B4D89;" d="M790.888,1331.556l-1.393,8.539v0.094l-1.021,6.961l-4.363,28.309l-1.114,7.241l-2.506,16.242
				l-1.021,7.147l-20.419,133.288l-0.836,5.383h-34.899c-0.65-1.763-1.207-3.526-1.764-5.383c-5.013-16.521-8.354-33.601-7.24-48.08
				c0.464-5.661,2.042-12.438,4.455-20.049c5.94-18.563,16.801-41.769,28.31-63.951c1.392-2.507,2.691-5.012,3.99-7.425
				c3.249-6.035,6.405-11.882,9.467-17.452c0.743-1.299,1.486-2.598,2.229-3.805c0-0.093,0-0.186,0.094-0.279
				c0.648-1.113,1.205-2.134,1.855-3.155c11.974-21.255,22.184-37.962,25.246-42.975l0.094-0.093
				C790.144,1332.02,790.888,1331.556,790.888,1331.556z"/>
			<path style="fill:#FFB27D;" d="M802.391,1337.739l24.121,17.865l34.863-7.339c-0.483-3.179-2.784-16.355-4.88-28.289
				c-0.126-0.705-0.254-1.408-0.372-2.097c-1.795-10.154-3.345-18.878-3.345-18.878l-32.56-16.229l-12.14-6.051
				c0.03,0.214,0.94,11.271,1.067,12.884C811.423,1318.268,802.391,1337.739,802.391,1337.739z"/>
			<path style="fill:#163560;" d="M858.025,1330.844c-4.398-2.373-46.514-16.21-51.582-14.536c-5.069,1.673-8.07,11.48-8.07,11.48
				l71.733,18.424C870.106,1346.212,867.335,1335.865,858.025,1330.844z"/>
			<path style="fill:#be0038;" d="M904.125,1544.76H733.989c0.093-1.763,0.278-3.526,0.372-5.383
				c3.527-43.254,9.931-92.447,20.048-132.544c0.65-2.507,1.3-4.92,1.949-7.333c1.578-5.94,3.342-11.696,5.105-17.08
				c0.371-1.299,0.835-2.506,1.299-3.805c0-0.093,0-0.186,0.094-0.279c0.371-1.021,0.742-2.134,1.113-3.155
				c7.24-20.049,15.872-35.456,25.988-42.975l0.094-0.093c0.093-0.094,0.836-0.558,0.836-0.558c2.413-1.763,4.919-3.063,7.518-3.806
				c1.578-0.464,4.177-0.464,7.425-0.185c13.367,1.206,38.335,8.168,54.206,12.9c7.055,2.136,10.648,6.151,11.69,7.569
				c2.332,3.174,7.803,9.418,12.907,28.167c2.321,8.538,4.733,18.378,6.776,28.866c3.063,15.687,5.383,33.136,5.568,50.123
				c0.094,6.589,0.464,14.387,1.021,22.925c0.185,2.878,0.465,5.849,0.649,8.817c0.186,1.95,0.372,3.992,0.464,6.034
				c0.278,2.599,0.557,5.29,0.743,8.075c0.464,4.826,0.928,9.839,1.392,14.852c0.372,3.34,0.65,6.683,1.021,10.117
				c0.371,4.455,0.835,8.909,1.3,13.365C903.755,1541.141,903.94,1542.997,904.125,1544.76z"/>
			<path style="fill:#1B4D89;" d="M904.125,1544.76h-45.852c-0.742-1.763-1.393-3.526-2.042-5.383
				c-12.624-35.828-12.16-75.927-9.281-104.235c2.135-22.091,5.754-36.942,5.754-36.942l38.706,6.869
				c3.063,15.687,5.383,33.136,5.568,50.123c0.321,22.568,4.195,61.224,6.591,84.186
				C903.755,1541.141,903.94,1542.997,904.125,1544.76z"/>
			<path style="fill:#FCA56B;" d="M811.589,1290.112c7.15,13.683,33.794,25.514,44.906,29.864c-0.126-0.705-0.254-1.408-0.372-2.097
				c-1.795-10.154-3.345-18.878-3.345-18.878l-32.56-16.229C813.02,1282.662,808.639,1284.481,811.589,1290.112z"/>
			<path style="fill:#FFB27D;" d="M863.269,1299.742c0,0-48.2,15.037-57.101-15.124c-8.901-30.16-21.117-48.532,9.281-59.407
				c30.398-10.876,39.801-1.14,45.22,8.205C866.088,1242.76,875.578,1295.055,863.269,1299.742z"/>
			<path style="fill:#163560;" d="M858.776,1230.511c0,0-3.074,35.097-10.332,33.573c-7.259-1.524-13.841-2.653-12.779,7.927
				c1.063,10.579-3.788,24.11-26.156,25.981c-22.37,1.872-39.609-57.131-33.465-68.053
				C793.775,1198.425,884.402,1192.064,858.776,1230.511z"/>
			<path style="fill:#be0038;" d="M960.468,1544.76c0,0-74.333,10.212-87.304-22.318c-15.482-27.383-17.025-53.421-26.214-87.3
				c-7.52-27.66-12.81-49.007-13.366-49.565c0,0,4.361-30.352,27.753-37.313c6.868-2.042,15.129,9.839,23.297,27.938
				c19.771,43.438,27.357,93.153,36.31,118.645C922.426,1499.064,958.518,1542.997,960.468,1544.76z"/>
		</g>
		<g>
			<g>
				<g>
					<g>
						<path style="fill:#163560;" d="M726.007,1544.76h-8.911c-0.092-1.855-0.185-3.619-0.371-5.383
							c-9.839-112.403-50.4-192.876-50.864-193.806c-0.929-1.855-0.742-5.847,5.105-6.403c5.197-0.466,8.353,0.648,9.28,2.506
							c0.094,0.186,6.592,13.923,15.315,38.797c0.836,2.229,1.672,4.549,2.414,6.962c1.856,5.291,3.713,10.953,5.663,17.079
							c0.648,2.228,1.391,4.548,2.135,6.961c0.091,0.371,0.277,0.836,0.37,1.3c4.734,15.964,9.097,35.829,12.623,58.476
							c3.156,20.605,5.662,43.625,6.962,68.129C725.914,1541.141,726.007,1542.904,726.007,1544.76z"/>
					</g>
					<g>
						<path style="fill:#163560;" d="M847.971,1544.76h-9.004c-0.093-1.855-0.186-3.619-0.371-5.383
							c-4.548-51.885-15.593-96.902-26.268-130.503c-0.835-2.691-1.671-5.291-2.505-7.798c-1.857-5.568-3.715-10.858-5.57-15.686
							c-0.928-2.785-1.95-5.477-2.877-7.981c-6.126-16.059-11.046-26.546-12.901-30.26c-0.465-1.021-0.742-1.485-0.742-1.578
							c-0.744-1.392-0.744-3.99,1.763-5.383v-0.094c0.835-0.463,1.949-0.834,3.434-0.927c5.105-0.466,8.261,0.648,9.19,2.506
							c0.185,0.278,12.345,26.081,25.896,71.099c9.188,30.444,16.801,75.276,19.584,126.604
							C847.785,1541.141,847.878,1542.904,847.971,1544.76z"/>
					</g>
					<g>
						<path style="fill:#163560;" d="M686.747,1388.937c-1.94,0-3.655-1.238-3.992-2.989c-0.377-1.957,1.105-3.814,3.313-4.149
							c3.511-0.532,86.411-12.907,123.518-2.581c2.137,0.593,3.325,2.611,2.654,4.505c-0.67,1.895-2.946,2.952-5.083,2.353
							c-35.244-9.806-118.884,2.683-119.725,2.811C687.203,1388.92,686.974,1388.937,686.747,1388.937z"/>
					</g>
					<g>
						<path style="fill:#163560;" d="M696.222,1412.742c-1.938,0-3.654-1.237-3.992-2.989c-0.377-1.957,1.106-3.815,3.314-4.15
							c3.512-0.53,86.412-12.91,123.519-2.581c2.137,0.594,3.324,2.611,2.654,4.506c-0.672,1.894-2.947,2.952-5.084,2.352
							c-35.258-9.813-118.883,2.684-119.722,2.811C696.679,1412.725,696.449,1412.742,696.222,1412.742z"/>
					</g>
				</g>
			</g>
		</g>
	</g>
	<g>
		<path style="fill:#909090;" d="M1321.837,1180.037c0,0-76.705,107.013-32.883,151.986c43.823,44.975,53.106,10.241,53.106,10.241
			L1321.837,1180.037z"/>
		<path style="fill:#F4904D;" d="M1438.723,1446.733c0.218,1.797-7.283,41.687-21.766,95.029h-92.829
			c0.672-25.004,0.244-50.38-0.723-75.168c-0.895-24.434-2.52-48.771-4.465-72.464L1438.723,1446.733z"/>
		<path style="fill:#FFA561;" d="M1460.204,1415.973c-0.272,23.702-1.477,69.105-6.358,125.79h-90.521
			c-5.92-37.753-14.828-77.269-21.481-104.593v-0.012c-5.154-21.196-8.961-35.051-8.961-35.051l3.928-0.131h0.033l123.394-3.994
			C1460.237,1397.982,1460.336,1404.384,1460.204,1415.973z"/>
		<path style="fill:#FFB27D;" d="M1351.133,1146.196l24.689,13.123l20.656-7.95c3.367-5.888,3.411-16.643,2.618-25.884
			c-0.787-9.173-2.392-16.856-2.392-16.856l-32.69-10.972l-12.196-4.086c0.05,0.179,1.797,9.539,2.05,10.907
			C1358.312,1128.758,1351.133,1146.196,1351.133,1146.196z"/>
		<path style="fill:#ef233c;" d="M1461.662,1414.402c-26.396,30.646-136.518,36.047-146.11,5.842
			c-9.594-30.217-16.792-263.125,31.37-282.232c9.988-3.967,66.546,8.734,66.546,8.734s10.701,21.741,18.995,49.924
			c1.097,3.729,5.447,32.161,10.476,67.315c2.362,16.543,4.882,34.566,7.277,52.219c0.733,5.401,1.458,10.758,2.147,16.022
			c2.666,19.923,5.063,38.579,6.779,53.066C1461.177,1402.446,1462.239,1413.735,1461.662,1414.402z"/>
		<path style="fill:#FCA56B;" d="M1356.257,1104.695c7.366,10.188,30.595,17.56,42.84,20.79c-0.787-9.173-2.392-16.856-2.392-16.856
			l-32.69-10.972C1357.063,1098.205,1352.975,1100.146,1356.257,1104.695z"/>
		<path style="fill:#FFB27D;" d="M1408.378,1105.624c0,0-49.16,20.45-61.425-10.36s-26.869-48.922,4-63.281
			c30.87-14.36,41.687-5.045,48.28,4.243C1405.828,1045.514,1420.851,1099.512,1408.378,1105.624z"/>
		<path style="fill:#163560;" d="M1396.965,1033.357c0,0,0.166,37.152-7.604,36.255c-7.769-0.898-16.474-3.548-14.335,7.459
			s-4.634,30.838-15.629,31.805c-23.581,2.072-54.762-56.054-49.366-68.118C1325.604,1005.95,1420.157,990.507,1396.965,1033.357z"
			/>
		<path style="fill:#909090;" d="M1398.728,1134.047c-0.678-0.214-39.233-13.414-43.433-11.586
			c-4.197,1.829-8.377,15.551-8.377,15.551l66.555,8.736C1413.473,1146.748,1407.38,1136.787,1398.728,1134.047z"/>
		<path style="fill:#909090;" d="M1452.363,1332.227c-82.718-47.936-97.261-112.64-97.261-112.64
			c42.726,19.165,65.303,5.334,87.836,44.398c2.362,16.543,4.882,34.566,7.277,52.219
			C1450.949,1321.605,1451.674,1326.962,1452.363,1332.227z"/>
		<g>
			<path style="fill:#ef233c;" d="M1470.853,1138.36c-3.992-5.971-2.752-13.804,2.771-17.497c5.524-3.694,13.238-1.848,17.23,4.123
				c3.993,5.971,2.751,13.805-2.772,17.498S1474.845,1144.332,1470.853,1138.36z"/>
			<polygon style="fill:#163560;" points="1493.322,1128.677 1528.427,1185.854 1529.413,1187.45 1534.596,1195.893 
				1520.693,1205.189 1514.806,1197.219 1513.688,1195.709 1473.802,1141.729 			"/>
			
				<rect x="1469.725" y="1133.435" transform="matrix(0.8313 -0.5558 0.5558 0.8313 -380.9337 1016.1649)" style="fill:#ED7D2B;" width="27.509" height="4.332"/>
			<polygon style="fill:#ED7D2B;" points="1528.427,1185.854 1529.413,1187.45 1514.806,1197.219 1513.688,1195.709 			"/>
			
				<rect x="1529.233" y="1193.83" transform="matrix(0.8315 -0.5555 0.5555 0.8315 -411.8364 1053.0759)" style="fill:#163560;" width="1.978" height="23.354"/>
		</g>
		<path style="fill:#FFB27D;" d="M1494.437,1191.535c0,0,0.472-18.844,6.404-25.907c5.933-7.063,9.04-10.64,14.407-6.309
			c5.368,4.331,0.553,16.197-1.56,20.718c-2.112,4.52-5.785,12.994-5.785,12.994L1494.437,1191.535z"/>
		<path style="fill:#ef233c;" d="M1358.679,1152.19c0,0-82.923,77.742,104.092,149.818c41.545,16.012,49.653-110.474,49.653-110.474
			s-5.252-8.368-17.987-7.544c0,0-31.172,54.016-34.167,55.937c-7.476,4.795-41.766-61.134-61.602-75.957
			C1378.831,1149.148,1358.679,1152.19,1358.679,1152.19z"/>
	</g>
	<path style="fill:#233862;" d="M2674.801,1549.437H142.995c-1.689,0-3.071-1.383-3.071-3.072v-1.535
		c0-1.688,1.382-3.071,3.071-3.071h2531.806c1.689,0,3.071,1.383,3.071,3.071v1.535
		C2677.872,1548.054,2676.49,1549.437,2674.801,1549.437z"/>
	<g>
		<g>
			<path style="fill:#FFB27D;" d="M1650.699,1308.547c0,0,3.51,23.107-3.803,35.1h46.508c0,0-3.702-19.891-1.852-32.468
				C1693.404,1298.602,1650.699,1308.547,1650.699,1308.547z"/>
			<path style="fill:#FFB27D;" d="M1671.174,1319.439c0,0,34.617-2.303,37.831-44.236c2.534-33.054-0.587-38.904-34.795-39.879
				c-32.395-0.923-38.704,8.516-38.722,19.987C1635.397,1315.858,1658.289,1316.475,1671.174,1319.439z"/>
			<path style="fill:#FFB27D;" d="M1635.488,1277.351c0,0-4.013-3.319-5.443,0.775c-1.43,4.096,7.93,17.696,11.439,13.163
				C1644.995,1286.755,1635.488,1277.351,1635.488,1277.351z"/>
			<path style="fill:#ef233c;" d="M1793.038,1541.763h-165.711c-4.038,0-7.978-0.35-11.808-1.017
				c-4.541-0.799-8.918-2.058-13.088-3.71c-6.643-2.627-12.749-6.282-18.133-10.757c-17.706-14.676-27.664-38.126-23.638-62.956
				c2.704-16.601,5.932-34.033,9.707-50.36v-0.011l0.229-0.985c0.537-2.287,1.084-4.552,1.642-6.795
				c1.707-6.938,3.524-13.603,5.45-19.84c6.04-19.6,13.099-34.985,21.176-41.201c0.218-0.174,0.426-0.328,0.645-0.48
				c9.674-6.818,29.371-10.746,51.323-12.147c13.383-0.843,27.62-0.755,40.905,0.208c17.673,1.28,33.683,4.081,43.914,8.24
				c2.035,0.832,4.061,2.243,6.063,4.18C1773.986,1375.352,1799.746,1541.413,1793.038,1541.763z"/>
			<path style="fill:#163560;" d="M1670.15,1208.893c0,0-24.949-4.628-40.253,6.638c-15.303,11.266-17.906,28.571-23.114,42.704
				c-5.209,14.134-23.35,17.486-15.851,35.637c18.61,45.048,91.17,32.674,121.823,22.46c5.909-1.968,0.244-11.517-8.178-14.864
				c-9.887-3.93-4.953-21.771,4.427-26.264c13.644-6.537,14.312-17.923,12.196-28.771
				C1717.458,1227.229,1699.658,1200.736,1670.15,1208.893z"/>
			<path style="fill:#FFB27D;" d="M1699.801,1276.475c0,0,2.115-5.066,5.456-1.927c3.34,3.14,1.274,20.449-4.219,17.912
				C1695.544,1289.923,1699.801,1276.475,1699.801,1276.475z"/>
		</g>
		<polygon style="fill:#ef233c;" points="1639.255,1541.763 1584.299,1541.763 1584.299,1514.481 1598.776,1516.648 
			1612.751,1518.738 1635.49,1522.142 		"/>
		<g>
			<g>
				<g>
					<g>
						<path style="fill:#163560;" d="M1615.641,1541.763h-12.443c-0.252-1.575-0.503-3.161-0.766-4.727
							c-1.139-6.949-2.375-13.756-3.655-20.388c-8.186-41.923-18.997-77.4-28.408-103.686v-0.011
							c-11.26-31.494-20.496-49.813-20.737-50.294c-1.083-2.167-0.864-6.818,5.964-7.475c6.063-0.535,9.74,0.756,10.823,2.922
							c0.087,0.164,4.585,9.674,11.271,27.227c2.024,5.297,4.246,11.315,6.598,18.045v0.012c0.975,2.593,1.948,5.296,2.813,8.107
							c0,0.012,0,0.012,0.011,0.023c2.155,6.149,4.312,12.736,6.588,19.861c0,0.011,0.012,0.032,0.012,0.043
							c0.754,2.594,1.618,5.308,2.494,8.12v0.011c0.099,0.438,0.317,0.963,0.426,1.511c5.527,18.624,10.615,41.791,14.73,68.219
							c0.471,3.107,0.94,6.26,1.39,9.454c0.995,7.125,1.927,14.468,2.769,22.008
							C1615.563,1541.084,1615.597,1541.424,1615.641,1541.763z"/>
					</g>
					<g>
						<path style="fill:#163560;" d="M1757.834,1541.763h-12.442c-6.435-40.816-15.769-76.602-24.874-105.25
							c0-0.011-0.011-0.033-0.011-0.044c-0.974-3.129-1.937-6.139-2.91-9.05c-0.012-0.021-0.012-0.032-0.022-0.055
							c-2.155-6.479-4.322-12.628-6.478-18.253c-0.011-0.021-0.011-0.044-0.022-0.065c-1.072-3.229-2.265-6.348-3.338-9.247
							c-7.145-18.735-12.88-30.969-15.046-35.303c-0.547-1.192-0.865-1.729-0.865-1.838c-0.875-1.62-0.875-4.662,2.058-6.281v-0.11
							c0.974-0.536,2.265-0.974,4.005-1.083c5.953-0.535,9.631,0.756,10.714,2.922c0.219,0.328,14.412,30.433,30.214,82.96
							C1746.617,1466.913,1753.457,1501.668,1757.834,1541.763z"/>
					</g>
					<g>
						<path style="fill:#163560;" d="M1574.002,1413.251c-2.263,0-4.263-1.444-4.657-3.487c-0.44-2.283,1.29-4.45,3.866-4.841
							c4.097-0.62,100.815-15.059,144.109-3.012c2.493,0.691,3.879,3.047,3.097,5.256c-0.782,2.21-3.438,3.443-5.932,2.745
							c-41.118-11.44-138.7,3.131-139.681,3.279C1574.535,1413.231,1574.268,1413.251,1574.002,1413.251z"/>
					</g>
					<g>
						<path style="fill:#163560;" d="M1585.058,1441.025c-2.263,0-4.263-1.444-4.658-3.488c-0.44-2.283,1.291-4.45,3.866-4.841
							c4.098-0.619,100.816-15.063,144.109-3.013c2.492,0.693,3.879,3.048,3.097,5.258c-0.782,2.209-3.438,3.443-5.931,2.744
							c-41.136-11.448-138.701,3.131-139.68,3.279C1585.59,1441.005,1585.322,1441.025,1585.058,1441.025z"/>
					</g>
				</g>
			</g>
		</g>
	</g>
	<g>
		<g>
			<path style="fill:#FFB27D;" d="M2076.18,1304.963c0,0-3.706,24.4,4.015,37.063h-49.107c0,0,3.908-21.003,1.953-34.283
				C2031.087,1294.463,2076.18,1304.963,2076.18,1304.963z"/>
			<path style="fill:#FFA561;" d="M1935.361,1541.763h165.711c4.039,0,7.978-0.35,11.808-1.017c4.542-0.799,8.919-2.058,13.089-3.71
				c6.642-2.627,12.747-6.282,18.133-10.757c17.705-14.676,27.664-38.126,23.636-62.956c-2.702-16.601-5.931-34.033-9.706-50.36
				v-0.011l-0.229-0.985c-0.536-2.287-1.084-4.552-1.642-6.795c-1.707-6.938-3.523-13.603-5.45-19.84
				c-6.04-19.6-13.099-34.985-21.174-41.201c-0.22-0.174-0.428-0.328-0.646-0.48c-9.673-6.818-29.37-10.746-51.323-12.147
				c-13.383-0.843-27.619-0.755-40.904,0.208c-17.674,1.28-33.683,4.081-43.915,8.24c-2.035,0.832-4.06,2.243-6.063,4.18
				C1954.413,1375.352,1928.653,1541.413,1935.361,1541.763z"/>
			<path style="fill:#FFB27D;" d="M2033.04,1307.743c0,0-15.032,6.292-18.427-37.987c-2.676-34.902,0.619-41.08,36.74-42.109
				c34.207-0.975,40.868,8.993,40.887,21.105C2092.337,1312.686,2046.646,1304.612,2033.04,1307.743z"/>
			<path style="fill:#B22929;" d="M2063.814,1208.086c13.575,3.804,32.936,14.31,32.938,32.285
				c0.002,16.846-1.641,33.215-5.964,37.414c-4.324,4.197-3.052,23.195-22.487,23.237c-18.006,0.039-36.313-11.327-39.092-21.828
				s-15.903-3.133-18.617-14.073c-5.356-21.588-4.42-32.738,9.834-44.475C2032.84,1210.424,2048.383,1203.763,2063.814,1208.086z"/>
			<path style="fill:#FFB27D;" d="M2092.24,1272.024c0,0,4.236-3.506,5.748,0.818c1.51,4.324-8.373,18.686-12.08,13.898
				C2082.203,1281.953,2092.24,1272.024,2092.24,1272.024z"/>
			<path style="fill:#B22929;" d="M2048.59,1198.371c5.156,0.562,10.363,0.346,15.488-0.452c10.012-1.558,26.32-2.079,34.065,8.827
				c29.88,42.074-6.892,66.036-1.392,80.96c5.499,14.923,41.391,35.155,33.473,54.32c-19.65,47.566-52.951,10.566-85.32-0.217
				c-6.239-2.079-3.192-34.878,30.207-51.562c10.05-5.021-50.594-15.747-60.498-20.492c-14.406-6.902-15.111-18.924-12.879-30.379
				C2005.38,1220.68,2021.646,1195.435,2048.59,1198.371z"/>
			<path style="fill:#FFB27D;" d="M2031.66,1273.34c0,0,0.592-5.622-3.942-5.204c-11.317,1.044-11.046,17.317-4.906,18.587
				C2028.95,1287.991,2031.66,1273.34,2031.66,1273.34z"/>
		</g>
		<polygon style="fill:#FFA561;" points="2089.145,1541.763 2144.102,1541.763 2144.102,1514.481 2129.623,1516.648 
			2115.648,1518.738 2092.909,1522.142 		"/>
		<g>
			<g>
				<g>
					<g>
						<path style="fill:#163560;" d="M2112.76,1541.763h12.442c0.251-1.575,0.503-3.161,0.767-4.727
							c1.138-6.949,2.374-13.756,3.654-20.388c8.186-41.923,18.998-77.4,28.408-103.686v-0.011
							c11.261-31.494,20.496-49.813,20.737-50.294c1.083-2.167,0.864-6.818-5.964-7.475c-6.063-0.535-9.74,0.756-10.822,2.922
							c-0.088,0.164-4.586,9.674-11.272,27.227c-2.024,5.297-4.245,11.315-6.598,18.045v0.012c-0.974,2.593-1.948,5.296-2.813,8.107
							c0,0.012,0,0.012-0.011,0.023c-2.155,6.149-4.312,12.736-6.588,19.861c0,0.011-0.011,0.032-0.011,0.043
							c-0.755,2.594-1.619,5.308-2.495,8.12v0.011c-0.098,0.438-0.317,0.963-0.427,1.511c-5.526,18.624-10.614,41.791-14.729,68.219
							c-0.471,3.107-0.941,6.26-1.391,9.454c-0.996,7.125-1.926,14.468-2.769,22.008
							C2112.836,1541.084,2112.804,1541.424,2112.76,1541.763z"/>
					</g>
					<g>
						<path style="fill:#163560;" d="M1970.565,1541.763h12.442c6.435-40.816,15.769-76.602,24.873-105.25
							c0-0.011,0.012-0.033,0.012-0.044c0.973-3.129,1.938-6.139,2.91-9.05c0.012-0.021,0.012-0.032,0.022-0.055
							c2.155-6.479,4.322-12.628,6.478-18.253c0.012-0.021,0.012-0.044,0.021-0.065c1.073-3.229,2.266-6.348,3.339-9.247
							c7.146-18.735,12.88-30.969,15.046-35.303c0.547-1.192,0.865-1.729,0.865-1.838c0.875-1.62,0.875-4.662-2.057-6.281v-0.11
							c-0.975-0.536-2.266-0.974-4.006-1.083c-5.953-0.535-9.63,0.756-10.713,2.922c-0.219,0.328-14.412,30.433-30.215,82.96
							C1981.782,1466.913,1974.942,1501.668,1970.565,1541.763z"/>
					</g>
					<g>
						<path style="fill:#163560;" d="M2154.397,1413.251c2.263,0,4.263-1.444,4.657-3.487c0.44-2.283-1.29-4.45-3.865-4.841
							c-4.097-0.62-100.816-15.059-144.109-3.012c-2.494,0.691-3.88,3.047-3.098,5.256c0.783,2.21,3.438,3.443,5.932,2.745
							c41.118-11.44,138.701,3.131,139.682,3.279C2153.865,1413.231,2154.133,1413.251,2154.397,1413.251z"/>
					</g>
					<g>
						<path style="fill:#163560;" d="M2143.342,1441.025c2.264,0,4.264-1.444,4.658-3.488c0.441-2.283-1.291-4.45-3.866-4.841
							c-4.097-0.619-100.815-15.063-144.108-3.013c-2.493,0.693-3.881,3.048-3.098,5.258c0.783,2.209,3.438,3.443,5.932,2.744
							c41.135-11.448,138.7,3.131,139.681,3.279C2142.81,1441.005,2143.078,1441.025,2143.342,1441.025z"/>
					</g>
				</g>
			</g>
		</g>
	</g>
</g>
</svg>
