<svg width="18" height="18" viewBox="0 0 18 18" fill="none" xmlns="http://www.w3.org/2000/svg">
<path fill-rule="evenodd" clip-rule="evenodd" d="M11.9543 2.54279C11.7393 1.90971 11.1806 1.5 10.5479 1.5H7.45194L7.33425 1.50475C6.7119 1.55512 6.18083 2.00172 6.01728 2.62899L5.83157 3.5761L5.80981 3.65947C5.72088 3.92946 5.47227 4.11685 5.18829 4.11685H2.79854L2.72411 4.12198C2.45636 4.15923 2.25 4.39458 2.25 4.67937C2.25 4.99004 2.49559 5.24189 2.79854 5.24189H15.2015L15.2759 5.23675C15.5436 5.1995 15.75 4.96415 15.75 4.67937C15.75 4.3687 15.5044 4.11685 15.2015 4.11685H12.8116L12.7276 4.11133C12.4519 4.0749 12.224 3.86154 12.1682 3.57587L11.9906 2.66406L11.9543 2.54279ZM11.1858 4.11685C11.1608 4.05334 11.1392 3.98791 11.1212 3.92076L11.0925 3.79656L10.9227 2.9196C10.883 2.76743 10.7605 2.65604 10.6127 2.63057L10.5479 2.62504H7.45194C7.29803 2.62504 7.16122 2.71742 7.10439 2.83352L7.08512 2.88453L6.90735 3.79679C6.88565 3.90786 6.85424 4.01483 6.81413 4.11685H11.1858ZM14.2338 6.54013C14.5106 6.56301 14.7228 6.79287 14.7375 7.06954L14.7304 7.2238L14.4945 10.1122L14.2471 12.931C14.1947 13.4937 14.1479 13.9684 14.1074 14.342C13.9668 15.6441 13.1216 16.4493 11.8475 16.4731C9.86203 16.5098 7.95358 16.5094 6.10029 16.4693C4.86298 16.4433 4.03025 15.6294 3.89216 14.3473L3.79672 13.4026L3.62995 11.5703L3.45912 9.55955L3.26379 7.14591C3.23951 6.83624 3.46463 6.56501 3.76661 6.54012C4.04342 6.5173 4.28873 6.70938 4.34639 6.98008L4.36883 7.2013L4.55224 9.46404L4.75252 11.8094C4.84234 12.8247 4.92025 13.6464 4.9826 14.2236C5.06129 14.9543 5.44603 15.3303 6.12309 15.3445C7.96189 15.3843 9.85611 15.3846 11.8276 15.3482C12.5458 15.3348 12.9366 14.9625 13.017 14.218L13.112 13.2784C13.1398 12.9889 13.1696 12.6692 13.201 12.322L13.4015 10.0153L13.643 7.05562C13.6653 6.77176 13.8894 6.55418 14.1592 6.53911L14.2338 6.54013Z" fill="#DA3F3F"/>
</svg>
