<svg width="24" height="24" viewBox="0 0 24 24" fill="none" xmlns="http://www.w3.org/2000/svg">
<path fill-rule="evenodd" clip-rule="evenodd" d="M2 6.85714C2 6.38376 2.38376 6 2.85714 6L20.5714 6C21.0448 6 21.4286 6.38376 21.4286 6.85714C21.4286 7.33053 21.0448 7.71429 20.5714 7.71429L2.85714 7.71429C2.38376 7.71429 2 7.33053 2 6.85714Z" />
<path fill-rule="evenodd" clip-rule="evenodd" d="M2 11.9978C2 11.5244 2.38376 11.1406 2.85714 11.1406L20.5714 11.1406C21.0448 11.1406 21.4286 11.5244 21.4286 11.9978C21.4286 12.4712 21.0448 12.8549 20.5714 12.8549L2.85714 12.8549C2.38376 12.8549 2 12.4712 2 11.9978Z" />
<path fill-rule="evenodd" clip-rule="evenodd" d="M2 17.1462C2 16.6728 2.38376 16.2891 2.85714 16.2891L20.5714 16.2891C21.0448 16.2891 21.4286 16.6728 21.4286 17.1462C21.4286 17.6196 21.0448 18.0033 20.5714 18.0033L2.85714 18.0033C2.38376 18.0033 2 17.6196 2 17.1462Z" />
</svg>
