<svg width="20" height="22" viewBox="0 0 20 22" fill="none" xmlns="http://www.w3.org/2000/svg">
<path fill-rule="evenodd" clip-rule="evenodd" d="M18.9617 6.62288L18.3393 5.54279C17.8127 4.62887 16.6457 4.31359 15.7306 4.83798V4.83798C15.2949 5.09461 14.7751 5.16742 14.2857 5.04035C13.7964 4.91329 13.3776 4.59678 13.1219 4.16064C12.9573 3.88342 12.8689 3.56766 12.8656 3.24531V3.24531C12.8804 2.72849 12.6854 2.22767 12.3251 1.85694C11.9647 1.4862 11.4696 1.27713 10.9525 1.27734H9.69853C9.192 1.27734 8.70634 1.47918 8.34903 1.83821C7.99172 2.19724 7.7922 2.68386 7.79464 3.19039V3.19039C7.77963 4.23619 6.92751 5.07608 5.8816 5.07597C5.55924 5.07262 5.24349 4.98421 4.96626 4.81968V4.81968C4.05109 4.29528 2.88414 4.61056 2.35757 5.52448L1.68938 6.62288C1.16344 7.53566 1.47443 8.70187 2.38503 9.23158V9.23158C2.97693 9.57331 3.34156 10.2049 3.34156 10.8883C3.34156 11.5718 2.97693 12.2033 2.38503 12.5451V12.5451C1.47559 13.0712 1.16426 14.2346 1.68938 15.1446V15.1446L2.32095 16.2339C2.56768 16.679 2.98163 17.0076 3.47122 17.1467C3.96081 17.2859 4.48567 17.2242 4.92965 16.9753V16.9753C5.36611 16.7206 5.88622 16.6508 6.37437 16.7815C6.86252 16.9121 7.27826 17.2323 7.52919 17.6709C7.69373 17.9482 7.78214 18.2639 7.78549 18.5863V18.5863C7.78549 19.6428 8.64198 20.4993 9.69853 20.4993H10.9525C12.0055 20.4993 12.8605 19.6484 12.8656 18.5954V18.5954C12.8631 18.0873 13.0639 17.5993 13.4232 17.24C13.7825 16.8807 14.2705 16.6799 14.7786 16.6824C15.1002 16.691 15.4147 16.779 15.694 16.9387V16.9387C16.6067 17.4646 17.7729 17.1536 18.3026 16.243V16.243L18.9617 15.1446C19.2168 14.7068 19.2868 14.1853 19.1562 13.6956C19.0257 13.206 18.7053 12.7886 18.266 12.5359V12.5359C17.8268 12.2832 17.5064 11.8658 17.3758 11.3762C17.2453 10.8866 17.3153 10.3651 17.5704 9.92723C17.7363 9.6376 17.9764 9.39747 18.266 9.23158V9.23158C19.1712 8.70216 19.4814 7.54276 18.9617 6.63203V6.63203V6.62288Z"  stroke-width="1.5" stroke-linecap="round" stroke-linejoin="round"/>
<circle cx="10.3315" cy="10.8901" r="2.63616"  stroke-width="1.5" stroke-linecap="round" stroke-linejoin="round"/>
</svg>
