<?xml version="1.0" encoding="utf-8"?>
<!-- Generator: Adobe Illustrator 27.5.0, SVG Export Plug-In . SVG Version: 6.00 Build 0)  -->
<svg version="1.1" xmlns="http://www.w3.org/2000/svg" xmlns:xlink="http://www.w3.org/1999/xlink" x="0px" y="0px"
	 viewBox="0 0 500 500" style="enable-background:new 0 0 500 500;" xml:space="preserve">
<g id="Background_Complete">
	<rect x="416.779" y="398.494" style="fill:#EBEBEB;" width="33.122" height="0.25"/>
	<rect x="322.527" y="401.208" style="fill:#EBEBEB;" width="8.693" height="0.25"/>
	<rect x="396.586" y="389.208" style="fill:#EBEBEB;" width="19.192" height="0.25"/>
	<rect x="52.459" y="390.888" style="fill:#EBEBEB;" width="43.193" height="0.25"/>
	<rect x="104.556" y="390.888" style="fill:#EBEBEB;" width="6.333" height="0.25"/>
	<rect x="131.471" y="395.111" style="fill:#EBEBEB;" width="93.676" height="0.25"/>
	<path style="fill:#EBEBEB;" d="M237.014,337.8H43.915c-3.147,0-5.708-2.561-5.708-5.708V60.66c0-3.147,2.561-5.708,5.708-5.708
		h193.099c3.146,0,5.707,2.561,5.707,5.708v271.432C242.721,335.239,240.16,337.8,237.014,337.8z M43.915,55.203
		c-3.01,0-5.458,2.448-5.458,5.458v271.432c0,3.01,2.448,5.458,5.458,5.458h193.099c3.009,0,5.457-2.448,5.457-5.458V60.66
		c0-3.009-2.448-5.458-5.457-5.458H43.915z"/>
	<path style="fill:#EBEBEB;" d="M453.31,337.8H260.212c-3.147,0-5.707-2.561-5.707-5.708V60.66c0-3.147,2.561-5.708,5.707-5.708
		H453.31c3.148,0,5.708,2.561,5.708,5.708v271.432C459.019,335.239,456.458,337.8,453.31,337.8z M260.212,55.203
		c-3.009,0-5.457,2.448-5.457,5.458v271.432c0,3.01,2.448,5.458,5.457,5.458H453.31c3.01,0,5.458-2.448,5.458-5.458V60.66
		c0-3.009-2.448-5.458-5.458-5.458H260.212z"/>
	<path style="fill:#F5F5F5;" d="M45.735,234.463c-10.889,56.314,4.467,114.669,4.467,114.669
		c132.409-0.028,263.841-0.055,396.25-0.083c3.852-38.522,6.548-78.109-3.653-115.397c3.876-3.995,3.29-11.519-1.156-14.832
		c-4.446-3.314-11.616-1.572-14.135,3.435c-2.741-4.46-8.366-6.836-13.38-5.652c-5.014,1.184-9.055,5.842-9.614,11.081
		c-2.462-5.232-8.417-8.486-14.031-7.667c-5.614,0.82-10.444,5.649-11.381,11.377c-3.488-5.05-11.634-5.684-15.827-1.233
		c-2.365-6.038-9.194-9.856-15.431-8.629c-6.238,1.227-11.199,7.365-11.211,13.871c-1.421-5.588-10.41-6.663-13.05-1.561
		c-0.595-5.849-6.244-10.654-11.966-10.179c-5.723,0.475-10.543,6.149-10.21,12.02c-9.204-8.176-24.551-7.686-33.242,1.06
		c-6.182-5.002-16.4-3.37-20.802,3.321c-6.461-6.431-17.599-7.111-24.761-1.512c-16.459-8.259-38.033-3.994-50.309,9.945
		c1.594-5.093-3.866-13.376-8.713-15.364c-17.312-7.1-25.748,3.956-25.956,8.175c-3.826-5.161-10.492-7.945-16.75-6.996
		s-11.85,5.594-14.051,11.669c1.46-9.839-5.036-20.267-14.362-23.057c-9.275-2.775-20.046,2.329-24.112,11.271
		c2.057-5.816-4.271-14.203-10.237-13.978C49.799,220.533,47.021,227.814,45.735,234.463z"/>
	<rect y="382.398" style="fill:#EBEBEB;" width="500" height="0.25"/>
	<g>
		<g>
			<path style="fill:#E0E0E0;" d="M249.645,81.234c-9.937-6.283-19.874-12.566-29.81-18.848c-0.665-0.42-1.853-0.11-1.853,0.485
				c0,5.731,0,11.461,0,17.192c-9.319-5.892-18.638-11.785-27.958-17.677c-0.665-0.42-1.853-0.11-1.853,0.485
				c0,5.731,0,11.461,0,17.192c-9.319-5.892-18.638-11.785-27.958-17.677c-0.665-0.42-1.853-0.11-1.853,0.485
				c0,5.731,0,11.461,0,17.192c-9.319-5.892-18.638-11.785-27.958-17.677c-0.665-0.42-1.852-0.11-1.852,0.485
				c0,5.731,0,11.461,0,17.192c-9.319-5.892-18.639-11.785-27.958-17.677c-0.665-0.42-1.853-0.11-1.853,0.485
				c0,5.731,0,11.461,0,17.192c-9.319-5.892-18.639-11.785-27.958-17.677c-0.665-0.42-1.853-0.11-1.853,0.485
				c0,5.731,0,11.461,0,17.192c-9.319-5.892-18.638-11.785-27.958-17.677c-0.989-0.625-2.524,0.345-1.535,0.97
				c9.937,6.283,19.874,12.566,29.81,18.848c0.006,0.003,0.011,0.005,0.017,0.009c0.004,0.003,0.009,0.005,0.013,0.007
				c0.367,0.218,0.803,0.226,1.157,0.115c0.358-0.083,0.64-0.278,0.66-0.584c0.001-0.007,0.003-0.014,0.003-0.022
				c0-0.004,0.002-0.007,0.002-0.01c0-5.731,0-11.461,0-17.192c9.319,5.892,18.639,11.785,27.958,17.677
				c0.005,0.003,0.011,0.005,0.017,0.009c0.004,0.003,0.009,0.005,0.013,0.007c0.367,0.218,0.803,0.226,1.157,0.115
				c0.358-0.083,0.64-0.278,0.66-0.584c0.001-0.007,0.003-0.014,0.003-0.022c0-0.004,0.002-0.007,0.002-0.01
				c0-5.731,0-11.461,0-17.192c9.319,5.892,18.639,11.785,27.958,17.677c0.005,0.003,0.011,0.005,0.017,0.009
				c0.004,0.003,0.009,0.005,0.013,0.007c0.367,0.218,0.803,0.226,1.157,0.115c0.358-0.083,0.641-0.278,0.66-0.584
				c0.001-0.007,0.003-0.014,0.003-0.022c0-0.004,0.002-0.007,0.002-0.01c0-5.731,0-11.461,0-17.192
				c9.319,5.892,18.639,11.785,27.958,17.677c0.006,0.003,0.011,0.005,0.017,0.009c0.004,0.003,0.009,0.005,0.013,0.007
				c0.367,0.218,0.803,0.226,1.157,0.115c0.358-0.083,0.641-0.278,0.66-0.584c0.001-0.007,0.003-0.014,0.003-0.022
				c0-0.004,0.002-0.007,0.002-0.01c0-5.731,0-11.461,0-17.192c9.319,5.892,18.639,11.785,27.958,17.677
				c0.006,0.003,0.011,0.005,0.017,0.009c0.004,0.003,0.009,0.005,0.014,0.007c0.367,0.218,0.803,0.226,1.157,0.115
				c0.358-0.083,0.641-0.278,0.66-0.584c0.001-0.007,0.003-0.014,0.003-0.021c0-0.004,0.002-0.007,0.002-0.01
				c0-5.731,0-11.461,0-17.192c9.319,5.892,18.638,11.785,27.958,17.677c0.005,0.003,0.011,0.005,0.016,0.009
				c0.005,0.003,0.01,0.005,0.014,0.007c0.367,0.218,0.803,0.226,1.157,0.114c0.358-0.083,0.64-0.278,0.66-0.584
				c0.001-0.007,0.003-0.014,0.003-0.022c0-0.004,0.002-0.007,0.002-0.01c0-5.731,0-11.461,0-17.192
				c9.319,5.892,18.638,11.785,27.958,17.677C249.099,82.83,250.634,81.86,249.645,81.234z"/>
			<path style="fill:#E0E0E0;" d="M250.505,62.871c0-0.556-0.746-1.029-1.628-1.029c-23.517,0-47.033,0-70.55,0
				c-37.465,0-74.93,0-112.396,0c-8.576,0-17.151,0-25.726,0c-0.88,0-1.628,0.472-1.628,1.029c0,6.283,0,12.566,0,18.848
				c0,0.556,0.746,1.029,1.628,1.029c23.517,0,47.034,0,70.55,0c37.465,0,74.93,0,112.396,0c8.576,0,17.151,0,25.727,0
				c0.478,0,0.841-0.11,1.101-0.275c0.02-0.01,0.036-0.022,0.055-0.033c0.01-0.007,0.021-0.013,0.031-0.02
				c0.265-0.165,0.441-0.396,0.441-0.701C250.505,75.436,250.505,69.154,250.505,62.871z M178.327,80.69
				c-37.465,0-74.93,0-112.396,0c-8.033,0-16.066,0-24.099,0c0-5.597,0-11.193,0-16.79c22.974,0,45.948,0,68.923,0
				c37.465,0,74.93,0,112.396,0c8.033,0,16.066,0,24.099,0c0,5.597,0,11.193,0,16.79C224.275,80.69,201.301,80.69,178.327,80.69z"/>
		</g>
		<g>
			<path style="fill:#E0E0E0;" d="M457.908,81.234c-9.937-6.283-19.874-12.566-29.81-18.848c-0.665-0.42-1.853-0.11-1.853,0.485
				c0,5.731,0,11.461,0,17.192c-9.319-5.892-18.638-11.785-27.958-17.677c-0.665-0.42-1.853-0.11-1.853,0.485
				c0,5.731,0,11.461,0,17.192c-9.319-5.892-18.638-11.785-27.958-17.677c-0.665-0.42-1.853-0.11-1.853,0.485
				c0,5.731,0,11.461,0,17.192c-9.319-5.892-18.638-11.785-27.958-17.677c-0.665-0.42-1.853-0.11-1.853,0.485
				c0,5.731,0,11.461,0,17.192c-9.319-5.892-18.638-11.785-27.958-17.677c-0.665-0.42-1.853-0.11-1.853,0.485
				c0,5.731,0,11.461,0,17.192c-9.319-5.892-18.638-11.785-27.958-17.677c-0.665-0.42-1.853-0.11-1.853,0.485
				c0,5.731,0,11.461,0,17.192c-9.319-5.892-18.638-11.785-27.958-17.677c-0.989-0.625-2.524,0.345-1.535,0.97
				c9.937,6.283,19.874,12.566,29.81,18.848c0.005,0.003,0.011,0.005,0.017,0.009c0.004,0.003,0.009,0.005,0.013,0.007
				c0.367,0.218,0.803,0.226,1.157,0.115c0.358-0.083,0.64-0.278,0.66-0.584c0.001-0.007,0.003-0.014,0.003-0.022
				c0-0.004,0.002-0.007,0.002-0.01c0-5.731,0-11.461,0-17.192c9.319,5.892,18.639,11.785,27.958,17.677
				c0.005,0.003,0.011,0.005,0.017,0.009c0.004,0.003,0.009,0.005,0.013,0.007c0.367,0.218,0.803,0.226,1.157,0.115
				c0.358-0.083,0.64-0.278,0.66-0.584c0.001-0.007,0.003-0.014,0.003-0.022c0-0.004,0.002-0.007,0.002-0.01
				c0-5.731,0-11.461,0-17.192c9.319,5.892,18.639,11.785,27.958,17.677c0.005,0.003,0.011,0.005,0.017,0.009
				c0.004,0.003,0.009,0.005,0.013,0.007c0.367,0.218,0.803,0.226,1.157,0.115c0.358-0.083,0.641-0.278,0.66-0.584
				c0.001-0.007,0.003-0.014,0.003-0.022c0-0.004,0.002-0.007,0.002-0.01c0-5.731,0-11.461,0-17.192
				c9.319,5.892,18.639,11.785,27.958,17.677c0.005,0.003,0.011,0.005,0.017,0.009c0.004,0.003,0.009,0.005,0.013,0.007
				c0.367,0.218,0.803,0.226,1.157,0.115c0.358-0.083,0.641-0.278,0.66-0.584c0.001-0.007,0.003-0.014,0.003-0.022
				c0-0.004,0.002-0.007,0.002-0.01c0-5.731,0-11.461,0-17.192c9.319,5.892,18.639,11.785,27.958,17.677
				c0.005,0.003,0.011,0.005,0.017,0.009c0.004,0.003,0.009,0.005,0.013,0.007c0.367,0.218,0.803,0.226,1.157,0.115
				c0.358-0.083,0.641-0.278,0.66-0.584c0.001-0.007,0.003-0.014,0.003-0.021c0-0.004,0.002-0.007,0.002-0.01
				c0-5.731,0-11.461,0-17.192c9.319,5.892,18.638,11.785,27.958,17.677c0.005,0.003,0.011,0.005,0.016,0.009
				c0.005,0.003,0.01,0.005,0.014,0.007c0.367,0.218,0.803,0.226,1.157,0.114c0.358-0.083,0.64-0.278,0.66-0.584
				c0.001-0.007,0.003-0.014,0.003-0.022c0-0.004,0.002-0.007,0.002-0.01c0-5.731,0-11.461,0-17.192
				c9.319,5.892,18.638,11.785,27.958,17.677C457.362,82.83,458.897,81.86,457.908,81.234z"/>
			<path style="fill:#E0E0E0;" d="M458.769,62.871c0-0.556-0.746-1.029-1.628-1.029c-23.517,0-47.033,0-70.55,0
				c-37.465,0-74.93,0-112.396,0c-8.576,0-17.151,0-25.726,0c-0.88,0-1.628,0.472-1.628,1.029c0,6.283,0,12.566,0,18.848
				c0,0.556,0.746,1.029,1.628,1.029c23.517,0,47.034,0,70.55,0c37.465,0,74.93,0,112.396,0c8.576,0,17.151,0,25.727,0
				c0.478,0,0.841-0.11,1.101-0.275c0.02-0.01,0.036-0.022,0.055-0.033c0.01-0.007,0.021-0.013,0.031-0.02
				c0.265-0.165,0.441-0.396,0.441-0.701C458.769,75.436,458.769,69.154,458.769,62.871z M386.591,80.69
				c-37.465,0-74.93,0-112.396,0c-8.033,0-16.066,0-24.099,0c0-5.597,0-11.193,0-16.79c22.974,0,45.948,0,68.923,0
				c37.465,0,74.93,0,112.396,0c8.033,0,16.066,0,24.099,0c0,5.597,0,11.193,0,16.79C432.539,80.69,409.565,80.69,386.591,80.69z"/>
		</g>
	</g>
	<g>
		<g>
			
				<rect x="116.402" y="79.705" transform="matrix(0.7748 -0.6322 0.6322 0.7748 -30.9331 94.3048)" style="fill:#E0E0E0;" width="0.999" height="21.731"/>
		</g>
		<g>
			
				<rect x="315.762" y="89.65" transform="matrix(0.4854 -0.8743 0.8743 0.4854 88.0187 329.8488)" style="fill:#E0E0E0;" width="16.93" height="1"/>
		</g>
		<g>
			<g>
				<path style="fill:#E6E6E6;" d="M320.715,96.323l2.928,41.086c0,0-59.106,8.458-98.548,8.458c-45,0-106.333-8.458-106.333-8.458
					l2.833-41.086c0,0,71.614,8.656,105.206,8.656C259.51,104.979,320.715,96.323,320.715,96.323z"/>
			</g>
		</g>
	</g>
	<g>
		<path style="fill:#E0E0E0;" d="M320.177,224.765c-0.088,0.344-0.274,0.757-0.629,0.758c-0.343,0-0.534-0.39-0.622-0.722
			c-0.535-2.036-0.218-4.281,0.86-6.091c1.002-1.68,1.023,1.109,1.008,1.619C320.75,221.825,320.547,223.314,320.177,224.765z"/>
		<g>
			<g>
				
					<rect x="310.821" y="302.694" transform="matrix(-1 -1.224647e-16 1.224647e-16 -1 625.1775 657.533)" style="fill:#E0E0E0;" width="3.536" height="52.144"/>
				<g>
					<path style="fill:#E0E0E0;" d="M300.447,302.694h40.635v-1.363c0-2.764-2.241-5.005-5.005-5.005h-35.631V302.694z"/>
					
						<rect x="333.547" y="302.694" transform="matrix(-1 -1.224647e-16 1.224647e-16 -1 670.6296 657.533)" style="fill:#E0E0E0;" width="3.536" height="52.144"/>
				</g>
			</g>
			<g>
				<polygon style="fill:#FAFAFA;" points="320.327,342.625 315.102,342.091 315.288,354.507 320.513,355.04 				"/>
				<path style="fill:#E0E0E0;" d="M314.067,354.111c-1.541,0.899-0.929,4.162-3.204,4.12c-0.958-0.013-3.085,3.189-0.911,3.62
					c2.174,0.431,5.339,0.505,6.944,0.601c0.186,0.013,0.369,0.012,0.549,0.001c2.359-0.151,4.074-2.337,3.979-4.698l-0.126-3.153
					c-0.002-0.177-0.173-0.323-0.382-0.327l-5.928-0.355C314.661,353.896,314.337,353.963,314.067,354.111z"/>
				<path style="fill:#FAFAFA;" d="M313.624,356.336c0.457,0.132,0.927,0.212,1.401,0.241c0.067,0.005,0.125-0.045,0.131-0.112
					c0.003-0.031-0.007-0.062-0.027-0.086c-0.125-0.16-1.245-1.601-1.939-1.538c-0.161,0.013-0.303,0.106-0.379,0.249
					c-0.14,0.201-0.161,0.461-0.056,0.682C312.963,356.063,313.273,356.264,313.624,356.336z M314.751,356.306
					c-0.958-0.104-1.634-0.345-1.775-0.646c-0.065-0.146-0.049-0.316,0.044-0.447c0.035-0.071,0.105-0.118,0.183-0.124
					C313.575,355.062,314.284,355.747,314.751,356.306z"/>
				<path style="fill:#FAFAFA;" d="M317.056,355.925c0.127-0.209,0.131-0.471,0.011-0.684c-0.061-0.149-0.194-0.256-0.353-0.284
					c-0.685-0.131-1.939,1.194-2.08,1.342c-0.022,0.022-0.035,0.052-0.035,0.083c-0.001,0.067,0.052,0.122,0.119,0.124
					c0.475,0.018,0.951-0.017,1.418-0.103C316.493,356.365,316.821,356.194,317.056,355.925z M316.678,355.203
					c0.078,0.013,0.143,0.067,0.17,0.141c0.079,0.139,0.079,0.31,0,0.449c-0.17,0.285-0.867,0.459-1.83,0.469
					C315.538,355.751,316.31,355.139,316.678,355.203z"/>
				<g>
					<polygon style="fill:#FAFAFA;" points="306.93,342.141 301.705,341.608 301.892,354.023 307.117,354.557 					"/>
					<path style="fill:#E0E0E0;" d="M300.671,353.628c-1.541,0.899-0.929,4.163-3.204,4.12c-0.958-0.013-3.085,3.189-0.911,3.62
						c2.174,0.431,5.339,0.505,6.944,0.602c0.186,0.012,0.369,0.012,0.549,0.001c2.359-0.151,4.074-2.337,3.979-4.698l-0.127-3.153
						c-0.002-0.177-0.173-0.323-0.382-0.327l-5.928-0.355C301.264,353.412,300.941,353.479,300.671,353.628z"/>
					<path style="fill:#FAFAFA;" d="M300.227,355.853c0.457,0.132,0.927,0.212,1.401,0.241c0.067,0.005,0.125-0.045,0.131-0.112
						c0.002-0.031-0.007-0.062-0.027-0.086c-0.126-0.16-1.245-1.601-1.939-1.538c-0.16,0.013-0.303,0.106-0.379,0.249
						c-0.14,0.201-0.161,0.461-0.056,0.682C299.567,355.579,299.877,355.781,300.227,355.853z M301.354,355.823
						c-0.958-0.104-1.634-0.345-1.775-0.646c-0.065-0.146-0.049-0.316,0.044-0.447c0.035-0.071,0.104-0.118,0.183-0.124
						C300.178,354.579,300.888,355.263,301.354,355.823z"/>
					<path style="fill:#FAFAFA;" d="M303.66,355.441c0.127-0.209,0.131-0.471,0.011-0.684c-0.061-0.149-0.194-0.256-0.353-0.284
						c-0.685-0.13-1.939,1.194-2.08,1.342c-0.022,0.022-0.035,0.052-0.035,0.083c-0.001,0.067,0.052,0.122,0.119,0.124
						c0.475,0.018,0.951-0.017,1.418-0.103C303.096,355.881,303.425,355.711,303.66,355.441z M303.282,354.72
						c0.078,0.013,0.143,0.067,0.17,0.141c0.079,0.139,0.079,0.31,0,0.449c-0.17,0.285-0.867,0.459-1.83,0.469
						C302.141,355.267,302.914,354.655,303.282,354.72z"/>
					<path style="fill:#E0E0E0;" d="M323.686,278.248c0,0,4.153,8.676,2.15,13.887c-2.266,5.892-3.761,4.235-13.59,4.112
						c1.909,16.941-2.595,48.919-2.595,48.919l-9.676-0.502c0,0-0.539-35.553-2.331-52.068
						c-1.238-11.454,10.663-14.567,10.663-14.567L323.686,278.248z"/>
				</g>
				<path style="opacity:0.1;enable-background:new    ;" d="M316.632,282.459c0,0-8.842-2.57-7.441,10.854
					c1.053,10.09,7.717,29.043,7.717,29.043L316.632,282.459z"/>
				<polygon style="opacity:0.1;enable-background:new    ;" points="327.452,296.818 327.452,302.694 322.639,302.694 
					322.083,296.327 				"/>
				<path style="fill:#EBEBEB;" d="M337.083,278.732c0,0,4.153,8.676,2.15,13.887c-2.266,5.892-3.761,4.235-13.59,4.112
					c1.909,16.941-2.594,48.919-2.594,48.919l-9.676-0.502c0,0-0.539-35.553-2.331-52.068
					c-1.238-11.454,10.663-14.567,10.663-14.567L337.083,278.732z"/>
				<path style="fill:#E0E0E0;" d="M309.191,236.313c-3.886,4.602-4.216,5.953-3.842,8.276c0.911,5.766,3.018,16.193,3.444,33.789
					l28.29,0.354c-0.011-8.428-0.447-17.718-1.474-23.911c-0.909-5.518-2.149-11.896-3.535-16.332
					c-0.704-2.261-2.834-3.772-5.201-3.688L309.191,236.313z"/>
				<g>
					<path style="fill:#FAFAFA;" d="M316.115,275.653l1.449,2.125l-5.844,1.664c0,0-2.859-4.701-0.617-5.786l1.479,0.245
						C313.854,274.101,315.374,274.471,316.115,275.653z"/>
					<polygon style="fill:#FAFAFA;" points="317.105,281.812 313.637,282.173 311.723,279.438 317.564,277.778 					"/>
					<g>
						<path style="fill:#E0E0E0;" d="M302.625,247.938c-3.472,4.27-4.587,12.489-3.783,15.518
							c1.412,5.319,7.801,11.029,12.684,13.566c1.65,0.857,0.904,0.516,2.111-0.898c1.327-1.555-1.163-4.077-2.538-5.591
							c-2.319-2.553-4.036-4.729-4.647-8.124c-0.383-2.128,0.288-4.284,0.832-6.377s0.953-4.378,0.094-6.362
							C306.518,247.686,302.625,247.938,302.625,247.938z"/>
					</g>
				</g>
				<path style="fill:#E0E0E0;" d="M311.874,257.706l-12.266-2.694c0.437-3.895,1.224-7.743,2.353-11.497
					c1.999-7.034,6.831-9.188,10.65-5.39C316.539,242.018,314.195,251.002,311.874,257.706z"/>
				<path style="opacity:0.1;enable-background:new    ;" d="M335.315,251.446c0,0,1.624,19.528-2.216,15.336
					c-1.865-2.036-9.564-23.987-1.656-25.867C334.609,246.074,335.148,249.792,335.315,251.446z"/>
				<g>
					<path style="fill:#FAFAFA;" d="M325.563,274.444l1.479-0.245c2.242,1.084-0.617,5.786-0.617,5.786l-5.844-1.664l1.449-2.125
						C322.77,275.013,324.289,274.643,325.563,274.444z"/>
					<polygon style="fill:#FAFAFA;" points="320.58,278.321 326.421,279.981 324.507,282.716 321.038,282.355 					"/>
					<g>
						<path style="fill:#E0E0E0;" d="M336.291,244.924c0,0,3.815,16.046,3.01,19.075c-1.412,5.319-7.801,11.029-12.684,13.566
							c-1.65,0.857-0.904,0.516-2.111-0.898c-1.327-1.555,1.163-4.077,2.538-5.591c2.319-2.553,4.036-4.729,4.647-8.124
							c0.383-2.128-0.288-4.284-0.832-6.377c-0.544-2.093-0.953-4.378-0.094-6.362S336.291,244.924,336.291,244.924z"/>
					</g>
				</g>
				<path style="fill:#E0E0E0;" d="M338.083,252.183l-7.588,2.79c-1.9-3.428-8.411-19.762-1.932-20.096
					C335.315,234.749,336.074,245.392,338.083,252.183z"/>
				<path style="fill:#E0E0E0;" d="M321.447,231.262c1.767,2.24,4.228-2.697,4.045-5.912
					C325.378,223.397,319.68,229.022,321.447,231.262z"/>
				<path style="fill:#F5F5F5;" d="M323.548,237.142c0.497,1.122,0.474,1.803-0.627,2.342c-2.247,1.211-4.822,1.671-7.35,1.312
					c-2.609-0.409-3.075-1.333-2.969-2.085c0.118-0.618,0.585-1.11,1.196-1.26c2.816-0.775,2.629-1.744,2.479-3.01
					c-0.051-0.571-0.204-1.128-0.453-1.644l4.491-3.5l3.303-2.57C322.761,229.897,322.114,233.966,323.548,237.142z"/>
				<path style="opacity:0.1;enable-background:new    ;" d="M315.807,232.78c0.022,0.023,0.041,0.049,0.055,0.077
					c0.203,0.502,0.337,1.029,0.398,1.566l0.046,0.325c1.55-0.555,3.356-2.213,3.515-3.752c0.046-0.45,0.057-0.903,0.032-1.355
					c-0.013-0.11-0.025-0.213-0.034-0.309l-2.908,2.594L315.807,232.78z"/>
				<path style="fill:#E0E0E0;" d="M312.739,223.212c-3.328,0.804-4.242-4.319-3.047-5.609
					C311.805,215.321,316.067,222.408,312.739,223.212z"/>
				<path style="fill:#F5F5F5;" d="M324.222,217.887c-1.195-3.739-5.195-5.802-8.934-4.607c-5.106,1.666-6.232,9.196-5.39,13.863
					c0.932,5.188,7.095,7.987,11.196,4.331c2.713-2.416,2.83-5.417,3.406-10.508C324.635,219.931,324.54,218.88,324.222,217.887z"/>
				<path style="fill:#F5F5F5;" d="M324.637,222.442c-1.378,0.17-2.384,1.898-2.506,3.193c-0.129,1.45,0.964,2.776,2.229,2.013
					c0.972-0.605,1.689-1.546,2.014-2.643C326.773,223.635,326.014,222.272,324.637,222.442z"/>
			</g>
		</g>
		<g>
			<path style="fill:#E0E0E0;" d="M327.055,219.076c0.142,2.824-2.419,5.355-5.152,6.08c0.838-1.531,1.061-3.333,0.777-5.055
				c-0.56-3.398-6.053-3.464-6.873-1.923c-0.6-1.154-3.391-0.952-4.358-0.081c-2.362,2.129-1.37,7.519-1.37,7.519
				c-1.318-1.777-2.449-3.754-2.843-5.931c-0.394-2.177,0.04-4.584,1.529-6.219c1.49-1.635,5.15-2.079,7.041-0.932
				C315.952,212.62,326.48,207.671,327.055,219.076z"/>
		</g>
	</g>
	<g>
		<g>
			<g>
				<rect x="74.979" y="302.694" style="fill:#E0E0E0;" width="3.536" height="52.144"/>
				<g>
					<path style="fill:#E0E0E0;" d="M88.888,302.694H48.253v-1.363c0-2.764,2.241-5.005,5.005-5.005h35.631V302.694z"/>
					<rect x="52.252" y="302.694" style="fill:#E0E0E0;" width="3.536" height="52.144"/>
				</g>
			</g>
			<g>
				<polygon style="fill:#FAFAFA;" points="69.008,342.625 74.233,342.091 74.047,354.507 68.822,355.04 				"/>
				<path style="fill:#E0E0E0;" d="M75.268,354.111c1.541,0.899,0.929,4.162,3.204,4.12c0.958-0.013,3.085,3.189,0.911,3.62
					c-2.174,0.431-5.339,0.505-6.943,0.601c-0.186,0.013-0.369,0.012-0.549,0.001c-2.359-0.151-4.074-2.337-3.979-4.698l0.126-3.153
					c0.002-0.177,0.173-0.323,0.382-0.327l5.928-0.355C74.674,353.896,74.998,353.963,75.268,354.111z"/>
				<path style="fill:#FAFAFA;" d="M76.579,355.772c0.106-0.221,0.085-0.481-0.056-0.682c-0.075-0.142-0.218-0.236-0.379-0.249
					c-0.694-0.063-1.813,1.378-1.939,1.538c-0.02,0.024-0.029,0.055-0.027,0.086c0.005,0.067,0.064,0.117,0.131,0.112
					c0.475-0.029,0.945-0.109,1.401-0.241C76.062,356.264,76.372,356.063,76.579,355.772z M76.133,355.091
					c0.079,0.005,0.149,0.052,0.183,0.124c0.092,0.131,0.109,0.3,0.044,0.447c-0.141,0.3-0.818,0.541-1.775,0.646
					C75.051,355.747,75.76,355.062,76.133,355.091z"/>
				<path style="fill:#FAFAFA;" d="M73.198,356.402c0.467,0.086,0.943,0.121,1.418,0.103c0.067-0.001,0.12-0.057,0.119-0.124
					c-0.001-0.031-0.013-0.061-0.035-0.083c-0.141-0.148-1.395-1.472-2.08-1.342c-0.159,0.028-0.292,0.135-0.353,0.284
					c-0.12,0.214-0.116,0.475,0.011,0.684C72.514,356.194,72.842,356.365,73.198,356.402z M74.316,356.262
					c-0.963-0.01-1.66-0.184-1.83-0.469c-0.079-0.139-0.079-0.31,0-0.449c0.027-0.074,0.092-0.128,0.17-0.141
					C73.025,355.139,73.798,355.751,74.316,356.262z"/>
				<g>
					<polygon style="fill:#FAFAFA;" points="82.405,342.141 87.63,341.608 87.444,354.023 82.218,354.557 					"/>
					<path style="fill:#E0E0E0;" d="M88.665,353.628c1.541,0.899,0.929,4.163,3.204,4.12c0.958-0.013,3.085,3.189,0.911,3.62
						c-2.174,0.431-5.339,0.505-6.944,0.602c-0.186,0.012-0.369,0.012-0.549,0.001c-2.359-0.151-4.074-2.337-3.979-4.698
						l0.127-3.153c0.002-0.177,0.173-0.323,0.382-0.327l5.928-0.355C88.071,353.412,88.394,353.479,88.665,353.628z"/>
					<path style="fill:#FAFAFA;" d="M89.976,355.288c0.106-0.221,0.085-0.482-0.056-0.682c-0.075-0.142-0.218-0.236-0.379-0.249
						c-0.694-0.063-1.813,1.378-1.939,1.538c-0.02,0.024-0.029,0.055-0.027,0.086c0.005,0.067,0.064,0.117,0.131,0.112
						c0.474-0.029,0.944-0.109,1.401-0.241C89.458,355.781,89.768,355.579,89.976,355.288z M89.529,354.607
						c0.079,0.005,0.148,0.053,0.183,0.124c0.093,0.131,0.109,0.3,0.044,0.447c-0.141,0.3-0.818,0.541-1.775,0.646
						C88.447,355.263,89.157,354.579,89.529,354.607z"/>
					<path style="fill:#FAFAFA;" d="M86.594,355.918c0.467,0.086,0.943,0.121,1.418,0.103c0.067-0.001,0.12-0.057,0.119-0.124
						c-0.001-0.031-0.013-0.061-0.035-0.083c-0.141-0.147-1.395-1.472-2.08-1.342c-0.159,0.028-0.292,0.135-0.353,0.284
						c-0.12,0.213-0.116,0.475,0.011,0.684C85.91,355.711,86.239,355.881,86.594,355.918z M87.713,355.779
						c-0.963-0.01-1.66-0.184-1.83-0.469c-0.079-0.139-0.079-0.31,0-0.449c0.027-0.074,0.092-0.128,0.17-0.141
						C86.421,354.655,87.194,355.267,87.713,355.779z"/>
					<path style="fill:#E0E0E0;" d="M65.649,278.248c0,0-4.153,8.676-2.15,13.887c2.266,5.892,3.761,4.235,13.59,4.112
						c-1.909,16.941,2.594,48.919,2.594,48.919l9.676-0.502c0,0,0.538-35.553,2.331-52.068
						c1.238-11.454-10.663-14.567-10.663-14.567L65.649,278.248z"/>
				</g>
				<polygon style="opacity:0.1;enable-background:new    ;" points="61.883,296.818 61.883,302.694 66.696,302.694 67.252,296.327 
									"/>
				<path style="fill:#E6E6E6;" d="M52.252,278.732c0,0-4.153,8.676-2.149,13.887c2.266,5.892,3.761,4.235,13.59,4.112
					c-1.909,16.941,2.594,48.919,2.594,48.919l9.676-0.502c0,0,0.539-35.553,2.331-52.068c1.238-11.454-10.663-14.567-10.663-14.567
					L52.252,278.732z"/>
				<path style="fill:#E0E0E0;" d="M80.144,236.313c3.886,4.602,4.216,5.953,3.842,8.276c-0.911,5.766-3.017,16.193-3.444,33.789
					l-28.29,0.354c0.011-8.428,0.447-17.718,1.474-23.911c0.909-5.518,2.149-11.896,3.535-16.332
					c0.704-2.261,2.834-3.772,5.201-3.688L80.144,236.313z"/>
				<g>
					<path style="fill:#FAFAFA;" d="M73.22,275.653l-1.449,2.125l5.844,1.664c0,0,2.859-4.701,0.617-5.786l-1.479,0.245
						C75.481,274.101,73.962,274.471,73.22,275.653z"/>
					<polygon style="fill:#FAFAFA;" points="72.23,281.812 75.699,282.173 77.612,279.438 71.771,277.778 					"/>
					<g>
						<path style="fill:#FAFAFA;" d="M86.71,247.938c3.472,4.27,4.588,12.489,3.783,15.518c-1.412,5.319-7.801,11.029-12.684,13.566
							c-1.65,0.857-0.904,0.516-2.111-0.898c-1.327-1.555,1.163-4.077,2.538-5.591c2.319-2.553,4.036-4.729,4.647-8.124
							c0.383-2.128-0.288-4.284-0.832-6.377c-0.544-2.093-0.953-4.378-0.094-6.362C82.817,247.686,86.71,247.938,86.71,247.938z"/>
					</g>
				</g>
				<path style="fill:#E0E0E0;" d="M77.461,257.706l12.266-2.694c-0.437-3.895-1.224-7.743-2.353-11.497
					c-1.999-7.034-6.831-9.188-10.65-5.39C72.796,242.018,75.14,251.002,77.461,257.706z"/>
				<path style="opacity:0.1;enable-background:new    ;" d="M54.936,256.974c0,0,6.762,4.675,8.19-0.827
					c1.428-5.502,5.445-15.232-2.463-17.112c-3.167,5.159-4.425,8.992-5.133,13.336C55.304,253.766,55.103,255.32,54.936,256.974z"
					/>
				<g>
					<path style="fill:#FAFAFA;" d="M63.772,274.444l-1.479-0.245c-2.242,1.084,0.617,5.786,0.617,5.786l5.844-1.664l-1.449-2.125
						C66.565,275.013,65.046,274.643,63.772,274.444z"/>
					<polygon style="fill:#FAFAFA;" points="68.755,278.321 62.915,279.981 64.828,282.716 68.297,282.355 					"/>
					<g>
						<path style="fill:#FAFAFA;" d="M53.817,248.481c-3.472,4.27-4.588,12.489-3.783,15.518
							c1.412,5.319,7.801,11.029,12.684,13.566c1.65,0.857,0.904,0.516,2.111-0.898c1.328-1.555-1.163-4.077-2.538-5.591
							c-2.319-2.553-4.036-4.729-4.647-8.124c-0.383-2.128,0.288-4.284,0.832-6.377c0.544-2.093,0.953-4.378,0.094-6.362
							C57.71,248.229,53.817,248.481,53.817,248.481z"/>
					</g>
				</g>
				<path style="fill:#E0E0E0;" d="M50.048,251.249l11.566,4.898c1.901-3.428,3.486-7.021,4.737-10.735
					c2.427-6.868-0.253-11.413-5.578-10.535C55.327,235.779,52.056,244.458,50.048,251.249z"/>
				<path style="fill:#F5F5F5;" d="M65.787,237.142c-0.497,1.122-0.474,1.803,0.627,2.342c2.247,1.211,4.822,1.671,7.349,1.312
					c2.609-0.409,3.075-1.333,2.969-2.085c-0.118-0.618-0.585-1.11-1.196-1.26c-2.816-0.775-2.629-1.744-2.479-3.01
					c0.051-0.571,0.204-1.128,0.453-1.644l-4.491-3.5l-3.303-2.57C66.574,229.897,67.221,233.966,65.787,237.142z"/>
				<path style="opacity:0.1;enable-background:new    ;" d="M73.528,232.78c-0.023,0.023-0.041,0.049-0.055,0.077
					c-0.203,0.502-0.337,1.029-0.397,1.566l-0.046,0.325c-1.55-0.555-3.356-2.213-3.515-3.752c-0.046-0.45-0.057-0.903-0.032-1.355
					c0.013-0.11,0.024-0.213,0.034-0.309l2.908,2.594L73.528,232.78z"/>
				<path style="fill:#F5F5F5;" d="M65.113,217.887c1.195-3.739,5.195-5.802,8.934-4.607c5.106,1.666,6.232,9.196,5.39,13.863
					c-0.932,5.188-7.095,7.987-11.196,4.331c-2.713-2.416-2.83-5.417-3.407-10.508C64.7,219.931,64.795,218.88,65.113,217.887z"/>
				<path style="fill:#F5F5F5;" d="M64.698,222.442c1.378,0.17,2.384,1.898,2.506,3.193c0.129,1.45-0.964,2.776-2.229,2.013
					c-0.972-0.605-1.689-1.546-2.015-2.643C62.562,223.635,63.321,222.272,64.698,222.442z"/>
			</g>
		</g>
		<path style="fill:#E0E0E0;" d="M70.422,228.626c1.493,0.731,3.082-0.355,4.095-1.672c0.548,0.805,1.7,1.296,2.639,1.556
			c0.202,0.056,0.426,0.095,0.616,0.005c0.44-0.207,0.348-0.855,0.164-1.306c-0.3-0.736-0.692-1.485-1.366-1.905
			c-0.675-0.42-1.7-0.366-2.127,0.305c0,0-0.388-0.61-1.099-0.632c-0.503-0.016-1.182,0.477-1.545,0.779
			C71.563,225.951,69.512,228.18,70.422,228.626z"/>
	</g>
	<g>
		<g>
			<rect x="128.808" y="302.694" style="fill:#E0E0E0;" width="3.536" height="52.144"/>
			<g>
				<path style="fill:#E0E0E0;" d="M142.717,302.694h-40.635v-1.363c0-2.764,2.241-5.005,5.005-5.005h35.631V302.694z"/>
				<rect x="106.082" y="302.694" style="fill:#E0E0E0;" width="3.536" height="52.144"/>
			</g>
		</g>
		<g>
			<polygon style="fill:#FAFAFA;" points="122.837,342.625 128.063,342.091 127.876,354.507 122.651,355.04 			"/>
			<path style="fill:#E0E0E0;" d="M129.097,354.111c1.541,0.899,0.929,4.162,3.204,4.12c0.958-0.013,3.085,3.189,0.911,3.62
				c-2.174,0.431-5.339,0.505-6.944,0.601c-0.186,0.013-0.369,0.012-0.549,0.001c-2.359-0.151-4.074-2.337-3.979-4.698l0.126-3.153
				c0.002-0.177,0.173-0.323,0.382-0.327l5.928-0.355C128.503,353.896,128.827,353.963,129.097,354.111z"/>
			<path style="fill:#FAFAFA;" d="M130.409,355.772c0.106-0.221,0.085-0.481-0.056-0.682c-0.075-0.142-0.218-0.236-0.379-0.249
				c-0.694-0.063-1.813,1.378-1.939,1.538c-0.02,0.024-0.029,0.055-0.027,0.086c0.005,0.067,0.064,0.117,0.131,0.112
				c0.475-0.029,0.944-0.109,1.401-0.241C129.891,356.264,130.201,356.063,130.409,355.772z M129.962,355.091
				c0.079,0.005,0.148,0.052,0.183,0.124c0.093,0.131,0.109,0.3,0.044,0.447c-0.141,0.3-0.818,0.541-1.775,0.646
				C128.88,355.747,129.589,355.062,129.962,355.091z"/>
			<path style="fill:#FAFAFA;" d="M127.027,356.402c0.467,0.086,0.943,0.121,1.418,0.103c0.067-0.001,0.12-0.057,0.119-0.124
				c-0.001-0.031-0.013-0.061-0.035-0.083c-0.141-0.148-1.395-1.472-2.08-1.342c-0.159,0.028-0.292,0.135-0.353,0.284
				c-0.12,0.214-0.116,0.475,0.011,0.684C126.343,356.194,126.671,356.365,127.027,356.402z M128.146,356.262
				c-0.963-0.01-1.66-0.184-1.83-0.469c-0.079-0.139-0.079-0.31,0-0.449c0.027-0.074,0.092-0.128,0.17-0.141
				C126.854,355.139,127.627,355.751,128.146,356.262z"/>
			<g>
				<polygon style="fill:#FAFAFA;" points="136.234,342.141 141.459,341.608 141.273,354.023 136.048,354.557 				"/>
				<path style="fill:#E0E0E0;" d="M142.494,353.628c1.541,0.899,0.929,4.163,3.204,4.12c0.958-0.013,3.085,3.189,0.911,3.62
					c-2.174,0.431-5.339,0.505-6.943,0.602c-0.186,0.012-0.369,0.012-0.549,0.001c-2.359-0.151-4.074-2.337-3.979-4.698l0.126-3.153
					c0.002-0.177,0.173-0.323,0.382-0.327l5.928-0.355C141.9,353.412,142.223,353.479,142.494,353.628z"/>
				<path style="fill:#FAFAFA;" d="M143.805,355.288c0.106-0.221,0.085-0.482-0.056-0.682c-0.075-0.142-0.218-0.236-0.379-0.249
					c-0.694-0.063-1.813,1.378-1.939,1.538c-0.02,0.024-0.029,0.055-0.027,0.086c0.005,0.067,0.064,0.117,0.131,0.112
					c0.475-0.029,0.945-0.109,1.401-0.241C143.287,355.781,143.598,355.579,143.805,355.288z M143.358,354.607
					c0.079,0.005,0.149,0.053,0.183,0.124c0.092,0.131,0.109,0.3,0.044,0.447c-0.141,0.3-0.818,0.541-1.775,0.646
					C142.277,355.263,142.986,354.579,143.358,354.607z"/>
				<path style="fill:#FAFAFA;" d="M140.423,355.918c0.468,0.086,0.943,0.121,1.418,0.103c0.067-0.001,0.12-0.057,0.119-0.124
					c-0.001-0.031-0.013-0.061-0.035-0.083c-0.141-0.147-1.395-1.472-2.08-1.342c-0.159,0.028-0.292,0.135-0.353,0.284
					c-0.12,0.213-0.115,0.475,0.011,0.684C139.74,355.711,140.068,355.881,140.423,355.918z M141.542,355.779
					c-0.963-0.01-1.66-0.184-1.83-0.469c-0.079-0.139-0.079-0.31,0-0.449c0.028-0.074,0.092-0.128,0.17-0.141
					C140.251,354.655,141.023,355.267,141.542,355.779z"/>
				<path style="fill:#E0E0E0;" d="M119.478,278.248c0,0-4.153,8.676-2.15,13.887c2.266,5.892,3.761,4.235,13.59,4.112
					c-1.909,16.941,2.594,48.919,2.594,48.919l9.676-0.502c0,0,0.539-35.553,2.331-52.068c1.238-11.454-10.663-14.567-10.663-14.567
					L119.478,278.248z"/>
				<polygon style="fill:#E0E0E0;" points="132.141,343.868 146.288,341.94 146.183,348.615 133.27,350.075 				"/>
			</g>
			<polygon style="opacity:0.1;enable-background:new    ;" points="115.712,296.818 115.712,302.694 120.525,302.694 
				121.081,296.327 			"/>
			<path style="fill:#E6E6E6;" d="M106.082,278.732c0,0-4.153,8.676-2.15,13.887c2.266,5.892,3.761,4.235,13.59,4.112
				c-1.909,16.941,2.594,48.919,2.594,48.919l9.676-0.502c0,0,0.539-35.553,2.331-52.068c1.238-11.454-10.663-14.567-10.663-14.567
				L106.082,278.732z"/>
			<polygon style="fill:#E0E0E0;" points="118.745,344.352 132.892,342.424 132.786,349.098 119.873,350.558 			"/>
			<path style="fill:#E0E0E0;" d="M133.973,236.313c3.886,4.602,4.216,5.953,3.842,8.276c-0.911,5.766-3.018,16.193-3.444,33.789
				l-28.29,0.354c0.011-8.428,0.447-17.718,1.474-23.911c0.909-5.518,2.149-11.896,3.535-16.332
				c0.704-2.261,2.834-3.772,5.201-3.688L133.973,236.313z"/>
			<g>
				<path style="fill:#FAFAFA;" d="M127.05,275.653l-1.449,2.125l5.844,1.664c0,0,2.859-4.701,0.617-5.786l-1.479,0.245
					C129.31,274.101,127.791,274.471,127.05,275.653z"/>
				<polygon style="fill:#FAFAFA;" points="126.059,281.812 129.528,282.173 131.442,279.438 125.601,277.778 				"/>
				<g>
					<path style="fill:#FAFAFA;" d="M140.539,247.938c3.472,4.27,4.588,12.489,3.783,15.518
						c-1.412,5.319-7.801,11.029-12.684,13.566c-1.65,0.857-0.904,0.516-2.111-0.898c-1.327-1.555,1.163-4.077,2.538-5.591
						c2.319-2.553,4.036-4.729,4.647-8.124c0.383-2.128-0.288-4.284-0.831-6.377c-0.544-2.093-0.953-4.378-0.094-6.362
						C136.646,247.686,140.539,247.938,140.539,247.938z"/>
				</g>
			</g>
			<path style="fill:#E0E0E0;" d="M131.29,257.706l12.266-2.694c-0.437-3.895-1.225-7.743-2.353-11.497
				c-1.999-7.034-6.831-9.188-10.65-5.39C126.626,242.018,128.969,251.002,131.29,257.706z"/>
			<path style="opacity:0.1;enable-background:new    ;" d="M108.765,256.974c0,0,6.762,4.675,8.19-0.827
				c1.428-5.502,5.445-15.232-2.463-17.112c-3.166,5.159-4.425,8.992-5.133,13.336C109.133,253.766,108.932,255.32,108.765,256.974z
				"/>
			<g>
				<path style="fill:#FAFAFA;" d="M117.602,274.444l-1.479-0.245c-2.242,1.084,0.617,5.786,0.617,5.786l5.844-1.664l-1.449-2.125
					C120.395,275.013,118.875,274.643,117.602,274.444z"/>
				<polygon style="fill:#FAFAFA;" points="122.585,278.321 116.744,279.981 118.657,282.716 122.126,282.355 				"/>
				<g>
					<path style="fill:#FAFAFA;" d="M107.646,248.481c-3.472,4.27-4.588,12.489-3.783,15.518
						c1.412,5.319,7.801,11.029,12.684,13.566c1.65,0.857,0.904,0.516,2.111-0.898c1.327-1.555-1.163-4.077-2.538-5.591
						c-2.319-2.553-4.036-4.729-4.647-8.124c-0.383-2.128,0.288-4.284,0.831-6.377c0.544-2.093,0.953-4.378,0.094-6.362
						C111.539,248.229,107.646,248.481,107.646,248.481z"/>
				</g>
			</g>
			<path style="fill:#E0E0E0;" d="M103.877,251.249l11.566,4.898c1.9-3.428,3.486-7.021,4.737-10.735
				c2.427-6.868-0.253-11.413-5.577-10.535C109.157,235.779,105.885,244.458,103.877,251.249z"/>
			<path style="fill:#E0E0E0;" d="M121.718,231.262c-1.766,2.24-4.228-2.697-4.045-5.912
				C117.786,223.397,123.484,229.022,121.718,231.262z"/>
			<path style="fill:#F5F5F5;" d="M132.416,238.27c-0.326-1.028-1.126-1.839-1.991-2.483c-2.047-1.525-4.613-2.339-7.165-2.274
				c-1.174,0.03-2.375,0.237-3.503-0.09l0.653,0.514c-0.595-0.314-1.371-0.034-1.804,0.481c-0.433,0.515-0.593,1.204-0.678,1.872
				c-0.379,2.98,0.512,6.1,2.408,8.43c0.482-1.181,1.715-2.014,2.991-2.022c1.276-0.008,2.518,0.811,3.015,1.986
				c0.107-0.998,0.909-1.881,1.892-2.084c0.983-0.203,2.069,0.291,2.562,1.165C131.88,242.112,133.013,240.157,132.416,238.27z"/>
			<path style="fill:#EBEBEB;" d="M119.616,237.142c-0.497,1.122-0.474,1.803,0.627,2.342c2.247,1.211,4.822,1.671,7.349,1.312
				c2.609-0.409,3.075-1.333,2.969-2.085c-0.118-0.618-0.585-1.11-1.196-1.26c-2.817-0.775-2.629-1.744-2.479-3.01
				c0.051-0.571,0.204-1.128,0.453-1.644l-4.491-3.5l-3.303-2.57C120.404,229.897,121.05,233.966,119.616,237.142z"/>
			<path style="opacity:0.1;enable-background:new    ;" d="M127.357,232.78c-0.022,0.023-0.041,0.049-0.055,0.077
				c-0.203,0.502-0.337,1.029-0.397,1.566l-0.046,0.325c-1.55-0.555-3.356-2.213-3.515-3.752c-0.046-0.45-0.057-0.903-0.032-1.355
				c0.013-0.11,0.025-0.213,0.034-0.309l2.908,2.594L127.357,232.78z"/>
			<path style="fill:#E0E0E0;" d="M130.426,223.212c3.328,0.804,4.242-4.319,3.047-5.609
				C131.36,215.321,127.097,222.408,130.426,223.212z"/>
			<path style="fill:#F5F5F5;" d="M118.942,217.887c1.195-3.739,5.195-5.802,8.934-4.607c5.106,1.666,6.232,9.196,5.39,13.863
				c-0.932,5.188-7.095,7.987-11.196,4.331c-2.713-2.416-2.83-5.417-3.407-10.508C118.53,219.931,118.625,218.88,118.942,217.887z"
				/>
			<path style="fill:#E0E0E0;" d="M116.835,214.091c-1.039-2.709,4.127-5.266,8.709-3.053c2.713,1.324,6.318-0.559,5.201-1.636
				c3.92-0.893,6.342,3.298,4.187,7.538c-1.865,3.674-7.577,2.029-12.646,1.068c1.327,2.733-1.492,8.444-3.915,6.688
				C113.051,220.839,113.873,213.949,116.835,214.091z"/>
			<path style="fill:#E0E0E0;" d="M118.156,209.785c-2.072,1.585-1.823,4.495-0.557,4.902
				C114.292,213.28,116.029,210.835,118.156,209.785z"/>
			<path style="fill:#F5F5F5;" d="M118.527,222.442c1.378,0.17,2.384,1.898,2.506,3.193c0.129,1.45-0.964,2.776-2.229,2.013
				c-0.972-0.605-1.689-1.546-2.014-2.643C116.391,223.635,117.15,222.272,118.527,222.442z"/>
		</g>
	</g>
	<g>
		<g>
			<rect x="181.061" y="302.694" style="fill:#E0E0E0;" width="3.536" height="52.144"/>
			<g>
				<path style="fill:#E0E0E0;" d="M194.971,302.694h-40.635v-1.363c0-2.764,2.241-5.005,5.005-5.005h35.631V302.694z"/>
				<rect x="158.335" y="302.694" style="fill:#E0E0E0;" width="3.536" height="52.144"/>
			</g>
		</g>
		<g>
			<polygon style="fill:#FAFAFA;" points="175.09,342.625 180.316,342.091 180.129,354.507 174.904,355.04 			"/>
			<path style="fill:#E0E0E0;" d="M181.35,354.111c1.541,0.899,0.929,4.162,3.204,4.12c0.958-0.013,3.085,3.189,0.911,3.62
				c-2.174,0.431-5.339,0.505-6.944,0.601c-0.186,0.013-0.369,0.012-0.549,0.001c-2.359-0.151-4.074-2.337-3.979-4.698l0.126-3.153
				c0.002-0.177,0.173-0.323,0.382-0.327l5.928-0.355C180.757,353.896,181.08,353.963,181.35,354.111z"/>
			<path style="fill:#FAFAFA;" d="M182.662,355.772c0.106-0.221,0.085-0.481-0.056-0.682c-0.075-0.142-0.218-0.236-0.379-0.249
				c-0.694-0.063-1.813,1.378-1.939,1.538c-0.02,0.024-0.029,0.055-0.027,0.086c0.005,0.067,0.064,0.117,0.131,0.112
				c0.475-0.029,0.944-0.109,1.401-0.241C182.144,356.264,182.454,356.063,182.662,355.772z M182.215,355.091
				c0.079,0.005,0.148,0.052,0.183,0.124c0.093,0.131,0.109,0.3,0.044,0.447c-0.141,0.3-0.818,0.541-1.775,0.646
				C181.133,355.747,181.842,355.062,182.215,355.091z"/>
			<path style="fill:#FAFAFA;" d="M179.28,356.402c0.467,0.086,0.943,0.121,1.418,0.103c0.067-0.001,0.12-0.057,0.119-0.124
				c-0.001-0.031-0.013-0.061-0.035-0.083c-0.141-0.148-1.395-1.472-2.08-1.342c-0.159,0.028-0.292,0.135-0.353,0.284
				c-0.12,0.214-0.116,0.475,0.011,0.684C178.596,356.194,178.924,356.365,179.28,356.402z M180.399,356.262
				c-0.963-0.01-1.66-0.184-1.83-0.469c-0.079-0.139-0.079-0.31,0-0.449c0.027-0.074,0.092-0.128,0.17-0.141
				C179.107,355.139,179.88,355.751,180.399,356.262z"/>
			<g>
				<polygon style="fill:#FAFAFA;" points="188.487,342.141 193.712,341.608 193.526,354.023 188.301,354.557 				"/>
				<path style="fill:#E0E0E0;" d="M194.747,353.628c1.541,0.899,0.929,4.163,3.204,4.12c0.958-0.013,3.085,3.189,0.911,3.62
					c-2.174,0.431-5.339,0.505-6.944,0.602c-0.186,0.012-0.369,0.012-0.549,0.001c-2.359-0.151-4.074-2.337-3.979-4.698l0.126-3.153
					c0.002-0.177,0.173-0.323,0.382-0.327l5.928-0.355C194.153,353.412,194.477,353.479,194.747,353.628z"/>
				<path style="fill:#FAFAFA;" d="M196.058,355.288c0.106-0.221,0.085-0.482-0.056-0.682c-0.075-0.142-0.218-0.236-0.379-0.249
					c-0.694-0.063-1.813,1.378-1.939,1.538c-0.02,0.024-0.029,0.055-0.027,0.086c0.005,0.067,0.064,0.117,0.131,0.112
					c0.475-0.029,0.945-0.109,1.401-0.241C195.54,355.781,195.851,355.579,196.058,355.288z M195.611,354.607
					c0.079,0.005,0.149,0.053,0.183,0.124c0.092,0.131,0.109,0.3,0.044,0.447c-0.141,0.3-0.818,0.541-1.775,0.646
					C194.53,355.263,195.239,354.579,195.611,354.607z"/>
				<path style="fill:#FAFAFA;" d="M192.677,355.918c0.467,0.086,0.943,0.121,1.418,0.103c0.067-0.001,0.12-0.057,0.119-0.124
					c-0.001-0.031-0.013-0.061-0.035-0.083c-0.141-0.147-1.395-1.472-2.08-1.342c-0.158,0.028-0.292,0.135-0.352,0.284
					c-0.12,0.213-0.116,0.475,0.011,0.684C191.993,355.711,192.321,355.881,192.677,355.918z M193.795,355.779
					c-0.963-0.01-1.66-0.184-1.83-0.469c-0.079-0.139-0.079-0.31,0-0.449c0.028-0.074,0.092-0.128,0.17-0.141
					C192.504,354.655,193.276,355.267,193.795,355.779z"/>
				<path style="fill:#E0E0E0;" d="M171.731,278.248c0,0-4.153,8.676-2.15,13.887c2.266,5.892,3.761,4.235,13.59,4.112
					c-1.909,16.941,2.594,48.919,2.594,48.919l9.676-0.502c0,0,0.539-35.553,2.331-52.068c1.238-11.454-10.663-14.567-10.663-14.567
					L171.731,278.248z"/>
				<polygon style="fill:#E0E0E0;" points="184.394,343.868 198.541,341.94 198.436,348.615 185.523,350.075 				"/>
			</g>
			<path style="opacity:0.1;enable-background:new    ;" d="M178.786,282.459c0,0,8.842-2.57,7.441,10.854
				c-1.053,10.09-7.717,29.043-7.717,29.043L178.786,282.459z"/>
			<polygon style="opacity:0.1;enable-background:new    ;" points="167.965,296.818 167.965,302.694 172.779,302.694 
				173.334,296.327 			"/>
			<path style="fill:#E0E0E0;" d="M158.335,278.732c0,0-4.153,8.676-2.15,13.887c2.266,5.892,3.761,4.235,13.59,4.112
				c-1.909,16.941,2.594,48.919,2.594,48.919l9.676-0.502c0,0,0.539-35.553,2.332-52.068c1.238-11.454-10.663-14.567-10.663-14.567
				L158.335,278.732z"/>
			<polygon style="fill:#E0E0E0;" points="170.998,344.352 185.145,342.424 185.039,349.098 172.126,350.558 			"/>
			<path style="fill:#E0E0E0;" d="M186.227,236.313c3.886,4.602,4.216,5.953,3.842,8.276c-0.911,5.766-3.018,16.193-3.444,33.789
				l-28.29,0.354c0.011-8.428,0.447-17.718,1.474-23.911c0.909-5.518,2.149-11.896,3.535-16.332
				c0.704-2.261,2.834-3.772,5.201-3.688L186.227,236.313z"/>
			<g>
				<path style="fill:#FAFAFA;" d="M179.303,275.653l-1.449,2.125l5.844,1.664c0,0,2.859-4.701,0.617-5.786l-1.479,0.245
					C181.563,274.101,180.044,274.471,179.303,275.653z"/>
				<polygon style="fill:#FAFAFA;" points="178.312,281.812 181.781,282.173 183.695,279.438 177.854,277.778 				"/>
				<g>
					<path style="fill:#FAFAFA;" d="M192.792,247.938c3.472,4.27,4.588,12.489,3.783,15.518
						c-1.412,5.319-7.801,11.029-12.684,13.566c-1.65,0.857-0.904,0.516-2.111-0.898c-1.327-1.555,1.163-4.077,2.538-5.591
						c2.319-2.553,4.036-4.729,4.647-8.124c0.383-2.128-0.288-4.284-0.831-6.377c-0.544-2.093-0.953-4.378-0.094-6.362
						C188.9,247.686,192.792,247.938,192.792,247.938z"/>
				</g>
			</g>
			<path style="fill:#E0E0E0;" d="M183.543,257.706l12.266-2.694c-0.437-3.895-1.225-7.743-2.353-11.497
				c-1.999-7.034-6.831-9.188-10.65-5.39C178.879,242.018,181.222,251.002,183.543,257.706z"/>
			<path style="opacity:0.1;enable-background:new    ;" d="M161.018,256.974c0,0,6.762,4.675,8.19-0.827
				c1.428-5.502,5.445-15.232-2.463-17.112c-3.167,5.159-4.425,8.992-5.133,13.336C161.386,253.766,161.185,255.32,161.018,256.974z
				"/>
			<g>
				<path style="fill:#FAFAFA;" d="M169.855,274.444l-1.479-0.245c-2.242,1.084,0.617,5.786,0.617,5.786l5.844-1.664l-1.449-2.125
					C172.648,275.013,171.128,274.643,169.855,274.444z"/>
				<polygon style="fill:#FAFAFA;" points="174.838,278.321 168.997,279.981 170.911,282.716 174.379,282.355 				"/>
				<g>
					<path style="fill:#FAFAFA;" d="M159.9,248.481c-3.472,4.27-4.588,12.489-3.783,15.518c1.412,5.319,7.801,11.029,12.684,13.566
						c1.65,0.857,0.904,0.516,2.111-0.898c1.327-1.555-1.163-4.077-2.538-5.591c-2.319-2.553-4.036-4.729-4.647-8.124
						c-0.383-2.128,0.288-4.284,0.832-6.377c0.544-2.093,0.953-4.378,0.094-6.362C163.792,248.229,159.9,248.481,159.9,248.481z"/>
				</g>
			</g>
			<path style="fill:#E0E0E0;" d="M156.13,251.249l11.566,4.898c1.9-3.428,3.486-7.021,4.737-10.735
				c2.427-6.868-0.253-11.413-5.577-10.535C161.41,235.779,158.138,244.458,156.13,251.249z"/>
			<path style="fill:#E0E0E0;" d="M173.971,231.262c-1.767,2.24-4.228-2.697-4.045-5.912
				C170.039,223.397,175.737,229.022,173.971,231.262z"/>
			<path style="fill:#F5F5F5;" d="M171.869,237.142c-0.497,1.122-0.474,1.803,0.627,2.342c2.247,1.211,4.822,1.671,7.35,1.312
				c2.609-0.409,3.075-1.333,2.969-2.085c-0.118-0.618-0.585-1.11-1.196-1.26c-2.816-0.775-2.629-1.744-2.479-3.01
				c0.051-0.571,0.204-1.128,0.453-1.644l-4.491-3.5l-3.303-2.57C172.657,229.897,173.303,233.966,171.869,237.142z"/>
			<path style="opacity:0.1;enable-background:new    ;" d="M179.61,232.78c-0.023,0.023-0.041,0.049-0.055,0.077
				c-0.203,0.502-0.337,1.029-0.397,1.566l-0.046,0.325c-1.55-0.555-3.356-2.213-3.515-3.752c-0.046-0.45-0.057-0.903-0.032-1.355
				c0.013-0.11,0.024-0.213,0.034-0.309l2.908,2.594L179.61,232.78z"/>
			<path style="fill:#E0E0E0;" d="M182.679,223.212c3.328,0.804,4.242-4.319,3.047-5.609
				C183.613,215.321,179.35,222.408,182.679,223.212z"/>
			<path style="fill:#F5F5F5;" d="M171.195,217.887c1.195-3.739,5.195-5.802,8.934-4.607c5.106,1.666,6.232,9.196,5.39,13.863
				c-0.932,5.188-7.095,7.987-11.196,4.331c-2.713-2.416-2.83-5.417-3.407-10.508C170.783,219.931,170.878,218.88,171.195,217.887z"
				/>
			<path style="fill:#E0E0E0;" d="M169.088,214.091c-1.039-2.709,4.127-5.266,8.709-3.053c2.713,1.324,6.318-0.559,5.201-1.636
				c3.92-0.893,6.342,3.298,4.187,7.538c-1.865,3.674-7.577,2.029-12.646,1.068c1.327,2.733-1.492,8.444-3.915,6.688
				C165.305,220.839,166.126,213.949,169.088,214.091z"/>
			<path style="fill:#E0E0E0;" d="M170.409,209.785c-2.072,1.585-1.823,4.495-0.557,4.902
				C166.545,213.28,168.282,210.835,170.409,209.785z"/>
			<path style="fill:#F5F5F5;" d="M170.781,222.442c1.378,0.17,2.384,1.898,2.506,3.193c0.129,1.45-0.964,2.776-2.229,2.013
				c-0.972-0.605-1.689-1.546-2.014-2.643C168.644,223.635,169.403,222.272,170.781,222.442z"/>
		</g>
	</g>
	<g>
		<g>
			
				<rect x="366.49" y="302.694" transform="matrix(-1 -1.224647e-16 1.224647e-16 -1 736.515 657.533)" style="fill:#E0E0E0;" width="3.536" height="52.144"/>
			<g>
				<path style="fill:#E0E0E0;" d="M356.116,302.694h40.635v-1.363c0-2.764-2.241-5.005-5.005-5.005h-35.631V302.694z"/>
				
					<rect x="389.216" y="302.694" transform="matrix(-1 -1.224647e-16 1.224647e-16 -1 781.967 657.533)" style="fill:#E0E0E0;" width="3.536" height="52.144"/>
			</g>
		</g>
		<g>
			<polygon style="fill:#FAFAFA;" points="375.276,342.625 370.051,342.091 370.237,354.507 375.462,355.04 			"/>
			<path style="fill:#E0E0E0;" d="M369.016,354.111c-1.541,0.899-0.929,4.162-3.204,4.12c-0.958-0.013-3.085,3.189-0.911,3.62
				c2.174,0.431,5.339,0.505,6.944,0.601c0.186,0.013,0.369,0.012,0.549,0.001c2.359-0.151,4.074-2.337,3.979-4.698l-0.126-3.153
				c-0.002-0.177-0.173-0.323-0.382-0.327l-5.928-0.355C369.61,353.896,369.286,353.963,369.016,354.111z"/>
			<path style="fill:#FAFAFA;" d="M368.573,356.336c0.457,0.132,0.927,0.212,1.401,0.241c0.067,0.005,0.125-0.045,0.131-0.112
				c0.003-0.031-0.007-0.062-0.027-0.086c-0.126-0.16-1.245-1.601-1.939-1.538c-0.16,0.013-0.303,0.106-0.379,0.249
				c-0.14,0.201-0.161,0.461-0.056,0.682C367.912,356.063,368.222,356.264,368.573,356.336z M369.7,356.306
				c-0.958-0.104-1.634-0.345-1.775-0.646c-0.065-0.146-0.049-0.316,0.044-0.447c0.035-0.071,0.104-0.118,0.183-0.124
				C368.524,355.062,369.233,355.747,369.7,356.306z"/>
			<path style="fill:#FAFAFA;" d="M372.005,355.925c0.127-0.209,0.131-0.471,0.011-0.684c-0.061-0.149-0.194-0.256-0.353-0.284
				c-0.685-0.131-1.939,1.194-2.08,1.342c-0.022,0.022-0.035,0.052-0.035,0.083c-0.001,0.067,0.052,0.122,0.119,0.124
				c0.475,0.018,0.951-0.017,1.418-0.103C371.442,356.365,371.77,356.194,372.005,355.925z M371.627,355.203
				c0.078,0.013,0.143,0.067,0.17,0.141c0.079,0.139,0.079,0.31,0,0.449c-0.17,0.285-0.867,0.459-1.83,0.469
				C370.486,355.751,371.259,355.139,371.627,355.203z"/>
			<g>
				<polygon style="fill:#FAFAFA;" points="361.879,342.141 356.654,341.608 356.84,354.023 362.066,354.557 				"/>
				<path style="fill:#E0E0E0;" d="M355.619,353.628c-1.541,0.899-0.929,4.163-3.204,4.12c-0.958-0.013-3.085,3.189-0.911,3.62
					c2.174,0.431,5.339,0.505,6.944,0.602c0.186,0.012,0.369,0.012,0.549,0.001c2.359-0.151,4.074-2.337,3.979-4.698l-0.126-3.153
					c-0.002-0.177-0.173-0.323-0.382-0.327l-5.928-0.355C356.213,353.412,355.89,353.479,355.619,353.628z"/>
				<path style="fill:#FAFAFA;" d="M355.176,355.853c0.457,0.132,0.927,0.212,1.401,0.241c0.067,0.005,0.125-0.045,0.131-0.112
					c0.002-0.031-0.007-0.062-0.027-0.086c-0.125-0.16-1.245-1.601-1.939-1.538c-0.161,0.013-0.303,0.106-0.379,0.249
					c-0.14,0.201-0.161,0.461-0.056,0.682C354.516,355.579,354.826,355.781,355.176,355.853z M356.303,355.823
					c-0.958-0.104-1.634-0.345-1.775-0.646c-0.065-0.146-0.049-0.316,0.044-0.447c0.035-0.071,0.105-0.118,0.183-0.124
					C355.127,354.579,355.837,355.263,356.303,355.823z"/>
				<path style="fill:#FAFAFA;" d="M358.609,355.441c0.127-0.209,0.131-0.471,0.011-0.684c-0.061-0.149-0.194-0.256-0.353-0.284
					c-0.685-0.13-1.939,1.194-2.08,1.342c-0.022,0.022-0.035,0.052-0.035,0.083c-0.001,0.067,0.052,0.122,0.119,0.124
					c0.475,0.018,0.951-0.017,1.418-0.103C358.045,355.881,358.374,355.711,358.609,355.441z M358.23,354.72
					c0.078,0.013,0.143,0.067,0.17,0.141c0.079,0.139,0.079,0.31,0,0.449c-0.17,0.285-0.867,0.459-1.83,0.469
					C357.09,355.267,357.863,354.655,358.23,354.72z"/>
				<path style="fill:#E0E0E0;" d="M378.635,278.248c0,0,4.153,8.676,2.15,13.887c-2.266,5.892-3.761,4.235-13.59,4.112
					c1.909,16.941-2.594,48.919-2.594,48.919l-9.676-0.502c0,0-0.539-35.553-2.332-52.068
					c-1.237-11.454,10.663-14.567,10.663-14.567L378.635,278.248z"/>
			</g>
			<polygon style="opacity:0.1;enable-background:new    ;" points="382.401,296.818 382.401,302.694 377.588,302.694 
				377.032,296.327 			"/>
			<path style="fill:#E6E6E6;" d="M392.032,278.732c0,0,4.153,8.676,2.15,13.887c-2.266,5.892-3.761,4.235-13.591,4.112
				c1.909,16.941-2.594,48.919-2.594,48.919l-9.676-0.502c0,0-0.538-35.553-2.331-52.068c-1.238-11.454,10.663-14.567,10.663-14.567
				L392.032,278.732z"/>
			<path style="fill:#E0E0E0;" d="M364.14,236.313c-3.886,4.602-4.216,5.953-3.842,8.276c0.911,5.766,3.017,16.193,3.444,33.789
				l28.29,0.354c-0.011-8.428-0.447-17.718-1.474-23.911c-0.909-5.518-2.149-11.896-3.535-16.332
				c-0.704-2.261-2.834-3.772-5.201-3.688L364.14,236.313z"/>
			<g>
				<path style="fill:#FAFAFA;" d="M371.064,275.653l1.449,2.125l-5.844,1.664c0,0-2.859-4.701-0.617-5.786l1.479,0.245
					C368.803,274.101,370.323,274.471,371.064,275.653z"/>
				<polygon style="fill:#FAFAFA;" points="372.054,281.812 368.585,282.173 366.672,279.438 372.513,277.778 				"/>
				<g>
					<path style="fill:#FAFAFA;" d="M357.574,247.938c-3.472,4.27-4.587,12.489-3.783,15.518
						c1.412,5.319,7.801,11.029,12.684,13.566c1.65,0.857,0.904,0.516,2.111-0.898c1.328-1.555-1.163-4.077-2.539-5.591
						c-2.319-2.553-4.036-4.729-4.647-8.124c-0.383-2.128,0.288-4.284,0.831-6.377c0.544-2.093,0.953-4.378,0.094-6.362
						C361.467,247.686,357.574,247.938,357.574,247.938z"/>
				</g>
			</g>
			<path style="fill:#E0E0E0;" d="M366.823,257.706l-12.266-2.694c0.437-3.895,1.224-7.743,2.353-11.497
				c1.999-7.034,6.831-9.188,10.65-5.39C371.488,242.018,369.144,251.002,366.823,257.706z"/>
			<path style="opacity:0.1;enable-background:new    ;" d="M389.349,256.974c0,0-6.762,4.675-8.19-0.827
				c-1.428-5.502-5.445-15.232,2.463-17.112c3.166,5.159,4.425,8.992,5.133,13.336C388.98,253.766,389.181,255.32,389.349,256.974z"
				/>
			<g>
				<path style="fill:#FAFAFA;" d="M380.512,274.444l1.479-0.245c2.242,1.084-0.617,5.786-0.617,5.786l-5.844-1.664l1.449-2.125
					C377.719,275.013,379.238,274.643,380.512,274.444z"/>
				<polygon style="fill:#FAFAFA;" points="375.529,278.321 381.37,279.981 379.456,282.716 375.987,282.355 				"/>
				<g>
					<path style="fill:#FAFAFA;" d="M390.467,248.481c3.472,4.27,4.587,12.489,3.783,15.518
						c-1.412,5.319-7.801,11.029-12.684,13.566c-1.65,0.857-0.904,0.516-2.111-0.898c-1.328-1.555,1.163-4.077,2.539-5.591
						c2.319-2.553,4.036-4.729,4.647-8.124c0.383-2.128-0.288-4.284-0.831-6.377c-0.544-2.093-0.953-4.378-0.094-6.362
						C386.574,248.229,390.467,248.481,390.467,248.481z"/>
				</g>
			</g>
			<path style="fill:#E0E0E0;" d="M394.237,251.249l-11.566,4.898c-1.9-3.428-3.486-7.021-4.737-10.735
				c-2.427-6.868,0.253-11.413,5.577-10.535C388.957,235.779,392.228,244.458,394.237,251.249z"/>
			<path style="fill:#E0E0E0;" d="M376.396,231.262c1.767,2.24,4.228-2.697,4.045-5.912
				C380.327,223.397,374.629,229.022,376.396,231.262z"/>
			<path style="fill:#F5F5F5;" d="M378.497,237.142c0.497,1.122,0.474,1.803-0.627,2.342c-2.247,1.211-4.822,1.671-7.349,1.312
				c-2.609-0.409-3.075-1.333-2.969-2.085c0.118-0.618,0.585-1.11,1.196-1.26c2.816-0.775,2.629-1.744,2.479-3.01
				c-0.051-0.571-0.204-1.128-0.453-1.644l4.491-3.5l3.303-2.57C377.71,229.897,377.063,233.966,378.497,237.142z"/>
			<path style="opacity:0.1;enable-background:new    ;" d="M370.756,232.78c0.022,0.023,0.041,0.049,0.055,0.077
				c0.203,0.502,0.337,1.029,0.398,1.566l0.046,0.325c1.55-0.555,3.356-2.213,3.515-3.752c0.046-0.45,0.057-0.903,0.032-1.355
				c-0.013-0.11-0.024-0.213-0.034-0.309l-2.908,2.594L370.756,232.78z"/>
			<path style="fill:#E0E0E0;" d="M367.688,223.212c-3.328,0.804-4.242-4.319-3.047-5.609
				C366.754,215.321,371.016,222.408,367.688,223.212z"/>
			<path style="fill:#F5F5F5;" d="M379.171,217.887c-1.195-3.739-5.195-5.802-8.934-4.607c-5.106,1.666-6.232,9.196-5.39,13.863
				c0.932,5.188,7.095,7.987,11.196,4.331c2.713-2.416,2.83-5.417,3.407-10.508C379.584,219.931,379.489,218.88,379.171,217.887z"/>
			<path style="fill:#E0E0E0;" d="M380.945,222.785c0.151-0.807,0.378-1.874,0.091-2.678c-0.33-0.924-0.979-1.454-1.07-2.526
				c-0.079-0.942,0.052-1.896-0.078-2.832c-0.216-1.555-1.261-3.035-2.757-3.515c-1.205-0.386-2.512-0.11-3.775-0.194
				c-1.262-0.085-2.467-0.53-3.687-0.868c-1.219-0.337-2.524-0.567-3.74-0.218c-1.216,0.349-2.302,1.424-2.29,2.689
				c0.004,0.428,0.129,0.844,0.252,1.253c0.316,1.047,0.632,2.094,0.948,3.141c0.033,0.11,0.068,0.223,0.137,0.315
				c0.253,0.339,0.776,0.228,1.183,0.11c2.379-0.69,5.014-0.3,7.157,0.919c1.004,0.571,2.134,1.35,2.562,2.44
				c0.519,1.321,0.805,2.537,1.676,3.742c-0.035-0.585,0.609-1.053,1.19-0.976c0.581,0.078,1.041,0.564,1.258,1.108
				c0.177,0.443,0.232,0.948,0.253,1.421C380.614,225.147,380.743,223.867,380.945,222.785z"/>
			<path style="fill:#F5F5F5;" d="M379.586,222.442c-1.378,0.17-2.384,1.898-2.506,3.193c-0.129,1.45,0.964,2.776,2.229,2.013
				c0.972-0.605,1.689-1.546,2.014-2.643C381.722,223.635,380.963,222.272,379.586,222.442z"/>
		</g>
	</g>
	<g>
		<g>
			<circle style="fill:#E0E0E0;" cx="58.607" cy="81.748" r="9.7"/>
			<circle style="fill:#F5F5F5;" cx="58.663" cy="81.748" r="7.63"/>
		</g>
		<g>
			<circle style="fill:#E0E0E0;" cx="78.212" cy="81.748" r="9.7"/>
			<circle style="fill:#F5F5F5;" cx="78.268" cy="81.748" r="7.63"/>
		</g>
		<g>
			<circle style="fill:#E0E0E0;" cx="97.503" cy="81.748" r="9.7"/>
			<circle style="fill:#F5F5F5;" cx="97.559" cy="81.748" r="7.63"/>
		</g>
	</g>
	<g>
		<g>
			<circle style="fill:#E0E0E0;" cx="400.286" cy="81.748" r="9.7"/>
			<circle style="fill:#F5F5F5;" cx="400.342" cy="81.748" r="7.63"/>
		</g>
		<g>
			<circle style="fill:#E0E0E0;" cx="419.891" cy="81.748" r="9.7"/>
			<circle style="fill:#F5F5F5;" cx="419.947" cy="81.748" r="7.63"/>
		</g>
		<g>
			<circle style="fill:#E0E0E0;" cx="439.182" cy="81.748" r="9.7"/>
			<circle style="fill:#F5F5F5;" cx="439.238" cy="81.748" r="7.63"/>
		</g>
	</g>
	<g>
		<g>
			<g>
				<g>
					
						<rect x="418.148" y="302.694" transform="matrix(-1 -1.224647e-16 1.224647e-16 -1 839.832 657.533)" style="fill:#E0E0E0;" width="3.536" height="52.144"/>
					<g>
						<path style="fill:#E0E0E0;" d="M407.774,302.694h40.635v-1.363c0-2.764-2.241-5.005-5.004-5.005h-35.631V302.694z"/>
						
							<rect x="440.874" y="302.694" transform="matrix(-1 -1.224647e-16 1.224647e-16 -1 885.284 657.533)" style="fill:#E0E0E0;" width="3.536" height="52.144"/>
					</g>
				</g>
				<g>
					<polygon style="fill:#FAFAFA;" points="426.934,342.625 421.709,342.091 421.896,354.507 427.121,355.04 					"/>
					<path style="fill:#E0E0E0;" d="M420.674,354.111c-1.541,0.899-0.929,4.162-3.204,4.12c-0.958-0.013-3.085,3.189-0.911,3.62
						c2.174,0.431,5.339,0.505,6.944,0.601c0.186,0.013,0.369,0.012,0.549,0.001c2.359-0.151,4.074-2.337,3.979-4.698l-0.127-3.153
						c-0.002-0.177-0.173-0.323-0.382-0.327l-5.928-0.355C421.268,353.896,420.945,353.963,420.674,354.111z"/>
					<path style="fill:#FAFAFA;" d="M420.231,356.336c0.457,0.132,0.927,0.212,1.401,0.241c0.067,0.005,0.125-0.045,0.131-0.112
						c0.003-0.031-0.007-0.062-0.027-0.086c-0.126-0.16-1.245-1.601-1.939-1.538c-0.16,0.013-0.303,0.106-0.379,0.249
						c-0.14,0.201-0.161,0.461-0.056,0.682C419.571,356.063,419.881,356.264,420.231,356.336z M421.358,356.306
						c-0.958-0.104-1.634-0.345-1.775-0.646c-0.065-0.146-0.049-0.316,0.044-0.447c0.035-0.071,0.104-0.118,0.183-0.124
						C420.182,355.062,420.892,355.747,421.358,356.306z"/>
					<path style="fill:#FAFAFA;" d="M423.664,355.925c0.127-0.209,0.131-0.471,0.011-0.684c-0.061-0.149-0.194-0.256-0.352-0.284
						c-0.685-0.131-1.939,1.194-2.08,1.342c-0.022,0.022-0.035,0.052-0.035,0.083c-0.001,0.067,0.052,0.122,0.119,0.124
						c0.475,0.018,0.951-0.017,1.418-0.103C423.1,356.365,423.429,356.194,423.664,355.925z M423.286,355.203
						c0.078,0.013,0.143,0.067,0.17,0.141c0.079,0.139,0.079,0.31,0,0.449c-0.17,0.285-0.867,0.459-1.83,0.469
						C422.145,355.751,422.918,355.139,423.286,355.203z"/>
					<g>
						<polygon style="fill:#FAFAFA;" points="413.538,342.141 408.313,341.608 408.499,354.023 413.724,354.557 						"/>
						<path style="fill:#E0E0E0;" d="M407.278,353.628c-1.541,0.899-0.929,4.163-3.204,4.12c-0.958-0.013-3.085,3.189-0.911,3.62
							c2.174,0.431,5.339,0.505,6.943,0.602c0.186,0.012,0.369,0.012,0.549,0.001c2.359-0.151,4.074-2.337,3.979-4.698l-0.126-3.153
							c-0.002-0.177-0.173-0.323-0.382-0.327l-5.928-0.355C407.872,353.412,407.548,353.479,407.278,353.628z"/>
						<path style="fill:#FAFAFA;" d="M406.835,355.853c0.457,0.132,0.927,0.212,1.401,0.241c0.067,0.005,0.125-0.045,0.131-0.112
							c0.002-0.031-0.007-0.062-0.027-0.086c-0.125-0.16-1.245-1.601-1.939-1.538c-0.16,0.013-0.303,0.106-0.379,0.249
							c-0.14,0.201-0.161,0.461-0.056,0.682C406.174,355.579,406.484,355.781,406.835,355.853z M407.961,355.823
							c-0.958-0.104-1.634-0.345-1.775-0.646c-0.065-0.146-0.049-0.316,0.044-0.447c0.035-0.071,0.104-0.118,0.183-0.124
							C406.786,354.579,407.495,355.263,407.961,355.823z"/>
						<path style="fill:#FAFAFA;" d="M410.267,355.441c0.127-0.209,0.131-0.471,0.011-0.684c-0.061-0.149-0.194-0.256-0.353-0.284
							c-0.685-0.13-1.939,1.194-2.08,1.342c-0.022,0.022-0.035,0.052-0.035,0.083c-0.001,0.067,0.052,0.122,0.119,0.124
							c0.475,0.018,0.951-0.017,1.418-0.103C409.704,355.881,410.032,355.711,410.267,355.441z M409.889,354.72
							c0.078,0.013,0.143,0.067,0.17,0.141c0.079,0.139,0.079,0.31,0,0.449c-0.17,0.285-0.867,0.459-1.83,0.469
							C408.748,355.267,409.521,354.655,409.889,354.72z"/>
						<path style="fill:#E0E0E0;" d="M430.294,278.248c0,0,4.153,8.676,2.15,13.887c-2.266,5.892-3.761,4.235-13.59,4.112
							c1.909,16.941-2.594,48.919-2.594,48.919l-9.676-0.502c0,0-0.539-35.553-2.332-52.068
							c-1.237-11.454,13.107-15.504,13.107-15.504L430.294,278.248z"/>
						<polygon style="fill:#E0E0E0;" points="417.63,343.868 403.483,341.94 403.589,348.615 416.502,350.075 						"/>
					</g>
					<polygon style="opacity:0.1;enable-background:new    ;" points="434.059,296.818 434.059,302.694 429.246,302.694 
						428.691,296.327 					"/>
					<path style="fill:#E6E6E6;" d="M443.69,278.732c0,0,4.153,8.676,2.15,13.887c-2.266,5.892-3.761,4.235-13.59,4.112
						c1.909,16.941-2.594,48.919-2.594,48.919l-9.676-0.502c0,0-0.538-35.553-2.331-52.068
						c-1.238-11.454,10.663-14.567,10.663-14.567L443.69,278.732z"/>
					<polygon style="fill:#E0E0E0;" points="431.027,344.352 416.88,342.424 416.986,349.098 429.898,350.558 					"/>
					<g>
						<path style="fill:#E0E0E0;" d="M417.892,235.521c-1.857-1.108-4.298-0.256-5.244,1.689
							c-3.197,6.566-6.662,20.947-5.965,23.572c1.3,4.895,2.4,14.142,6.373,17.562c0.859,0.739,2.169,0.796,3.018,0.046
							c1.733-1.532-0.064-8.046-1.664-13.686c-1.516-5.347-0.714-5.347,1.524-14.506c0.513-2.1,1.786-5.203,2.33-7.295
							c0.544-2.093,1.432-4.378,0.573-6.362C418.647,236.099,418.307,235.768,417.892,235.521z"/>
					</g>
					<g>
						<path style="fill:#FAFAFA;" d="M419.457,278.252l1.449,2.125l-5.844,1.664c0,0-2.859-4.701-0.617-5.786l1.479,0.245
							C417.197,276.7,418.716,277.07,419.457,278.252z"/>
						<polygon style="fill:#FAFAFA;" points="420.448,284.411 416.979,284.772 415.065,282.037 420.906,280.377 						"/>
					</g>
					<path style="fill:#EBEBEB;" d="M417.007,234.797c-6.039,14.134-3.078,13.214,0.24,24.797
						c5.097,17.792-1.076,17.228-2.082,17.392l11.275,4.391l17.446-2.213c-2.391-10.198-8.043-12.545-9.07-18.738
						c-1.07-11.478,6.524-17.273,5.138-21.709c-0.469-1.508-1.167-2.76-2.999-3.83c-1.821-1.064-3.958-1.457-6.059-1.277
						L417.007,234.797z"/>
					<path style="opacity:0.1;enable-background:new    ;" d="M433.523,253.281c0.273,0.818,0.816,1.754,1.678,1.721
						c1.468-3.642,2.411-7.495,2.791-11.403c0.088-0.899,0.087-1.949-0.608-2.526c-2.279-1.894-3.995,2.174-4.313,3.648
						C432.463,247.546,432.605,250.538,433.523,253.281z"/>
					<g>
						<g>
							<path style="fill:#E0E0E0;" d="M438.811,237.171c3.472,4.27,4.637,25.871,3.833,28.901
								c-1.412,5.319-7.801,11.029-12.684,13.566c-1.65,0.857-0.904,0.516-2.111-0.898c-1.327-1.555,1.163-4.077,2.539-5.591
								c2.319-2.553,4.036-4.729,4.647-8.124c0.383-2.128,0.893-7.323,0.145-9.351c-2.091-5.673-1.979-14.786-1.12-16.77
								C434.918,236.919,438.811,237.171,438.811,237.171z"/>
						</g>
					</g>
					<path style="fill:#F5F5F5;" d="M430.109,235.081c0.589,1.077,0.622,1.757-0.43,2.386c-2.139,1.393-4.667,2.065-7.215,1.918
						c-2.634-0.191-3.175-1.074-3.132-1.832c0.066-0.626,0.491-1.155,1.088-1.355c2.742-1.006,2.475-1.956,2.22-3.205
						c-0.098-0.564-0.297-1.107-0.588-1.6l4.185-3.86l3.078-2.835C428.723,227.926,428.416,232.035,430.109,235.081z"/>
					<path style="opacity:0.1;enable-background:new    ;" d="M422.033,231.377c0.024,0.021,0.045,0.045,0.061,0.072
						c0.244,0.483,0.421,0.997,0.526,1.528l0.073,0.32c1.499-0.682,3.16-2.484,3.191-4.031c0.008-0.452-0.018-0.905-0.08-1.353
						c-0.022-0.108-0.042-0.21-0.06-0.305l-2.683,2.826L422.033,231.377z"/>
					<path style="fill:#F5F5F5;" d="M429.182,215.837c-1.501-3.627-5.659-5.35-9.285-3.849c-4.951,2.084-5.447,9.682-4.221,14.262
						c1.359,5.093,7.733,7.371,11.517,3.387c2.503-2.633,2.371-5.633,2.523-10.755C429.763,217.84,429.581,216.8,429.182,215.837z"
						/>
				</g>
			</g>
			<g>
				<path style="fill:#FAFAFA;" d="M428.82,276.516l1.479-0.245c2.242,1.084-0.617,5.786-0.617,5.786l-5.844-1.664l1.449-2.125
					C426.027,277.086,427.546,276.716,428.82,276.516z"/>
				<polygon style="fill:#FAFAFA;" points="423.837,280.393 429.678,282.053 427.764,284.788 424.296,284.427 				"/>
			</g>
		</g>
		<g>
			<path style="fill:#E0E0E0;" d="M418.993,212.077c-1.611-0.269-3.255,0.501-4.431,1.635c-1.176,1.133-1.968,2.598-2.741,4.036
				c-0.582,1.084-1.175,2.378-0.649,3.491c0.287,0.608,0.87,1.044,1.128,1.665c0.304,0.734,0.094,1.576-0.208,2.311
				c-0.302,0.734-0.699,1.451-0.774,2.242c-0.075,0.79,0.291,1.701,1.052,1.93c0.355,0.107,0.773,0.063,1.057,0.301
				c0.407,0.339,0.26,1.009-0.046,1.441c-0.306,0.432-0.742,0.801-0.865,1.316c-0.166,0.694,0.302,1.382,0.836,1.854
				c0.534,0.472,1.174,0.855,1.544,1.464c0.371,0.609,0.319,1.565-0.328,1.865c1.83-0.111,3.613-0.875,4.955-2.123
				c0.472-0.439,0.905-0.963,1.044-1.592c0.139-0.629-0.095-1.377-0.672-1.664c-0.195-0.097-0.416-0.137-0.609-0.239
				c-0.869-0.456-0.698-1.776-0.18-2.61c0.517-0.834,1.282-1.635,1.226-2.615c-0.086-1.524-1.997-2.198-2.77-3.514
				c-0.587-0.999-0.442-2.286,0.022-3.348c0.464-1.062,1.209-1.972,1.838-2.945c0.812-1.257,1.437-2.635,1.847-4.074
				c0.09-0.314,0.167-0.663,0.027-0.958c-0.193-0.406-0.738-0.537-1.169-0.407c-0.43,0.13-0.771,0.453-1.095,0.765
				C418.779,212.018,418.993,212.077,418.993,212.077z"/>
		</g>
		<g>
			<path style="fill:#E0E0E0;" d="M426.874,219.356c0.433,0.017,0.885,0.006,1.278,0.189c0.393,0.183,0.697,0.656,0.52,1.051
				c0.4-0.005,0.8-0.009,1.2-0.014c0.767,1.101,0.429,2.604-0.005,3.874c-0.434,1.27-0.935,2.673-0.413,3.909
				c0.147,0.348,0.375,0.688,0.349,1.064c-0.051,0.738-1.035,1.173-1.029,1.913c0.007,0.815,1.201,1.225,1.226,2.04
				c0.011,0.373-0.238,0.707-0.286,1.077c-0.124,0.948,0.997,1.52,1.912,1.797c-0.676-0.007-0.803-0.998-0.543-1.622
				c0.26-0.624,0.674-1.343,0.313-1.914c-0.172-0.273-0.489-0.429-0.661-0.702c-0.424-0.672,0.236-1.498,0.868-1.981
				c0.632-0.483,1.378-1.162,1.129-1.917c-0.524,0.284-1.229-0.043-1.495-0.577c-0.267-0.533-0.175-1.185,0.068-1.729
				c0.243-0.544,0.623-1.014,0.952-1.512c1.771-2.681,1.965-6.327,0.49-9.181c-1.476-2.854-4.562-4.804-7.774-4.909
				c-0.998-0.033-2.035,0.112-2.883,0.639c-0.848,0.527-1.469,1.496-1.376,2.491C420.106,212.622,420.645,219.109,426.874,219.356z"
				/>
		</g>
		<path style="fill:#F5F5F5;" d="M429.974,220.342c-1.359,0.284-2.218,2.09-2.233,3.39c-0.008,1.456,1.191,2.687,2.389,1.821
			c0.919-0.684,1.555-1.68,1.788-2.801C432.202,221.353,431.332,220.058,429.974,220.342z"/>
	</g>
	<g>
		<path style="fill:#EBEBEB;" d="M79.69,140.093c0,0-0.388,22.024,4.419,26.831s26.831,4.419,26.831,4.419
			s-22.024-0.387-26.831,4.419c-4.807,4.807-4.419,26.831-4.419,26.831s0.387-22.024-4.419-26.831
			c-4.807-4.807-26.831-4.419-26.831-4.419s22.024,0.387,26.831-4.419C80.078,162.117,79.69,140.093,79.69,140.093z"/>
		<path style="fill:#F0F0F0;" d="M331.22,160.868c0,0-0.221,12.569,2.522,15.313c2.743,2.743,15.313,2.522,15.313,2.522
			s-12.569-0.221-15.313,2.522c-2.743,2.743-2.522,15.313-2.522,15.313s0.221-12.569-2.522-15.313
			c-2.743-2.743-15.313-2.522-15.313-2.522s12.569,0.221,15.313-2.522C331.441,173.437,331.22,160.868,331.22,160.868z"/>
		<path style="fill:#F5F5F5;" d="M422.417,138.507c0,0-0.221,12.569,2.522,15.313c2.743,2.743,15.313,2.522,15.313,2.522
			s-12.569-0.221-15.313,2.522c-2.743,2.743-2.522,15.313-2.522,15.313s0.221-12.569-2.522-15.313
			c-2.743-2.743-15.313-2.522-15.313-2.522s12.569,0.221,15.313-2.522C422.638,151.076,422.417,138.507,422.417,138.507z"/>
		<path style="fill:#F0F0F0;" d="M278.877,195.972c0,0-0.126,7.173,1.439,8.739c1.566,1.566,8.739,1.439,8.739,1.439
			s-7.173-0.126-8.739,1.439c-1.566,1.566-1.439,8.739-1.439,8.739s0.126-7.173-1.44-8.739c-1.566-1.566-8.739-1.439-8.739-1.439
			s7.173,0.126,8.739-1.439C279.004,203.145,278.877,195.972,278.877,195.972z"/>
	</g>
</g>
<g id="Background_Simple" style="display:none;">
	<g style="display:inline;">
		<g>
			<path style="fill:#c50d23;" d="M84.2,357.522c-13.737-1.469-27.658-8.064-34.149-19.899c-5.95-10.847-4.779-23.924-3.248-36.121
				c1.995-15.896,4.37-31.894,10.075-46.921c5.706-15.026,15.031-29.174,28.595-38.303c6.195-4.169,13.485-7.286,21.02-7.009
				c7.535,0.277,15.217,4.586,17.671,11.502c2.153,6.069,0.103,12.938,3.016,18.96c1.033,2.135,2.736,3.956,5.004,4.805
				c4.483,1.678,8.275-1.21,11.503-3.9c12.316-10.268,24.632-20.536,36.947-30.804c10.998-9.169,22.662-18.664,36.872-21.471
				s31.515,3.798,35.023,17.446c2.57,9.999-2.215,22.318,6.203,29.477c3.588,3.051,8.54,4.055,13.211,3.113
				c10.037-2.024,16.283-9.6,22.375-16.753c9.524-11.183,20.337-22.52,34.746-26.4c14.409-3.88,32.905,3.238,35.461,17.529
				c1.223,6.839-1.189,14.445,2.342,20.483c4.309,7.368,15.404,8.162,23.356,4.66c7.952-3.503,13.998-10.02,21.106-14.941
				c7.108-4.921,16.702-8.247,24.473-4.381c8.712,4.335,10.942,15.347,11.058,24.844c0.417,34.188-16.494,79.548-43.134,101.938
				c-33.741,28.359-202.059,17.859-268.862,12.621c-11.801-0.925-23.651-0.94-35.47-0.246
				C94.71,358.026,89.352,358.074,84.2,357.522z"/>
		</g>
		<g style="opacity:0.9;">
			<path style="fill:#FFFFFF;" d="M84.2,357.522c-13.737-1.469-27.658-8.064-34.149-19.899c-5.95-10.847-4.779-23.924-3.248-36.121
				c1.995-15.896,4.37-31.894,10.075-46.921c5.706-15.026,15.031-29.174,28.595-38.303c6.195-4.169,13.485-7.286,21.02-7.009
				c7.535,0.277,15.217,4.586,17.671,11.502c2.153,6.069,0.103,12.938,3.016,18.96c1.033,2.135,2.736,3.956,5.004,4.805
				c4.483,1.678,8.275-1.21,11.503-3.9c12.316-10.268,24.632-20.536,36.947-30.804c10.998-9.169,22.662-18.664,36.872-21.471
				s31.515,3.798,35.023,17.446c2.57,9.999-2.215,22.318,6.203,29.477c3.588,3.051,8.54,4.055,13.211,3.113
				c10.037-2.024,16.283-9.6,22.375-16.753c9.524-11.183,20.337-22.52,34.746-26.4c14.409-3.88,32.905,3.238,35.461,17.529
				c1.223,6.839-1.189,14.445,2.342,20.483c4.309,7.368,15.404,8.162,23.356,4.66c7.952-3.503,13.998-10.02,21.106-14.941
				c7.108-4.921,16.702-8.247,24.473-4.381c8.712,4.335,10.942,15.347,11.058,24.844c0.417,34.188-16.494,79.548-43.134,101.938
				c-33.741,28.359-202.059,17.859-268.862,12.621c-11.801-0.925-23.651-0.94-35.47-0.246
				C94.71,358.026,89.352,358.074,84.2,357.522z"/>
		</g>
	</g>
</g>
<g id="Shadow">
	<ellipse id="_x3C_Path_x3E__359_" style="fill:#F5F5F5;" cx="250" cy="415.693" rx="193.889" ry="11.323"/>
</g>
<g id="Platform">
	<g>
		<g>
			<g>
				<path style="fill:#263238;" d="M270.629,226.853h1.941v-33.547c0-15.272-5.378-30.15-15.141-41.894l-9.411-11.319l-1.493,1.241
					l9.411,11.319c9.475,11.396,14.693,25.833,14.693,40.653V226.853z"/>
			</g>
			<path style="fill:#263238;" d="M245.622,141.69c-0.387,2.53,1.761,4.678,4.291,4.29c1.577-0.242,2.865-1.53,3.107-3.107
				c0.388-2.53-1.76-4.678-4.291-4.291C247.152,138.825,245.863,140.113,245.622,141.69z"/>
		</g>
		<g>
			<path style="fill:#c50d23;" d="M292.67,200.918v20.499c0,1.298-1.052,2.35-2.35,2.35h-7.875c-1.298,0-2.35-1.052-2.35-2.35
				v-20.499c0-2.807,1.841-5.177,4.372-5.983v-1.404h3.693v1.369c1.024,0.288,1.933,0.84,2.669,1.576
				C291.968,197.616,292.67,199.181,292.67,200.918z"/>
			<path style="opacity:0.7;fill:#FFFFFF;" d="M292.67,200.918v20.499c0,1.298-1.052,2.35-2.35,2.35h-7.875
				c-1.298,0-2.35-1.052-2.35-2.35v-20.499c0-2.807,1.841-5.177,4.372-5.983v-1.404h3.693v1.369c1.024,0.288,1.933,0.84,2.669,1.576
				C291.968,197.616,292.67,199.181,292.67,200.918z"/>
			<rect x="283.923" y="190.496" style="fill:#c50d23;" width="4.767" height="3.034"/>
		</g>
		<g>
			<g>
				<path style="fill:#c50d23;" d="M163.808,230.458h153.605c1.986-0.005,3.595-1.614,3.601-3.601l0,0
					c-0.005-1.988-1.613-3.6-3.601-3.61H163.808c-1.99,0.011-3.6,1.621-3.611,3.61l0,0
					C160.208,228.846,161.82,230.453,163.808,230.458z"/>
				<path style="opacity:0.3;enable-background:new    ;" d="M163.808,230.458h108.974c1.988-0.005,3.6-1.613,3.61-3.601l0,0
					c-0.011-1.99-1.621-3.6-3.61-3.61H163.808c-1.99,0.011-3.6,1.621-3.61,3.61l0,0C160.208,228.846,161.82,230.453,163.808,230.458
					z"/>
			</g>
			<g>
				<polygon style="fill:#c50d23;" points="318.235,230.458 167.59,230.458 179.566,392.815 309.836,392.122 				"/>
				<g>
					
						<rect x="160.198" y="392.122" transform="matrix(-1 -1.224647e-16 1.224647e-16 -1 484.9934 812.9178)" style="fill:#c50d23;" width="164.598" height="28.673"/>
					
						<rect x="160.198" y="392.278" transform="matrix(-1 -1.224647e-16 1.224647e-16 -1 439.2784 813.0731)" style="opacity:0.3;enable-background:new    ;" width="118.883" height="28.518"/>
					<polygon style="opacity:0.3;enable-background:new    ;" points="167.59,230.458 179.515,392.122 264.094,392.122 
						268.103,230.338 					"/>
					<polygon style="opacity:0.3;enable-background:new    ;" points="217.847,230.458 226.246,392.122 263.841,392.122 
						268.103,230.338 					"/>
				</g>
			</g>
		</g>
		<g>
			<g>
				<g>
					<g>
						<polygon style="fill:#c50d23;" points="255.406,217.524 202.982,217.6 205.842,184.363 258.266,184.288 						"/>
						<path style="fill:#263238;" d="M254.688,220.127l-51.66,0.075c-1.465,0.002-2.551-1.185-2.425-2.65l2.842-33.029
							c0.126-1.466,1.416-2.656,2.882-2.658l51.66-0.075c1.466-0.002,2.551,1.184,2.425,2.65l-2.842,33.03
							C257.444,218.934,256.154,220.124,254.688,220.127z"/>
						<g>
							<polygon style="fill:#c50d23;" points="255.406,217.524 202.982,217.6 205.842,184.363 258.266,184.288 							"/>
							<polygon style="opacity:0.9;fill:#FFFFFF;" points="255.406,217.524 202.982,217.6 205.842,184.363 258.266,184.288 							
								"/>
						</g>
						<g>
							<polygon style="fill:#c50d23;" points="251.973,193.94 242.348,193.954 242.814,188.539 252.439,188.525 							"/>
						</g>
						<g>
							<polygon style="fill:#c50d23;" points="251.055,204.622 241.429,204.635 241.895,199.22 251.52,199.206 							"/>
						</g>
						<g>
							<polygon style="fill:#c50d23;" points="250.136,215.303 240.51,215.317 240.976,209.902 250.602,209.888 							"/>
						</g>
						<g>
							<polygon style="opacity:0.1;fill:#FFFFFF;enable-background:new    ;" points="246.784,181.751 236.6,220.064 
								240.044,220.059 250.116,181.746 							"/>
							<polygon style="opacity:0.1;fill:#FFFFFF;enable-background:new    ;" points="252.1,181.743 241.916,220.056 
								248.748,220.046 258.82,181.733 							"/>
						</g>
						<polygon style="fill:#c50d23;" points="208.794,211.215 208.768,211.524 236.548,211.484 236.575,211.175 						"/>
						<polygon style="fill:#c50d23;" points="236.879,207.641 209.133,207.681 210.782,188.514 238.528,188.474 						"/>
						<path style="fill:#c50d23;" d="M209.905,215.235L209.905,215.235c-0.785,0.001-1.367-0.635-1.299-1.42l0,0
							c0.068-0.785,0.759-1.423,1.544-1.424l0,0c0.785-0.001,1.367,0.634,1.299,1.42l0,0
							C211.381,214.597,210.69,215.234,209.905,215.235z"/>
						<polygon style="fill:#c50d23;" points="222.803,210.017 208.931,210.037 209.036,208.811 222.909,208.791 						"/>
						<polygon style="fill:#c50d23;" points="236.281,214.388 230.921,214.396 231.026,213.171 236.386,213.163 						"/>
						<g>
							<polygon style="fill:#c50d23;" points="236.676,209.997 235.451,209.998 235.557,208.773 236.781,208.771 							"/>
							<polygon style="fill:#c50d23;" points="234.6,210 233.375,210.001 233.48,208.776 234.705,208.774 							"/>
							<polygon style="fill:#c50d23;" points="232.524,210.003 231.299,210.004 231.404,208.779 232.629,208.777 							"/>
						</g>
						<polygon style="opacity:0.2;fill:#FFFFFF;" points="222.803,210.017 208.931,210.037 209.036,208.811 222.909,208.791 						
							"/>
						<polygon style="opacity:0.2;" points="236.575,211.175 208.794,211.215 208.768,211.524 236.548,211.484 						"/>
					</g>
					<g>
						<path style="fill:#c50d23;" d="M230.322,200.653c0-0.016-0.011-0.027-0.017-0.04c-0.006-0.014-0.007-0.03-0.017-0.04
							c-0.01-0.01-0.026-0.011-0.04-0.017c-0.014-0.006-0.025-0.017-0.04-0.017c-0.001,0-0.001,0-0.002,0l-0.944,0.007l0.011-0.498
							l0.074-0.001l-0.003-0.409l-0.073,0.001l-0.079-2.245l-0.048-0.023c-0.64-0.319-1.385-0.314-2.02,0.014l-0.046,0.023
							l-0.048,2.246l-0.066,0l0.003,0.409l0.066-0.001l0.018,0.498l-0.944,0.007c0,0-0.001,0-0.001,0s-0.001,0-0.001,0
							c-0.016,0-0.027,0.012-0.04,0.018c-0.014,0.006-0.03,0.007-0.04,0.018c-0.011,0.011-0.011,0.027-0.017,0.041
							c-0.005,0.014-0.016,0.024-0.016,0.04c0,0,0,0.001,0,0.001c0,0,0,0.001,0,0.001c0.009,0.373,0.05,0.703,0.106,1.01
							c-0.324-0.129-0.714-0.263-1.193-0.387c-0.232-0.06-0.468-0.106-0.705-0.142c-0.255-0.24-0.346-0.529-0.344-0.835
							c0.035-0.211,0.09-0.418,0.168-0.617l-0.047-0.034c0.903-0.255,1.677-0.992,1.928-2.005c0.122-0.077,0.231-0.211,0.324-0.39
							c0.358-0.031,0.641-0.694,0.635-1.509c-0.005-0.777-0.27-1.407-0.605-1.489c0.114-0.453,0.221-1.206-0.247-1.862
							c-0.478-0.669-1.429-1.035-2.828-1.088c-1.743-0.065-2.927,0.329-3.52,1.173c-0.514,0.732-0.44,1.601-0.325,2.122
							c-0.158,0.277-0.26,0.708-0.256,1.197c0.006,0.816,0.297,1.474,0.656,1.501c0.154,0.286,0.348,0.464,0.561,0.462
							c0.134-0.001,0.26-0.076,0.373-0.2c0.159,0.55,0.408,1.017,0.846,1.442c0.015,0.835-0.117,1.69-0.584,2.196
							c-0.601,0.121-1.185,0.314-1.713,0.622c-0.366,0.213-1.859,1.023-2.056,1.396c-0.707,1.34-0.191,4.422-0.191,4.422
							l12.397-0.021l-0.302-3.206c-0.115-0.295-0.238-0.529-0.366-0.734c1.057-0.249,1.601-1.272,1.617-3.055
							C230.322,200.655,230.321,200.655,230.322,200.653C230.322,200.654,230.322,200.654,230.322,200.653z M220.444,193.713
							c-0.02,0.054-0.033,0.109-0.049,0.163c-0.04-0.012-0.08-0.027-0.121-0.027c-0.157,0.001-0.301,0.103-0.426,0.266
							c-0.033-0.392,0.007-0.869,0.292-1.274c0.473-0.673,1.491-0.985,3.025-0.928c1.21,0.045,2.011,0.33,2.379,0.846
							c0.245,0.343,0.262,0.743,0.217,1.077c-0.037-0.01-0.073-0.025-0.111-0.025c-0.017,0-0.033,0.01-0.05,0.012
							c-0.336-0.791-0.872-1.444-1.67-1.732C222.518,191.579,220.959,192.304,220.444,193.713z M226.348,201.797
							c-0.063-0.296-0.102-0.628-0.117-1l0.828-0.006l0.049,1.401C226.986,202.113,226.741,201.968,226.348,201.797z
							 M228.565,203.502c-0.397-0.541-0.831-0.79-1.236-1.137c0.6,0.24,1.268,0.224,1.848-0.076l0.047-0.025l0.032-1.488
							l0.828-0.006C230.047,202.417,229.549,203.317,228.565,203.502z"/>
						<path style="opacity:0.2;" d="M230.322,200.653c0-0.016-0.011-0.027-0.017-0.04c-0.006-0.014-0.007-0.03-0.017-0.04
							c-0.01-0.01-0.026-0.011-0.04-0.017c-0.014-0.006-0.025-0.017-0.04-0.017c-0.001,0-0.001,0-0.002,0l-0.944,0.007l0.011-0.498
							l0.074-0.001l-0.003-0.409l-0.073,0.001l-0.079-2.245l-0.048-0.023c-0.64-0.319-1.385-0.314-2.02,0.014l-0.046,0.023
							l-0.048,2.246l-0.066,0l0.003,0.409l0.066-0.001l0.018,0.498l-0.944,0.007c0,0-0.001,0-0.001,0s-0.001,0-0.001,0
							c-0.016,0-0.027,0.012-0.04,0.018c-0.014,0.006-0.03,0.007-0.04,0.018c-0.011,0.011-0.011,0.027-0.017,0.041
							c-0.005,0.014-0.016,0.024-0.016,0.04c0,0,0,0.001,0,0.001c0,0,0,0.001,0,0.001c0.009,0.373,0.05,0.703,0.106,1.01
							c-0.324-0.129-0.714-0.263-1.193-0.387c-0.232-0.06-0.468-0.106-0.705-0.142c-0.255-0.24-0.346-0.529-0.344-0.835
							c0.035-0.211,0.09-0.418,0.168-0.617l-0.047-0.034c0.903-0.255,1.677-0.992,1.928-2.005c0.122-0.077,0.231-0.211,0.324-0.39
							c0.358-0.031,0.641-0.694,0.635-1.509c-0.005-0.777-0.27-1.407-0.605-1.489c0.114-0.453,0.221-1.206-0.247-1.862
							c-0.478-0.669-1.429-1.035-2.828-1.088c-1.743-0.065-2.927,0.329-3.52,1.173c-0.514,0.732-0.44,1.601-0.325,2.122
							c-0.158,0.277-0.26,0.708-0.256,1.197c0.006,0.816,0.297,1.474,0.656,1.501c0.154,0.286,0.348,0.464,0.561,0.462
							c0.134-0.001,0.26-0.076,0.373-0.2c0.159,0.55,0.408,1.017,0.846,1.442c0.015,0.835-0.117,1.69-0.584,2.196
							c-0.601,0.121-1.185,0.314-1.713,0.622c-0.366,0.213-1.859,1.023-2.056,1.396c-0.707,1.34-0.191,4.422-0.191,4.422
							l12.397-0.021l-0.302-3.206c-0.115-0.295-0.238-0.529-0.366-0.734c1.057-0.249,1.601-1.272,1.617-3.055
							C230.322,200.655,230.321,200.655,230.322,200.653C230.322,200.654,230.322,200.654,230.322,200.653z M220.444,193.713
							c-0.02,0.054-0.033,0.109-0.049,0.163c-0.04-0.012-0.08-0.027-0.121-0.027c-0.157,0.001-0.301,0.103-0.426,0.266
							c-0.033-0.392,0.007-0.869,0.292-1.274c0.473-0.673,1.491-0.985,3.025-0.928c1.21,0.045,2.011,0.33,2.379,0.846
							c0.245,0.343,0.262,0.743,0.217,1.077c-0.037-0.01-0.073-0.025-0.111-0.025c-0.017,0-0.033,0.01-0.05,0.012
							c-0.336-0.791-0.872-1.444-1.67-1.732C222.518,191.579,220.959,192.304,220.444,193.713z M226.348,201.797
							c-0.063-0.296-0.102-0.628-0.117-1l0.828-0.006l0.049,1.401C226.986,202.113,226.741,201.968,226.348,201.797z
							 M228.565,203.502c-0.397-0.541-0.831-0.79-1.236-1.137c0.6,0.24,1.268,0.224,1.848-0.076l0.047-0.025l0.032-1.488
							l0.828-0.006C230.047,202.417,229.549,203.317,228.565,203.502z"/>
					</g>
				</g>
				<g>
					<path style="fill:#c50d23;" d="M252.071,223.637h-55.384v-3.582h58.497v0.469C255.184,222.244,253.791,223.637,252.071,223.637
						z"/>
					<path style="opacity:0.2;" d="M252.071,223.637h-55.384v-3.582h58.497v0.469C255.184,222.244,253.791,223.637,252.071,223.637z
						"/>
				</g>
				<path style="fill:#c50d23;" d="M243.828,223.637h-52.271c-1.719,0-3.113-1.394-3.113-3.113v-0.469h58.497v0.469
					C246.941,222.244,245.547,223.637,243.828,223.637z"/>
				<polygon style="fill:#c50d23;" points="258.108,186.583 205.643,186.583 205.845,184.277 258.31,184.277 				"/>
			</g>
		</g>
	</g>
</g>
<g id="Text_Balloon">
	<g>
		<g id="chat-bubble--inject-21">
			<path style="fill:#c50d23;" d="M341.729,98.051c-26.983-4.901-51.438,5.309-54.622,22.815c-0.687,4-0.284,8.112,1.167,11.902h0
				c5.175,15.019-5.766,11.67-29.88-0.002c6.89,9.277,25.352,19.475,41.152,20.381c5.067,0.291,10.023,1.467,14.679,3.487
				c5.127,2.225,10.508,3.842,16.032,4.812c26.983,4.901,51.44-5.319,54.622-22.815C388.06,121.135,368.736,102.907,341.729,98.051z
				"/>
		</g>
		<g>
			<g>
				<g>
					<rect x="311.09" y="111.919" style="fill:#FFFFFF;" width="53.3" height="1.5"/>
				</g>
				<g>
					<rect x="303.56" y="118.655" style="fill:#FFFFFF;" width="60.66" height="1.5"/>
				</g>
				<g>
					<rect x="303.523" y="125.39" style="fill:#FFFFFF;" width="60.527" height="1.5"/>
				</g>
				<g>
					<rect x="303.486" y="132.126" style="fill:#FFFFFF;" width="60.394" height="1.5"/>
				</g>
				<g>
					<rect x="303.449" y="138.861" style="fill:#FFFFFF;" width="60.261" height="1.5"/>
				</g>
			</g>
			<g>
				<rect x="338.595" y="146.077" style="fill:#FFFFFF;" width="25.115" height="1.5"/>
			</g>
		</g>
	</g>
</g>
<g id="Character_1_">
	<g>
		<g id="Character_2_">
			<path style="fill:#FF8B7B;" d="M254.428,358.012L260.987,382c0,0,9.568-0.099,9.299-3.978
				c-0.166-2.394-1.001-10.631-1.445-17.112c-0.169-2.465-1.431-4.484-2.889-4.953C263.523,355.174,260.281,356.252,254.428,358.012
				z"/>
			<path style="fill:#FF8B7B;" d="M184.955,358.616l-8.286,19.388c0,0,5.872,6.507,7.958,3.608
				c2.839-3.945,11.974-16.798,11.974-16.798S200.091,365.034,184.955,358.616z"/>
			<polygon style="opacity:0.2;" points="182.753,363.767 194.332,368.004 197.363,363.905 184.839,358.887 			"/>
			<polygon style="opacity:0.2;" points="256.842,366.84 258.353,372.368 269.654,371.658 269.062,362.899 			"/>
			<g>
				<g>
					<path style="fill:#FF8B7B;" d="M119.951,120.582l-2.581-6.463l6.092-2.979c0,0,7.047,4.8,6.158,5.277
						c-0.889,0.477-8.704,4.67-8.704,4.67L119.951,120.582z"/>
				</g>
				<g>
					<g>
						<path style="fill:#263238;" d="M183.69,149.343l-26.553,8.36c-3.718,0.945-7.624-0.557-9.758-3.746
							c-5.79-8.657-16.647-27.726-16.647-27.726l6.4-3.21c0,0,13.997,14.382,16.598,18.852c2.184,3.753,21.555-6.088,21.84-6.208
							l13.069-5.884C188.64,129.782,197.165,145.643,183.69,149.343z"/>
					</g>
					<path style="fill:#FF8B7B;" d="M130.733,126.232l-9.817-5.144l8.703-4.67c0,0,8.541,3.86,7.513,6.604L130.733,126.232z"/>
				</g>
			</g>
			<g>
				<path style="fill:#c50d23;" d="M222.7,289.141c0.158,4.924-0.069,9.904-0.879,14.707c-4.199,24.885-24.824,61.539-24.824,61.539
					l-13.705-4.142c0,0,15.57-52.109,16.901-65.211c1.079-10.696-17.755-48.28-23.509-63.672
					c-4.161-11.13-0.038-22.069-0.038-22.069s12.398,0.866,27.025,0.831l7.449,25.995l3.442,12.035c0,0,3.322,8.641,5.731,20.498
					c0.061,0.313,0.121,0.605,0.182,0.908c0.154,0.787,0.306,1.564,0.438,2.321C221.818,277.971,222.517,283.513,222.7,289.141z"/>
				<path style="opacity:0.3;fill:#FFFFFF;" d="M222.7,289.141c0.158,4.924-0.069,9.904-0.879,14.707
					c-4.199,24.885-24.824,61.539-24.824,61.539l-13.705-4.142c0,0,15.57-52.109,16.901-65.211
					c1.079-10.696-17.755-48.28-23.509-63.672c-4.161-11.13-0.038-22.069-0.038-22.069s12.398,0.866,27.025,0.831l7.449,25.995
					l3.442,12.035c0,0,3.322,8.641,5.731,20.498c0.061,0.313,0.121,0.605,0.182,0.908c0.154,0.787,0.306,1.564,0.438,2.321
					C221.818,277.971,222.517,283.513,222.7,289.141z"/>
			</g>
			<path style="opacity:0.4;fill:#263238;" d="M236.452,288.407c-3.912-5.555-17.556-21.34-33.435-36.196
				c-16.022-14.99-6.835-23.048-6.835-23.048c4.588,0.085,10.046,5.055,15.445,12.084c6.374,8.299,12.681,19.511,17.389,28.986
				c0.141,0.286,0.276,0.552,0.414,0.828c0.355,0.719,0.706,1.428,1.031,2.125C232.669,277.86,234.798,283.025,236.452,288.407z"/>
			<g>
				<g>
					<path style="fill:#c50d23;" d="M227.1,213.071l-34.915-0.367c0,0-1.849,8.173-1.474,13.956
						c1.372,21.158,16.245,19.153,21.543,29.443c11.746,22.814,21.924,36.611,23.484,43.142
						c1.225,5.131,20.679,70.044,20.679,70.044l13.549-0.884c0,0-6.553-51.678-10.109-72.026
						C256.302,276.031,227.1,213.071,227.1,213.071z"/>
				</g>
				<g style="opacity:0.3;">
					<path style="fill:#FFFFFF;" d="M227.1,213.071l-34.915-0.367c0,0-1.849,8.173-1.474,13.956
						c1.372,21.158,16.245,19.153,21.543,29.443c11.746,22.814,21.924,36.611,23.484,43.142
						c1.225,5.131,20.679,70.044,20.679,70.044l13.549-0.884c0,0-6.553-51.678-10.109-72.026
						C256.302,276.031,227.1,213.071,227.1,213.071z"/>
				</g>
			</g>
			<g>
				<path style="fill:#c50d23;" d="M191.824,382.563c-0.357-0.656-1.898-1.082-3.267-1.323c0,0-0.012,0-0.023,0
					c-0.541-0.103-1.059-0.173-1.461-0.219c-0.368-0.046-0.644-0.069-0.748-0.081c-0.092-0.011-0.184,0.046-0.23,0.138
					c-0.012,0.023-0.023,0.046-0.023,0.08c0,0.035,0.012,0.069,0.023,0.092c0.023,0.046,0.046,0.081,0.092,0.115
					c0.725,0.702,1.507,1.323,2.347,1.875c0.276,0.207,0.587,0.38,0.909,0.495c0.449,0.173,0.921,0.265,1.404,0.253
					c0.414-0.069,0.771-0.334,0.967-0.702C191.939,383.069,191.939,382.793,191.824,382.563z M191.387,383.092
					c-0.115,0.253-0.357,0.426-0.633,0.472c-0.552,0.069-1.427-0.311-2.474-1.047l-0.034-0.034
					c-0.403-0.276-0.829-0.621-1.277-1.024c0.15,0.023,0.311,0.046,0.472,0.058c1.692,0.242,3.659,0.679,3.97,1.3
					C191.455,382.897,191.444,383.012,191.387,383.092z"/>
				<path style="fill:#c50d23;" d="M190.708,379.031l-0.173-0.104c-1.346-0.828-3.049,0.61-3.889,1.496
					c-0.311,0.322-0.506,0.575-0.529,0.61c-0.011,0.012-0.023,0.035-0.023,0.046c-0.012,0.023-0.023,0.046-0.023,0.08
					c0,0.035,0.012,0.069,0.023,0.092c0.023,0.046,0.046,0.081,0.092,0.115l0.092,0.011c0.276,0.035,0.644,0.046,1.059,0.012
					c0.38-0.023,0.794-0.069,1.197-0.15c0.011,0,0.023,0,0.023,0c1.162-0.23,2.278-0.656,2.531-1.231
					C191.179,379.767,191.202,379.399,190.708,379.031z M190.65,379.848c-0.253,0.575-2.232,1.093-3.624,1.116
					c-0.092,0.012-0.173,0.012-0.253,0.012c0.046-0.046,0.092-0.092,0.15-0.15c0.748-0.782,2.278-2.198,3.383-1.496l0.115,0.069
					C190.754,379.652,190.65,379.848,190.65,379.848z"/>
			</g>
			<path style="fill:#263238;" d="M175.723,377.146l-4.022,8.397c-0.395,0.746-0.013,1.664,0.742,2.041
				c2.568,1.28,6.03,3.1,7.518,3.655c7.669,2.86,12.041,1.688,16.25,1.313c1.447-0.129,2.275-1.746,1.778-3.111l-0.226-0.621
				c-0.189-0.518-0.621-0.925-1.162-1.03c-6.248-1.216-10.197-7.729-10.197-7.729l-8.792-3.606
				C176.897,376.168,176.083,376.466,175.723,377.146z"/>
			<g>
				<g>
					<path style="fill:#c50d23;" d="M276.732,378.709c-0.489-0.529-1.982-0.568-3.321-0.468c-0.477,0.037-0.94,0.083-1.331,0.134
						c-0.31,0.042-0.575,0.074-0.767,0.11c-0.151,0.014-0.254,0.028-0.31,0.042c-0.022,0.005-0.044,0.011-0.053,0.025
						c-0.011,0.003-0.022,0.006-0.031,0.02c-0.053,0.025-0.087,0.081-0.106,0.145c-0.011,0.05-0.009,0.109,0.025,0.148
						c0.023,0.042,0.053,0.07,0.095,0.095c0.084,0.05,0.168,0.1,0.257,0.125c0.115,0.078,0.224,0.134,0.344,0.186
						c0.707,0.356,1.427,0.673,2.19,0.92c0.768,0.317,1.625,0.374,2.431,0.135c0.385-0.168,0.655-0.509,0.741-0.922
						C276.976,379.158,276.908,378.89,276.732,378.709z M276.449,379.326c-0.05,0.274-0.239,0.511-0.499,0.612
						c-0.711,0.286-2.227-0.08-4.115-1.028c-0.025-0.006-0.053-0.022-0.081-0.039c0.103-0.014,0.217-0.031,0.321-0.045
						c1.727-0.21,3.85-0.306,4.317,0.229C276.457,379.122,276.485,379.234,276.449,379.326z"/>
					<path style="fill:#c50d23;" d="M274.531,375.763l-0.19-0.047c-1.516-0.461-2.799,1.37-3.386,2.431
						c-0.047,0.095-0.097,0.179-0.139,0.249c-0.125,0.257-0.2,0.43-0.214,0.469c-0.028,0.078-0.019,0.159,0.034,0.229
						c0.02,0.031,0.048,0.047,0.076,0.064c0.014,0.008,0.025,0.006,0.039,0.014l0.103-0.014c0.103-0.014,0.217-0.031,0.337-0.073
						c0.048,0,0.103-0.014,0.159-0.028c0.156-0.039,0.31-0.09,0.485-0.146c0.078-0.02,0.154-0.051,0.24-0.084
						c0.438-0.146,0.906-0.359,1.336-0.586c0.9-0.476,1.653-1.069,1.738-1.625C275.179,376.359,275.103,376.011,274.531,375.763z
						 M274.685,376.567c-0.08,0.53-1.384,1.334-2.606,1.807c-0.304,0.112-0.589,0.208-0.856,0.275
						c0.022-0.053,0.059-0.098,0.089-0.165c0.523-0.939,1.653-2.718,2.915-2.324l0.117,0.042
						C274.741,376.363,274.685,376.567,274.685,376.567z"/>
				</g>
				<g style="opacity:0.2;">
					<path d="M276.732,378.709c-0.489-0.529-1.982-0.568-3.321-0.468c-0.477,0.037-0.94,0.083-1.331,0.134
						c-0.31,0.042-0.575,0.074-0.767,0.11c-0.151,0.014-0.254,0.028-0.31,0.042c-0.022,0.005-0.044,0.011-0.053,0.025
						c-0.011,0.003-0.022,0.006-0.031,0.02c-0.053,0.025-0.087,0.081-0.106,0.145c-0.011,0.05-0.009,0.109,0.025,0.148
						c0.023,0.042,0.053,0.07,0.095,0.095c0.084,0.05,0.168,0.1,0.257,0.125c0.115,0.078,0.224,0.134,0.344,0.186
						c0.707,0.356,1.427,0.673,2.19,0.92c0.768,0.317,1.625,0.374,2.431,0.135c0.385-0.168,0.655-0.509,0.741-0.922
						C276.976,379.158,276.908,378.89,276.732,378.709z M276.449,379.326c-0.05,0.274-0.239,0.511-0.499,0.612
						c-0.711,0.286-2.227-0.08-4.115-1.028c-0.025-0.006-0.053-0.022-0.081-0.039c0.103-0.014,0.217-0.031,0.321-0.045
						c1.727-0.21,3.85-0.306,4.317,0.229C276.457,379.122,276.485,379.234,276.449,379.326z"/>
					<path d="M274.531,375.763l-0.19-0.047c-1.516-0.461-2.799,1.37-3.386,2.431c-0.047,0.095-0.097,0.179-0.139,0.249
						c-0.125,0.257-0.2,0.43-0.214,0.469c-0.028,0.078-0.019,0.159,0.034,0.229c0.02,0.031,0.048,0.047,0.076,0.064
						c0.014,0.008,0.025,0.006,0.039,0.014l0.103-0.014c0.103-0.014,0.217-0.031,0.337-0.073c0.048,0,0.103-0.014,0.159-0.028
						c0.156-0.039,0.31-0.09,0.485-0.146c0.078-0.02,0.154-0.051,0.24-0.084c0.438-0.146,0.906-0.359,1.336-0.586
						c0.9-0.476,1.653-1.069,1.738-1.625C275.179,376.359,275.103,376.011,274.531,375.763z M274.685,376.567
						c-0.08,0.53-1.384,1.334-2.606,1.807c-0.304,0.112-0.589,0.208-0.856,0.275c0.022-0.053,0.059-0.098,0.089-0.165
						c0.523-0.939,1.653-2.718,2.915-2.324l0.117,0.042C274.741,376.363,274.685,376.567,274.685,376.567z"/>
				</g>
			</g>
			<path style="fill:#263238;" d="M259.24,380.94c-0.076,1.736,0.066,4.349,0.213,7.137c0.071,1.349,0.943,3.556,2.18,3.986
				c1.918,0.668,4.983,0.351,8.456-0.316c4.533-0.871,12.545-2.777,15.557-4.527c1.155-0.671,1.168-3.772-8.013-4.252
				c-3.894-0.204-7.07-4.932-7.07-4.932s-4.647,1.587-8.301,0.941C258.608,378.33,259.24,380.94,259.24,380.94z"/>
			<g>
				<path style="fill:#FF8B7B;" d="M214.098,106.66l3.83,6.689l5.232,9.121c-0.793,0.709-1.449,1.559-1.934,2.506
					c-1.178,2.049-2.121,3.533,2.129,6.871c0.938,0.685,1.39,1.855,1.156,2.993c-0.348,1.357-1.774,2.573-6.531,1.475
					c-4.568-1.158-8.646-3.745-11.64-7.384c-1.487-1.728-1.014-2.856,0.575-4.434C211.557,120.064,213.308,112.663,214.098,106.66z"
					/>
				<path style="fill:#263238;" d="M240.639,105.274c0.481,0.117,0.754,0.826,0.598,1.569c-0.156,0.743-0.665,1.254-1.158,1.135
					c-0.493-0.119-0.743-0.824-0.598-1.569C239.637,105.666,240.157,105.157,240.639,105.274z"/>
				<path style="fill:#263238;" d="M237.541,103.03c-0.175-0.173-0.183-0.454-0.017-0.636c0.984-1.078,2.421-1.625,3.873-1.475l0,0
					c0,0,0,0,0,0c0.244,0.041,0.409,0.272,0.368,0.517c-0.046,0.241-0.274,0.403-0.517,0.368c-1.156-0.095-2.29,0.352-3.071,1.209
					c-0.102,0.11-0.253,0.16-0.401,0.133C237.689,103.129,237.608,103.089,237.541,103.03z"/>
				<path style="fill:#A02724;" d="M238.03,112.796c0.931,0.582,2.074,0.718,3.116,0.37c-0.768-2.021-1.265-4.135-1.475-6.287
					L238.03,112.796z"/>
				<path style="fill:#FF8B7B;" d="M241.411,101.075c0,0.184,0,0.368-0.012,0.564c0,0,0,0,0,0.011
					c-0.023,0.725-0.081,1.45-0.173,2.175c-0.023,0.196-0.046,0.403-0.08,0.598c-0.046,0.357-0.104,0.713-0.161,1.07
					c-0.046,0.242-0.08,0.483-0.138,0.725c-0.034,0.173-0.069,0.357-0.103,0.529c-0.081,0.403-0.173,0.794-0.276,1.185
					c-0.127,0.506-0.265,1.001-0.403,1.484v0.012c-0.23,0.771-0.483,1.507-0.748,2.232h-0.012c-0.057,0.184-0.138,0.38-0.207,0.564
					c-0.115,0.299-0.242,0.598-0.368,0.897c-0.288,0.69-0.598,1.346-0.921,1.967l-0.011,0.023c-0.126,0.253-0.265,0.495-0.391,0.736
					c-0.092,0.173-0.196,0.334-0.299,0.495c-0.126,0.219-0.265,0.437-0.426,0.644c-0.322,0.483-0.69,0.943-1.081,1.369
					c0,0.011-0.012,0.011-0.012,0.023c-2.175,2.382-5.085,3.843-8.077,4.28c-1.404,0.207-2.83,0.184-4.211-0.081
					c-0.069-0.011-0.126-0.023-0.195-0.046c-3.118-0.656-5.983-2.543-7.835-5.822c-0.989-1.772-1.542-3.486-1.76-5.281
					c-0.035-0.253-0.058-0.506-0.081-0.771v-0.012c-0.288-3.946,0.851-8.307,2.151-14.359c0.391-1.875,1.185-3.636,2.324-5.177
					c4.326-5.822,12.541-7.03,18.374-2.704c3.428,2.589,4.901,6.65,5.12,11.057C241.423,99.994,241.423,100.523,241.411,101.075z"/>
				<path style="opacity:0.2;" d="M227.514,122.66c-1.407,0.204-2.828,0.185-4.214-0.082l-0.14-0.103l1.293-1.484
					C224.452,120.99,224.627,122.572,227.514,122.66z"/>
				<g>
					<path style="fill:#263238;" d="M249.824,97.456c-2.22,2.663-8.429,2.011-8.429,2.011l-2.757-2.379
						c-0.613-0.473-1.851-0.955-2.5,2.038l-0.99,2.576c0,0-2.676,5.091-6.98,7.745c-0.61,0.376-2.295,1.715-2.295,1.715
						c-2.971,2.22-6.921,2.631-10.285,1.07l-1.224-0.392c-1.256-0.402-2.163-1.493-2.325-2.802
						c-0.619-5.007-1.685-17.333,2.138-21.626c3.513-3.944,5.608-2.91,6.906-3.36c0.779-0.27,4.325-2.608,9.938-1.566
						c7.68,1.425,3.8,3.868,10.127,5.893c3.844,1.23,3.169,4.46,4.204,4.497C246.426,92.923,252.053,94.795,249.824,97.456z"/>
				</g>
				<path style="fill:#FF8B7B;" d="M225.813,104.02c-0.084,2.125,0.618,4.206,1.973,5.844c1.757,2.085,4.465,0.422,5.094-2.188
					c0.56-2.341-0.171-5.952-2.476-7.072C228.099,99.485,225.929,101.394,225.813,104.02z"/>
			</g>
			<path id="_x3C_Path_x3E__3_" style="fill:#FF8B7B;" d="M273.974,128.654l3.647-6.423l4.064,8.518c0,0-2.863,5.49-7.339,4.426
				L273.974,128.654z"/>
			<path id="_x3C_Path_x3E__2_" style="fill:#FF8B7B;" d="M285.815,121.551l1.152,2.798c0.369,0.897,0.112,1.929-0.634,2.548
				l-4.647,3.851l-4.064-8.518l5.403-1.923C284.137,119.912,285.365,120.459,285.815,121.551z"/>
			<path style="fill:#263238;" d="M231.867,154.591c0,0,18.593,19.732,31.233,17.027c11.366-2.432,15.439-37.314,15.439-37.314
				l-0.08-1.895c-0.078-1.867-1.5-3.402-3.357-3.622l-1.13-0.134L260.111,158.4l-25.087-24.767
				c-3.542-3.497-9.689-2.46-11.511,2.171C221.959,139.752,222.925,145.687,231.867,154.591z"/>
			<g>
				<path style="fill:#c50d23;" d="M200.834,127.486l4.002-3.553c0.943-0.837,2.153-1.302,3.414-1.318
					c2.939-0.037,8.774-0.415,13.836,1.17c4.603,1.442,3.901,5.31,3.901,5.31S217.174,126.151,200.834,127.486z"/>
				<path style="opacity:0.3;fill:#FFFFFF;" d="M200.834,127.486l4.002-3.553c0.943-0.837,2.153-1.302,3.414-1.318
					c2.939-0.037,8.774-0.415,13.836,1.17c4.603,1.442,3.901,5.31,3.901,5.31S217.174,126.151,200.834,127.486z"/>
			</g>
			<path style="fill:#263238;" d="M225.845,201.919l5.407,10.125l-3.037,0.702l-1.806-5.085c0.046,0.426,0.092,0.828,0.138,1.22
				l0.035,0.276c0.035,0.334,0.069,0.644,0.115,0.932l0.069,0.541c0.069,0.506,0.126,0.955,0.173,1.312l0.046,0.345
				c0.023,0.196,0.057,0.368,0.069,0.495l0.023,0.161l0.023,0.127c0,0-6.201,2.267-13.542,2.75
				c-11.713,0.759-38.094-0.115-38.094-0.115s-0.587-8.848,1.68-12.495c0.529-7.824,1.3-19.927,2.083-34.734
				c1.404-26.658,9.239-38.646,9.239-38.646s12.357-3.187,22.527-3.141c10.504,0.058,21.837,4.2,23.459,6.65
				c3.187,4.821-7.766,36.748-8.848,49.933C225.097,189.413,225.396,196.316,225.845,201.919z"/>
			<path style="fill:#263238;" d="M226.765,210.628c0.069,0.506,0.126,0.955,0.173,1.312L226.765,210.628z"/>
			<path style="fill:#263238;" d="M227.053,212.78l-0.069-0.495C227.007,212.481,227.041,212.653,227.053,212.78z"/>
		</g>
		<g>
			<path style="fill:#263238;" d="M237.8,115.11c-0.13,0.25-0.27,0.5-0.39,0.74c-0.09,0.17-0.2,0.33-0.3,0.49
				c-0.13,0.22-0.27,0.44-0.43,0.65c-0.32,0.48-0.68,0.93-1.08,1.36v0.01c-0.01,0-0.01-0.01-0.02-0.02c-0.02,0-0.02-0.01-0.03-0.02
				c-0.09-0.07-0.19-0.15-0.27-0.22c-0.08-0.07-0.16-0.15-0.24-0.22c-0.11-0.09-0.22-0.2-0.31-0.32c-0.42-0.46-0.72-0.94-0.91-1.45
				c-0.01-0.02-0.03-0.04-0.04-0.08c-0.01-0.01-0.01-0.02-0.01-0.04c-0.27-0.73-0.34-1.48-0.27-2.26c0.03-0.42,0.1-0.86,0.2-1.29
				c0.09,0.06,0.18,0.11,0.26,0.16c0.25,0.15,0.51,0.3,0.77,0.48c0.32,0.2,0.63,0.4,0.93,0.58
				C236.49,114.19,237.19,114.67,237.8,115.11z"/>
			<path style="fill:#FF5652;" d="M235.6,118.34v0.01c0-0.01-0.02-0.01-0.02-0.01c-0.02,0-0.02-0.01-0.03-0.02
				c-0.09-0.07-0.19-0.15-0.27-0.22c-0.08-0.07-0.16-0.15-0.24-0.22c-0.11-0.09-0.22-0.2-0.31-0.32c-0.42-0.46-0.72-0.94-0.91-1.45
				c-0.01-0.02-0.03-0.04-0.04-0.08c-0.01-0.01-0.01-0.02-0.01-0.04c-0.27-0.73-0.34-1.48-0.27-2.26
				c0.41,0.54,1.146,1.573,1.246,1.823C235.076,116.203,235.618,117.48,235.6,118.34z"/>
			<path style="fill:#FFFFFF;" d="M237.81,115.089c-0.702-0.506-1.415-0.989-2.151-1.427c-0.299-0.184-0.61-0.38-0.932-0.587
				c-0.253-0.173-0.518-0.322-0.771-0.472c-0.081,0.725,0.184,1.358,0.69,1.726c0.782,0.713,1.611,1.392,2.462,2.013
				c0.104-0.161,0.207-0.322,0.299-0.495c0.127-0.242,0.265-0.483,0.391-0.736L237.81,115.089z"/>
		</g>
		<path style="fill:#263238;" d="M233.274,112.055c0.712,1.688,5.485,5.068,6.053,1.787
			C239.709,111.637,233.194,111.867,233.274,112.055z"/>
	</g>
</g>
</svg>
